TitilliumWeb-Black.ufo
<glyph name="dollar" format="2">
  <advance width="550"/>
  <unicode hex="0024"/>
  <outline>
    <contour>
      <point x="247" y="-85" type="line"/>
      <point x="309" y="-85" type="line"/>
      <point x="309" y="31" type="line"/>
      <point x="247" y="31" type="line"/>
    </contour>
    <contour>
      <point x="247" y="635" type="line"/>
      <point x="309" y="635" type="line"/>
      <point x="309" y="751" type="line"/>
      <point x="247" y="751" type="line"/>
    </contour>
    <component base="S" xScale="0.97985" yScale="0.97991" xOffset="-9" yOffset="1"/>
  </outline>
</glyph>
<glyph name="ampersand" format="2">
  <advance width="702"/>
  <unicode hex="0026"/>
  <outline>
    <contour>
      <point x="287" y="-13" type="curve" smooth="yes"/>
      <point x="390" y="-13"/>
      <point x="466" y="7"/>
      <point x="524" y="42" type="curve"/>
      <point x="658" y="-13" type="line"/>
      <point x="704" y="112" type="line"/>
      <point x="640" y="168" type="line"/>
      <point x="664" y="214"/>
      <point x="682" y="266"/>
      <point x="697" y="324" type="curve"/>
      <point x="515" y="331" type="line"/>
      <point x="511" y="317"/>
      <point x="506" y="304"/>
      <point x="499" y="291" type="curve"/>
      <point x="441" y="343" type="line"/>
      <point x="570" y="377"/>
      <point x="585" y="412"/>
      <point x="585" y="502" type="curve" smooth="yes"/>
      <point x="585" y="646"/>
      <point x="476" y="683"/>
      <point x="337" y="683" type="curve" smooth="yes"/>
      <point x="157" y="683"/>
      <point x="87" y="614"/>
      <point x="87" y="500" type="curve" smooth="yes"/>
      <point x="87" y="442"/>
      <point x="92" y="410"/>
      <point x="115" y="377" type="curve"/>
      <point x="47" y="348"/>
      <point x="6" y="299"/>
      <point x="6" y="190" type="curve" smooth="yes"/>
      <point x="6" y="34"/>
      <point x="91" y="-13"/>
    </contour>
    <contour>
      <point x="308" y="168" type="curve" smooth="yes"/>
      <point x="258" y="168"/>
      <point x="232" y="190"/>
      <point x="232" y="229" type="curve" smooth="yes"/>
      <point x="232" y="242"/>
      <point x="233" y="253"/>
      <point x="236" y="262" type="curve"/>
      <point x="343" y="172" type="line"/>
      <point x="331" y="169"/>
      <point x="319" y="168"/>
    </contour>
    <contour>
      <point x="330" y="440" type="curve"/>
      <point x="311" y="458"/>
      <point x="304" y="474"/>
      <point x="304" y="498" type="curve" smooth="yes"/>
      <point x="304" y="528"/>
      <point x="313" y="543"/>
      <point x="335" y="543" type="curve" smooth="yes"/>
      <point x="355" y="543"/>
      <point x="365" y="532"/>
      <point x="365" y="498" type="curve" smooth="yes"/>
      <point x="365" y="475"/>
      <point x="347" y="453"/>
    </contour>
  </outline>
</glyph>
<glyph name="parenleft" format="2">
  <advance width="326"/>
  <unicode hex="0028"/>
  <outline>
    <contour>
      <point x="115" y="-125" type="curve"/>
      <point x="318" y="-125" type="line"/>
      <point x="286" y="-35"/>
      <point x="243" y="143"/>
      <point x="243" y="301" type="curve" smooth="yes"/>
      <point x="243" y="461"/>
      <point x="286" y="651"/>
      <point x="318" y="750" type="curve"/>
      <point x="115" y="750" type="line"/>
      <point x="72" y="669"/>
      <point x="16" y="491"/>
      <point x="16" y="301" type="curve" smooth="yes"/>
      <point x="16" y="111"/>
      <point x="72" y="-54"/>
    </contour>
  </outline>
</glyph>
<glyph name="plus" format="2">
  <advance width="550"/>
  <unicode hex="002B"/>
  <outline>
    <contour>
      <point x="185" y="23" type="line"/>
      <point x="365" y="23" type="line"/>
      <point x="365" y="164" type="line"/>
      <point x="506" y="164" type="line"/>
      <point x="506" y="344" type="line"/>
      <point x="365" y="344" type="line"/>
      <point x="365" y="483" type="line"/>
      <point x="185" y="483" type="line"/>
      <point x="185" y="344" type="line"/>
      <point x="44" y="344" type="line"/>
      <point x="44" y="164" type="line"/>
      <point x="185" y="164" type="line"/>
    </contour>
  </outline>
</glyph>
<glyph name="zero" format="2">
  <advance width="550"/>
  <unicode hex="0030"/>
  <outline>
    <contour>
      <point x="274" y="-13" type="curve" smooth="yes"/>
      <point x="474" y="-13"/>
      <point x="535" y="94"/>
      <point x="535" y="330" type="curve" smooth="yes"/>
      <point x="535" y="566"/>
      <point x="475" y="672"/>
      <point x="274" y="672" type="curve" smooth="yes"/>
      <point x="79" y="672"/>
      <point x="13" y="566"/>
      <point x="13" y="330" type="curve" smooth="yes"/>
      <point x="13" y="94"/>
      <point x="74" y="-13"/>
    </contour>
    <contour>
      <point x="274" y="175" type="curve" smooth="yes"/>
      <point x="247" y="175"/>
      <point x="240" y="196"/>
      <point x="240" y="330" type="curve" smooth="yes"/>
      <point x="240" y="464"/>
      <point x="246" y="484"/>
      <point x="274" y="484" type="curve" smooth="yes"/>
      <point x="302" y="484"/>
      <point x="308" y="464"/>
      <point x="308" y="330" type="curve" smooth="yes"/>
      <point x="308" y="196"/>
      <point x="301" y="175"/>
    </contour>
  </outline>
</glyph>
<glyph name="one" format="2">
  <advance width="550"/>
  <unicode hex="0031"/>
  <outline>
    <contour>
      <point x="240" y="0" type="line"/>
      <point x="467" y="0" type="line"/>
      <point x="467" y="659" type="line"/>
      <point x="276" y="659" type="line"/>
      <point x="42" y="523" type="line"/>
      <point x="102" y="361" type="line"/>
      <point x="240" y="416" type="line"/>
    </contour>
  </outline>
</glyph>
<glyph name="nine" format="2">
  <advance width="550"/>
  <unicode hex="0039"/>
  <outline>
    <contour>
      <point x="255" y="-13" type="curve" smooth="yes"/>
      <point x="412" y="-13"/>
      <point x="535" y="59"/>
      <point x="535" y="336" type="curve" smooth="yes"/>
      <point x="535" y="557"/>
      <point x="453" y="672"/>
      <point x="267" y="672" type="curve" smooth="yes"/>
      <point x="117" y="672"/>
      <point x="16" y="603"/>
      <point x="16" y="447" type="curve" smooth="yes"/>
      <point x="16" y="289"/>
      <point x="86" y="220"/>
      <point x="238" y="220" type="curve" smooth="yes"/>
      <point x="259" y="220"/>
      <point x="291" y="226"/>
      <point x="321" y="238" type="curve"/>
      <point x="317" y="195"/>
      <point x="299" y="170"/>
      <point x="245" y="170" type="curve" smooth="yes"/>
      <point x="184" y="170"/>
      <point x="97" y="180"/>
      <point x="49" y="187" type="curve"/>
      <point x="33" y="21" type="line" name="hr00"/>
      <point x="92" y="6"/>
      <point x="194" y="-13"/>
    </contour>
    <contour>
      <point x="265" y="397" type="curve" smooth="yes"/>
      <point x="236" y="397"/>
      <point x="220" y="410"/>
      <point x="220" y="445" type="curve" smooth="yes"/>
      <point x="220" y="474"/>
      <point x="232" y="494"/>
      <point x="267" y="494" type="curve" smooth="yes"/>
      <point x="314" y="494"/>
      <point x="322" y="466"/>
      <point x="322" y="409" type="curve"/>
      <point x="313" y="404"/>
      <point x="291" y="397"/>
    </contour>
  </outline>
</glyph>
<glyph name="less" format="2">
  <advance width="550"/>
  <unicode hex="003C"/>
  <outline>
    <contour>
      <point x="462" y="-13" type="line"/>
      <point x="462" y="218" type="line"/>
      <point x="223" y="261" type="line"/>
      <point x="462" y="293" type="line"/>
      <point x="462" y="517" type="line"/>
      <point x="76" y="366" type="line"/>
      <point x="76" y="145" type="line"/>
    </contour>
  </outline>
</glyph>
<glyph name="C" format="2">
  <advance width="533"/>
  <unicode hex="0043"/>
  <outline>
    <contour>
      <point x="304" y="-13" type="curve" smooth="yes"/>
      <point x="384" y="-13"/>
      <point x="473" y="2"/>
      <point x="519" y="13" type="curve"/>
      <point x="516" y="189" type="line"/>
      <point x="479" y="186"/>
      <point x="412" y="183"/>
      <point x="360" y="183" type="curve" smooth="yes"/>
      <point x="272" y="183"/>
      <point x="252" y="202"/>
      <point x="252" y="337" type="curve" smooth="yes"/>
      <point x="252" y="469"/>
      <point x="271" y="487"/>
      <point x="360" y="487" type="curve" smooth="yes"/>
      <point x="412" y="487"/>
      <point x="478" y="481"/>
      <point x="513" y="477" type="curve"/>
      <point x="519" y="656" type="line"/>
      <point x="463" y="668"/>
      <point x="369" y="683"/>
      <point x="314" y="683" type="curve" smooth="yes"/>
      <point x="82" y="683"/>
      <point x="18" y="601"/>
      <point x="18" y="337" type="curve" smooth="yes"/>
      <point x="18" y="65"/>
      <point x="84" y="-13"/>
    </contour>
  </outline>
</glyph>
<glyph name="D" format="2">
  <advance width="654"/>
  <unicode hex="0044"/>
  <outline>
    <contour>
      <point x="30" y="0" type="line"/>
      <point x="323" y="0" type="line" smooth="yes"/>
      <point x="556" y="0"/>
      <point x="638" y="122"/>
      <point x="638" y="345" type="curve" smooth="yes"/>
      <point x="638" y="568"/>
      <point x="546" y="670"/>
      <point x="313" y="670" type="curve" smooth="yes"/>
      <point x="30" y="670" type="line"/>
    </contour>
    <contour>
      <point x="262" y="189" type="line"/>
      <point x="262" y="481" type="line"/>
      <point x="303" y="481" type="line" smooth="yes"/>
      <point x="393" y="481"/>
      <point x="404" y="438"/>
      <point x="404" y="345" type="curve" smooth="yes"/>
      <point x="404" y="247"/>
      <point x="398" y="189"/>
      <point x="303" y="189" type="curve" smooth="yes"/>
    </contour>
  </outline>
</glyph>
<glyph name="F" format="2">
  <advance width="521"/>
  <unicode hex="0046"/>
  <outline>
    <contour>
      <point x="30" y="0" type="line"/>
      <point x="262" y="0" type="line"/>
      <point x="262" y="184" type="line"/>
      <point x="453" y="184" type="line"/>
      <point x="453" y="373" type="line"/>
      <point x="262" y="373" type="line"/>
      <point x="262" y="481" type="line"/>
      <point x="513" y="481" type="line"/>
      <point x="513" y="670" type="line"/>
      <point x="30" y="670" type="line"/>
    </contour>
  </outline>
</glyph>
<glyph name="G" format="2">
  <advance width="619"/>
  <unicode hex="0047"/>
  <outline>
    <contour>
      <point x="332" y="-9" type="curve" smooth="yes"/>
      <point x="390" y="-9"/>
      <point x="514" y="8"/>
      <point x="592" y="20" type="curve"/>
      <point x="592" y="394" type="line"/>
      <point x="345" y="394" type="line"/>
      <point x="346" y="232" type="line" name="hr00"/>
      <point x="376" y="232" type="line"/>
      <point x="376" y="182" type="line"/>
      <point x="363" y="181"/>
      <point x="352" y="181"/>
      <point x="342" y="181" type="curve" smooth="yes"/>
      <point x="265" y="181"/>
      <point x="251" y="231"/>
      <point x="251" y="336" type="curve" smooth="yes"/>
      <point x="251" y="453"/>
      <point x="253" y="487"/>
      <point x="352" y="487" type="curve" smooth="yes"/>
      <point x="418" y="487"/>
      <point x="525" y="480"/>
      <point x="587" y="474" type="curve"/>
      <point x="587" y="649" type="line"/>
      <point x="527" y="664"/>
      <point x="416" y="683"/>
      <point x="332" y="683" type="curve" smooth="yes"/>
      <point x="107" y="683"/>
      <point x="17" y="597"/>
      <point x="17" y="336" type="curve" smooth="yes"/>
      <point x="17" y="98"/>
      <point x="77" y="-9"/>
    </contour>
  </outline>
</glyph>
<glyph name="I" format="2">
  <advance width="292"/>
  <unicode hex="0049"/>
  <outline>
    <contour>
      <point x="30" y="0" type="line"/>
      <point x="262" y="0" type="line"/>
      <point x="262" y="670" type="line"/>
      <point x="30" y="670" type="line"/>
    </contour>
  </outline>
</glyph>
<glyph name="J" format="2">
  <advance width="321"/>
  <unicode hex="004A"/>
  <outline>
    <contour>
      <point x="15" y="-13" type="line"/>
      <point x="188" y="-13"/>
      <point x="294" y="-1"/>
      <point x="294" y="177" type="curve" smooth="yes"/>
      <point x="294" y="670" type="line"/>
      <point x="62" y="670" type="line"/>
      <point x="62" y="322" type="line" smooth="yes"/>
      <point x="62" y="181"/>
      <point x="58" y="178"/>
      <point x="15" y="178" type="curve"/>
    </contour>
  </outline>
</glyph>
<glyph name="N" format="2">
  <advance width="688"/>
  <unicode hex="004E"/>
  <outline>
    <contour>
      <point x="30" y="0" type="line"/>
      <point x="262" y="0" type="line"/>
      <point x="262" y="273" type="line"/>
      <point x="277" y="273" type="line"/>
      <point x="429" y="0" type="line"/>
      <point x="658" y="0" type="line"/>
      <point x="658" y="670" type="line"/>
      <point x="426" y="670" type="line"/>
      <point x="426" y="416" type="line"/>
      <point x="412" y="416" type="line"/>
      <point x="258" y="670" type="line"/>
      <point x="30" y="670" type="line"/>
    </contour>
  </outline>
</glyph>
<glyph name="Q" format="2">
  <advance width="667"/>
  <unicode hex="0051"/>
  <outline>
    <contour>
      <point x="459" y="-158" type="line"/>
      <point x="635" y="-71" type="line"/>
      <point x="555" y="48" type="line"/>
      <point x="621" y="103"/>
      <point x="651" y="196"/>
      <point x="651" y="335" type="curve" smooth="yes"/>
      <point x="651" y="582"/>
      <point x="557" y="683"/>
      <point x="332" y="683" type="curve" smooth="yes"/>
      <point x="107" y="683"/>
      <point x="16" y="582"/>
      <point x="16" y="335" type="curve" smooth="yes"/>
      <point x="16" y="88"/>
      <point x="110" y="-13"/>
      <point x="332" y="-13" type="curve" smooth="yes"/>
      <point x="342" y="-13"/>
      <point x="352" y="-13"/>
      <point x="361" y="-12" type="curve"/>
    </contour>
    <contour>
      <point x="332" y="175" type="curve" smooth="yes"/>
      <point x="260" y="175"/>
      <point x="244" y="233"/>
      <point x="244" y="335" type="curve" smooth="yes"/>
      <point x="244" y="437"/>
      <point x="260" y="495"/>
      <point x="332" y="495" type="curve" smooth="yes"/>
      <point x="407" y="495"/>
      <point x="417" y="437"/>
      <point x="417" y="335" type="curve" smooth="yes"/>
      <point x="417" y="234"/>
      <point x="406" y="175"/>
    </contour>
  </outline>
</glyph>
<glyph name="R" format="2">
  <advance width="617"/>
  <unicode hex="0052"/>
  <anchor x="310" y="0" name="bottom"/>
  <outline>
    <contour>
      <point x="30" y="0" type="line"/>
      <point x="262" y="0" type="line"/>
      <point x="262" y="173" type="line"/>
      <point x="320" y="173" type="line"/>
      <point x="357" y="0" type="line"/>
      <point x="593" y="0" type="line"/>
      <point x="527" y="228" type="line"/>
      <point x="575" y="267"/>
      <point x="601" y="329"/>
      <point x="601" y="423" type="curve" smooth="yes"/>
      <point x="601" y="624"/>
      <point x="507" y="670"/>
      <point x="312" y="670" type="curve" smooth="yes"/>
      <point x="30" y="670" type="line"/>
    </contour>
    <contour>
      <point x="261" y="356" type="line"/>
      <point x="261" y="487" type="line"/>
      <point x="312" y="487" type="line" smooth="yes"/>
      <point x="350" y="487"/>
      <point x="367" y="465"/>
      <point x="367" y="423" type="curve" smooth="yes"/>
      <point x="367" y="381"/>
      <point x="351" y="356"/>
      <point x="318" y="356" type="curve" smooth="yes"/>
    </contour>
  </outline>
</glyph>
<glyph name="S" format="2">
  <advance width="578"/>
  <unicode hex="0053"/>
  <outline>
    <contour>
      <point x="303" y="-14" type="curve" smooth="yes"/>
      <point x="474" y="-14"/>
      <point x="568" y="45"/>
      <point x="568" y="216" type="curve" smooth="yes"/>
      <point x="568" y="373"/>
      <point x="512" y="398"/>
      <point x="321" y="441" type="curve" smooth="yes"/>
      <point x="257" y="455"/>
      <point x="250" y="460"/>
      <point x="250" y="474" type="curve" smooth="yes"/>
      <point x="250" y="488"/>
      <point x="260" y="492"/>
      <point x="301" y="492" type="curve" smooth="yes"/>
      <point x="373" y="492"/>
      <point x="479" y="483"/>
      <point x="540" y="477" type="curve"/>
      <point x="546" y="657" type="line"/>
      <point x="478" y="668"/>
      <point x="359" y="683"/>
      <point x="281" y="683" type="curve" smooth="yes"/>
      <point x="115" y="683"/>
      <point x="16" y="639"/>
      <point x="16" y="448" type="curve" smooth="yes"/>
      <point x="16" y="308"/>
      <point x="69" y="256"/>
      <point x="257" y="227" type="curve" smooth="yes"/>
      <point x="327" y="216"/>
      <point x="334" y="214"/>
      <point x="334" y="200" type="curve" smooth="yes"/>
      <point x="334" y="184"/>
      <point x="322" y="177"/>
      <point x="282" y="177" type="curve" smooth="yes"/>
      <point x="210" y="177"/>
      <point x="97" y="190"/>
      <point x="31" y="199" type="curve"/>
      <point x="21" y="22" type="line"/>
      <point x="81" y="7"/>
      <point x="199" y="-14"/>
    </contour>
  </outline>
</glyph>
<glyph name="T" format="2">
  <advance width="519"/>
  <unicode hex="0054"/>
  <outline>
    <contour>
      <point x="147" y="0" type="line"/>
      <point x="379" y="0" type="line"/>
      <point x="379" y="481" type="line"/>
      <point x="509" y="481" type="line"/>
      <point x="509" y="670" type="line"/>
      <point x="9" y="670" type="line"/>
      <point x="9" y="481" type="line"/>
      <point x="147" y="481" type="line"/>
    </contour>
  </outline>
</glyph>
<glyph name="bracketleft" format="2">
  <advance width="341"/>
  <unicode hex="005B"/>
  <outline>
    <contour>
      <point x="33" y="-123" type="line"/>
      <point x="322" y="-123" type="line"/>
      <point x="322" y="58" type="line"/>
      <point x="258" y="58" type="line"/>
      <point x="258" y="568" type="line"/>
      <point x="322" y="568" type="line"/>
      <point x="322" y="749" type="line"/>
      <point x="33" y="749" type="line"/>
    </contour>
  </outline>
</glyph>
<glyph name="bracketright" format="2">
  <advance width="339"/>
  <unicode hex="005D"/>
  <outline>
    <contour>
      <point x="306" y="-123" type="line"/>
      <point x="306" y="749" type="line"/>
      <point x="17" y="749" type="line"/>
      <point x="17" y="568" type="line"/>
      <point x="81" y="568" type="line"/>
      <point x="81" y="58" type="line"/>
      <point x="17" y="58" type="line"/>
      <point x="17" y="-123" type="line"/>
    </contour>
  </outline>
</glyph>
<glyph name="grave" format="2">
  <advance width="423"/>
  <unicode hex="0060"/>
  <outline>
    <contour>
      <point x="187" y="557" type="line"/>
      <point x="358" y="557" type="line"/>
      <point x="315" y="723" type="line"/>
      <point x="78" y="723" type="line"/>
    </contour>
  </outline>
</glyph>
<glyph name="c" format="2">
  <advance width="465"/>
  <unicode hex="0063"/>
  <outline>
    <contour>
      <point x="266" y="-13" type="curve" smooth="yes"/>
      <point x="330" y="-13"/>
      <point x="408" y="3"/>
      <point x="449" y="15" type="curve"/>
      <point x="442" y="190" type="line"/>
      <point x="397" y="187"/>
      <point x="327" y="183"/>
      <point x="299" y="183" type="curve" smooth="yes"/>
      <point x="256" y="183"/>
      <point x="242" y="200"/>
      <point x="242" y="253" type="curve" smooth="yes"/>
      <point x="242" y="305"/>
      <point x="257" y="323"/>
      <point x="299" y="323" type="curve" smooth="yes"/>
      <point x="327" y="323"/>
      <point x="396" y="318"/>
      <point x="440" y="315" type="curve"/>
      <point x="447" y="492" type="line"/>
      <point x="402" y="503"/>
      <point x="322" y="518"/>
      <point x="266" y="518" type="curve" smooth="yes"/>
      <point x="88" y="518"/>
      <point x="16" y="457"/>
      <point x="16" y="253" type="curve" smooth="yes"/>
      <point x="16" y="62"/>
      <point x="70" y="-13"/>
    </contour>
  </outline>
</glyph>
<glyph name="d" format="2">
  <advance width="570"/>
  <unicode hex="0064"/>
  <outline>
    <contour>
      <point x="214" y="-13" type="curve" smooth="yes"/>
      <point x="251" y="-13"/>
      <point x="295" y="7"/>
      <point x="319" y="22" type="curve"/>
      <point x="321" y="0" type="line" name="hr01"/>
      <point x="542" y="0" type="line"/>
      <point x="542" y="690" type="line" name="hr00"/>
      <point x="318" y="690" type="line"/>
      <point x="318" y="512" type="line"/>
      <point x="295" y="515"/>
      <point x="257" y="518"/>
      <point x="237" y="518" type="curve" smooth="yes"/>
      <point x="76" y="518"/>
      <point x="16" y="413"/>
      <point x="16" y="252" type="curve" smooth="yes"/>
      <point x="16" y="91"/>
      <point x="59" y="-13"/>
    </contour>
    <contour>
      <point x="287" y="168" type="curve" smooth="yes"/>
      <point x="247" y="168"/>
      <point x="242" y="207"/>
      <point x="242" y="252" type="curve" smooth="yes"/>
      <point x="242" y="297"/>
      <point x="247" y="337"/>
      <point x="286" y="337" type="curve" smooth="yes"/>
      <point x="295" y="337"/>
      <point x="310" y="336"/>
      <point x="318" y="334" type="curve"/>
      <point x="318" y="171" type="line"/>
      <point x="310" y="169"/>
      <point x="287" y="168" name="hr02"/>
    </contour>
  </outline>
</glyph>
<glyph name="f" format="2">
  <advance width="358"/>
  <unicode hex="0066"/>
  <outline>
    <contour>
      <point x="45" y="0" type="line"/>
      <point x="269" y="0" type="line"/>
      <point x="269" y="324" type="line"/>
      <point x="349" y="324" type="line"/>
      <point x="349" y="505" type="line"/>
      <point x="269" y="505" type="line"/>
      <point x="269" y="515" type="line" smooth="yes"/>
      <point x="269" y="522"/>
      <point x="279" y="528"/>
      <point x="308" y="528" type="curve" smooth="yes"/>
      <point x="320" y="528"/>
      <point x="333" y="528"/>
      <point x="351" y="528" type="curve"/>
      <point x="351" y="690" type="line"/>
      <point x="321" y="696"/>
      <point x="264" y="703"/>
      <point x="217" y="703" type="curve" smooth="yes"/>
      <point x="81" y="703"/>
      <point x="45" y="649"/>
      <point x="45" y="509" type="curve" smooth="yes"/>
      <point x="45" y="505" type="line"/>
      <point x="18" y="505" type="line"/>
      <point x="18" y="324" type="line"/>
      <point x="45" y="324" type="line"/>
    </contour>
  </outline>
</glyph>
<glyph name="j" format="2">
  <advance width="280"/>
  <unicode hex="006A"/>
  <outline>
    <contour>
      <point x="11" y="-220" type="line"/>
      <point x="209" y="-158"/>
      <point x="252" y="-128"/>
      <point x="252" y="73" type="curve" smooth="yes"/>
      <point x="252" y="505" type="line"/>
      <point x="28" y="505" type="line"/>
      <point x="28" y="66" type="line" smooth="yes"/>
      <point x="28" y="-6"/>
      <point x="20" y="-12"/>
      <point x="-61" y="-50" type="curve"/>
    </contour>
    <contour>
      <point x="27" y="538" type="line"/>
      <point x="253" y="538" type="line"/>
      <point x="253" y="690" type="line"/>
      <point x="27" y="690" type="line"/>
    </contour>
  </outline>
</glyph>
<glyph name="k" format="2">
  <advance width="553"/>
  <unicode hex="006B"/>
  <anchor x="295" y="0" name="bottom"/>
  <outline>
    <contour>
      <point x="28" y="0" type="line"/>
      <point x="252" y="0" type="line"/>
      <point x="252" y="148" type="line"/>
      <point x="282" y="148" type="line"/>
      <point x="329" y="0" type="line"/>
      <point x="553" y="0" type="line"/>
      <point x="475" y="261" type="line"/>
      <point x="547" y="505" type="line"/>
      <point x="326" y="505" type="line"/>
      <point x="281" y="343" type="line"/>
      <point x="252" y="343" type="line"/>
      <point x="252" y="690" type="line"/>
      <point x="28" y="690" type="line"/>
    </contour>
  </outline>
</glyph>
<glyph name="m" format="2">
  <advance width="861"/>
  <unicode hex="006D"/>
  <outline>
    <contour>
      <point x="28" y="0" type="line"/>
      <point x="252" y="0" type="line"/>
      <point x="252" y="320" type="line"/>
      <point x="259" y="322"/>
      <point x="274" y="325"/>
      <point x="289" y="325" type="curve" smooth="yes"/>
      <point x="313" y="325"/>
      <point x="321" y="289"/>
      <point x="321" y="228" type="curve" smooth="yes"/>
      <point x="321" y="0" type="line"/>
      <point x="545" y="0" type="line"/>
      <point x="545" y="232" type="line" smooth="yes"/>
      <point x="545" y="267"/>
      <point x="543" y="304"/>
      <point x="538" y="319" type="curve"/>
      <point x="548" y="322"/>
      <point x="566" y="325"/>
      <point x="581" y="325" type="curve" smooth="yes"/>
      <point x="605" y="325"/>
      <point x="614" y="289"/>
      <point x="614" y="228" type="curve" smooth="yes"/>
      <point x="614" y="0" type="line"/>
      <point x="838" y="0" type="line"/>
      <point x="838" y="255" type="line" smooth="yes"/>
      <point x="838" y="429"/>
      <point x="798" y="518"/>
      <point x="635" y="518" type="curve" smooth="yes"/>
      <point x="577" y="518"/>
      <point x="516" y="492"/>
      <point x="485" y="473" type="curve"/>
      <point x="462" y="498"/>
      <point x="429" y="518"/>
      <point x="374" y="518" type="curve" smooth="yes"/>
      <point x="332" y="518"/>
      <point x="279" y="496"/>
      <point x="251" y="479" type="curve"/>
      <point x="251" y="505" type="line"/>
      <point x="28" y="505" type="line"/>
    </contour>
  </outline>
</glyph>
<glyph name="n" format="2">
  <advance width="578"/>
  <unicode hex="006E"/>
  <outline>
    <contour>
      <point x="28" y="0" type="line"/>
      <point x="252" y="0" type="line"/>
      <point x="252" y="318" type="line"/>
      <point x="262" y="321"/>
      <point x="281" y="325"/>
      <point x="295" y="325" type="curve" smooth="yes"/>
      <point x="319" y="325"/>
      <point x="331" y="299"/>
      <point x="331" y="238" type="curve" smooth="yes"/>
      <point x="331" y="0" type="line"/>
      <point x="555" y="0" type="line"/>
      <point x="555" y="253" type="line" smooth="yes"/>
      <point x="555" y="451"/>
      <point x="504" y="518"/>
      <point x="361" y="518" type="curve" smooth="yes"/>
      <point x="327" y="518"/>
      <point x="278" y="496"/>
      <point x="251" y="479" type="curve"/>
      <point x="251" y="505" type="line"/>
      <point x="28" y="505" type="line"/>
    </contour>
  </outline>
</glyph>
<glyph name="r" format="2">
  <advance width="368"/>
  <unicode hex="0072"/>
  <outline>
    <contour>
      <point x="28" y="0" type="line"/>
      <point x="252" y="0" type="line"/>
      <point x="252" y="274" type="line"/>
      <point x="281" y="289"/>
      <point x="330" y="310"/>
      <point x="358" y="310" type="curve"/>
      <point x="358" y="518" type="line"/>
      <point x="327" y="518"/>
      <point x="279" y="484"/>
      <point x="252" y="458" type="curve"/>
      <point x="252" y="505" type="line"/>
      <point x="28" y="505" type="line"/>
    </contour>
  </outline>
</glyph>
<glyph name="t" format="2">
  <advance width="371"/>
  <unicode hex="0074"/>
  <outline>
    <contour>
      <point x="222" y="-13" type="curve" smooth="yes"/>
      <point x="256" y="-13"/>
      <point x="317" y="-3"/>
      <point x="354" y="5" type="curve"/>
      <point x="351" y="179" type="line"/>
      <point x="347" y="179"/>
      <point x="309" y="178"/>
      <point x="306" y="178" type="curve" smooth="yes"/>
      <point x="278" y="178"/>
      <point x="273" y="188"/>
      <point x="273" y="220" type="curve" smooth="yes"/>
      <point x="273" y="324" type="line" name="hr00"/>
      <point x="354" y="324" type="line"/>
      <point x="354" y="505" type="line"/>
      <point x="273" y="505" type="line"/>
      <point x="273" y="605" type="line"/>
      <point x="49" y="605" type="line"/>
      <point x="49" y="505" type="line"/>
      <point x="10" y="505" type="line"/>
      <point x="10" y="324" type="line"/>
      <point x="49" y="324" type="line"/>
      <point x="49" y="168" type="line" smooth="yes"/>
      <point x="49" y="25"/>
      <point x="102" y="-13"/>
    </contour>
  </outline>
</glyph>
<glyph name="v" format="2">
  <advance width="547"/>
  <unicode hex="0076"/>
  <outline>
    <contour>
      <point x="86" y="0" type="line"/>
      <point x="461" y="0" type="line"/>
      <point x="546" y="505" type="line"/>
      <point x="322" y="505" type="line"/>
      <point x="288" y="187" type="line"/>
      <point x="275" y="187" type="line"/>
      <point x="239" y="505" type="line"/>
      <point x="1" y="505" type="line"/>
    </contour>
  </outline>
</glyph>
<glyph name="w" format="2">
  <advance width="792"/>
  <unicode hex="0077"/>
  <outline>
    <contour>
      <point x="70" y="0" type="line"/>
      <point x="375" y="0" type="line"/>
      <point x="394" y="218" type="line"/>
      <point x="411" y="0" type="line"/>
      <point x="730" y="0" type="line"/>
      <point x="781" y="505" type="line"/>
      <point x="560" y="505" type="line"/>
      <point x="549" y="187" type="line"/>
      <point x="537" y="187" type="line"/>
      <point x="505" y="492" type="line"/>
      <point x="302" y="492" type="line"/>
      <point x="279" y="187" type="line"/>
      <point x="267" y="187" type="line"/>
      <point x="257" y="505" type="line"/>
      <point x="10" y="505" type="line"/>
    </contour>
  </outline>
</glyph>
<glyph name="x" format="2">
  <advance width="538"/>
  <unicode hex="0078"/>
  <outline>
    <contour>
      <point x="-1" y="0" type="line"/>
      <point x="221" y="0" type="line"/>
      <point x="254" y="127" type="line"/>
      <point x="294" y="0" type="line"/>
      <point x="536" y="0" type="line"/>
      <point x="450" y="254" type="line"/>
      <point x="539" y="505" type="line"/>
      <point x="319" y="505" type="line"/>
      <point x="279" y="363" type="line"/>
      <point x="239" y="505" type="line"/>
      <point x="-1" y="505" type="line"/>
      <point x="98" y="250" type="line"/>
    </contour>
  </outline>
</glyph>
<glyph name="y" format="2">
  <advance width="546"/>
  <unicode hex="0079"/>
  <outline>
    <contour>
      <point x="181" y="-195" type="line"/>
      <point x="427" y="-195" type="line"/>
      <point x="546" y="505" type="line"/>
      <point x="321" y="505" type="line"/>
      <point x="289" y="187" type="line"/>
      <point x="275" y="187" type="line"/>
      <point x="239" y="505" type="line"/>
      <point x="1" y="505" type="line"/>
      <point x="86" y="0" type="line"/>
      <point x="244" y="0" type="line"/>
    </contour>
  </outline>
</glyph>
<glyph name="braceleft" format="2">
  <advance width="361"/>
  <unicode hex="007B"/>
  <outline>
    <contour>
      <point x="344" y="-134" type="curve"/>
      <point x="344" y="46" type="line"/>
      <point x="283" y="51"/>
      <point x="273" y="63"/>
      <point x="273" y="113" type="curve" smooth="yes"/>
      <point x="273" y="130"/>
      <point x="274" y="147"/>
      <point x="275" y="164" type="curve"/>
      <point x="275" y="181"/>
      <point x="276" y="196"/>
      <point x="276" y="211" type="curve" smooth="yes"/>
      <point x="276" y="270"/>
      <point x="263" y="297"/>
      <point x="220" y="321" type="curve"/>
      <point x="263" y="345"/>
      <point x="276" y="367"/>
      <point x="276" y="437" type="curve" smooth="yes"/>
      <point x="276" y="451"/>
      <point x="275" y="463"/>
      <point x="275" y="475" type="curve"/>
      <point x="274" y="488"/>
      <point x="273" y="501"/>
      <point x="273" y="518" type="curve" smooth="yes"/>
      <point x="273" y="568"/>
      <point x="283" y="576"/>
      <point x="344" y="581" type="curve"/>
      <point x="344" y="761" type="line"/>
      <point x="166" y="761"/>
      <point x="46" y="748"/>
      <point x="46" y="586" type="curve" smooth="yes"/>
      <point x="46" y="566"/>
      <point x="50" y="532"/>
      <point x="53" y="500" type="curve" smooth="yes"/>
      <point x="56" y="472"/>
      <point x="59" y="446"/>
      <point x="59" y="433" type="curve" smooth="yes"/>
      <point x="59" y="417"/>
      <point x="44" y="404"/>
      <point x="15" y="399" type="curve"/>
      <point x="15" y="230" type="line"/>
      <point x="44" y="224"/>
      <point x="59" y="210"/>
      <point x="59" y="190" type="curve" smooth="yes"/>
      <point x="59" y="179"/>
      <point x="56" y="155"/>
      <point x="54" y="129" type="curve"/>
      <point x="50" y="96"/>
      <point x="46" y="60"/>
      <point x="46" y="38" type="curve" smooth="yes"/>
      <point x="46" y="-117"/>
      <point x="164" y="-134"/>
    </contour>
  </outline>
</glyph>
<glyph name="braceright" format="2">
  <advance width="359"/>
  <unicode hex="007D"/>
  <outline>
    <contour>
      <point x="15" y="-138" type="line"/>
      <point x="193" y="-138"/>
      <point x="313" y="-125"/>
      <point x="313" y="37" type="curve" smooth="yes"/>
      <point x="313" y="57"/>
      <point x="309" y="91"/>
      <point x="306" y="123" type="curve" smooth="yes"/>
      <point x="303" y="151"/>
      <point x="300" y="177"/>
      <point x="300" y="190" type="curve" smooth="yes"/>
      <point x="300" y="206"/>
      <point x="315" y="219"/>
      <point x="344" y="224" type="curve"/>
      <point x="344" y="393" type="line"/>
      <point x="315" y="399"/>
      <point x="300" y="413"/>
      <point x="300" y="433" type="curve" smooth="yes"/>
      <point x="300" y="444"/>
      <point x="303" y="468"/>
      <point x="305" y="494" type="curve" smooth="yes"/>
      <point x="309" y="527"/>
      <point x="313" y="563"/>
      <point x="313" y="585" type="curve" smooth="yes"/>
      <point x="313" y="740"/>
      <point x="195" y="757"/>
      <point x="15" y="757" type="curve"/>
      <point x="15" y="577" type="line"/>
      <point x="76" y="572"/>
      <point x="86" y="560"/>
      <point x="86" y="510" type="curve" smooth="yes"/>
      <point x="86" y="493"/>
      <point x="85" y="476"/>
      <point x="84" y="459" type="curve"/>
      <point x="84" y="442"/>
      <point x="83" y="427"/>
      <point x="83" y="412" type="curve" smooth="yes"/>
      <point x="83" y="353"/>
      <point x="96" y="326"/>
      <point x="139" y="302" type="curve"/>
      <point x="96" y="278"/>
      <point x="83" y="256"/>
      <point x="83" y="186" type="curve" smooth="yes"/>
      <point x="83" y="172"/>
      <point x="84" y="160"/>
      <point x="84" y="148" type="curve"/>
      <point x="85" y="135"/>
      <point x="86" y="122"/>
      <point x="86" y="105" type="curve" smooth="yes"/>
      <point x="86" y="55"/>
      <point x="76" y="47"/>
      <point x="15" y="42" type="curve"/>
    </contour>
  </outline>
</glyph>
<glyph name="asciitilde" format="2">
  <advance width="550"/>
  <unicode hex="007E"/>
  <outline>
    <contour>
      <point x="371" y="136" type="curve" smooth="yes"/>
      <point x="421" y="136"/>
      <point x="466" y="166"/>
      <point x="487" y="189" type="curve"/>
      <point x="479" y="360" type="line"/>
      <point x="452" y="343"/>
      <point x="405" y="321"/>
      <point x="377" y="321" type="curve" smooth="yes"/>
      <point x="329" y="321"/>
      <point x="237" y="365"/>
      <point x="188" y="365" type="curve" smooth="yes"/>
      <point x="135" y="365"/>
      <point x="84" y="335"/>
      <point x="61" y="312" type="curve"/>
      <point x="71" y="140" type="line"/>
      <point x="97" y="157"/>
      <point x="145" y="180"/>
      <point x="180" y="180" type="curve" smooth="yes"/>
      <point x="221" y="180"/>
      <point x="322" y="136"/>
    </contour>
  </outline>
</glyph>
<glyph name="exclamdown" format="2">
  <advance width="290"/>
  <unicode hex="00A1"/>
  <outline>
    <contour>
      <point x="252" y="261" type="line"/>
      <point x="38" y="261" type="line"/>
      <point x="24" y="-165" type="line"/>
      <point x="266" y="-165" type="line"/>
    </contour>
    <contour>
      <point x="259" y="505" type="line"/>
      <point x="31" y="505" type="line"/>
      <point x="31" y="307" type="line"/>
      <point x="259" y="307" type="line"/>
    </contour>
  </outline>
</glyph>
<glyph name="sterling" format="2">
  <advance width="550"/>
  <unicode hex="00A3"/>
  <outline>
    <contour>
      <point x="33" y="0" type="line"/>
      <point x="404" y="0" type="line"/>
      <point x="525" y="16" type="line"/>
      <point x="507" y="198" type="line"/>
      <point x="389" y="183" type="line"/>
      <point x="296" y="183" type="line"/>
      <point x="296" y="326" type="line"/>
      <point x="433" y="326" type="line"/>
      <point x="433" y="386" type="line"/>
      <point x="296" y="386" type="line"/>
      <point x="296" y="414" type="line" smooth="yes"/>
      <point x="296" y="467"/>
      <point x="311" y="487"/>
      <point x="391" y="487" type="curve" smooth="yes"/>
      <point x="412" y="487"/>
      <point x="460" y="485"/>
      <point x="491" y="483" type="curve"/>
      <point x="497" y="649" type="line"/>
      <point x="455" y="658"/>
      <point x="378" y="670"/>
      <point x="321" y="670" type="curve" smooth="yes"/>
      <point x="158" y="670"/>
      <point x="95" y="627"/>
      <point x="95" y="427" type="curve" smooth="yes"/>
      <point x="95" y="386" type="line"/>
      <point x="33" y="386" type="line"/>
      <point x="33" y="326" type="line"/>
      <point x="95" y="326" type="line"/>
      <point x="95" y="183" type="line"/>
      <point x="33" y="183" type="line"/>
    </contour>
  </outline>
</glyph>
<glyph name="yen" format="2">
  <advance width="581"/>
  <unicode hex="00A5"/>
  <outline>
    <contour>
      <point x="174" y="0" type="line"/>
      <point x="400" y="0" type="line"/>
      <point x="400" y="148" type="line"/>
      <point x="531" y="148" type="line"/>
      <point x="531" y="207" type="line"/>
      <point x="400" y="207" type="line"/>
      <point x="400" y="237" type="line"/>
      <point x="425" y="300" type="line"/>
      <point x="531" y="300" type="line"/>
      <point x="531" y="359" type="line"/>
      <point x="448" y="359" type="line"/>
      <point x="566" y="657" type="line"/>
      <point x="330" y="657" type="line"/>
      <point x="289" y="450" type="line"/>
      <point x="252" y="657" type="line"/>
      <point x="16" y="657" type="line"/>
      <point x="128" y="359" type="line"/>
      <point x="51" y="359" type="line"/>
      <point x="51" y="300" type="line"/>
      <point x="150" y="300" type="line"/>
      <point x="174" y="237" type="line"/>
      <point x="174" y="207" type="line"/>
      <point x="51" y="207" type="line"/>
      <point x="51" y="148" type="line"/>
      <point x="174" y="148" type="line"/>
    </contour>
  </outline>
</glyph>
<glyph name="brokenbar" format="2">
  <advance width="284"/>
  <unicode hex="00A6"/>
  <outline>
    <contour>
      <point x="33" y="308" type="line"/>
      <point x="251" y="308" type="line"/>
      <point x="251" y="703" type="line"/>
      <point x="33" y="703" type="line"/>
    </contour>
    <contour>
      <point x="33" y="-220" type="line"/>
      <point x="251" y="-220" type="line"/>
      <point x="251" y="170" type="line"/>
      <point x="33" y="170" type="line"/>
    </contour>
  </outline>
</glyph>
<glyph name="section" format="2">
  <advance width="595"/>
  <unicode hex="00A7"/>
  <outline>
    <contour>
      <point x="316" y="-195" type="curve" smooth="yes"/>
      <point x="438" y="-195"/>
      <point x="563" y="-158"/>
      <point x="563" y="11" type="curve" smooth="yes"/>
      <point x="563" y="74"/>
      <point x="553" y="93"/>
      <point x="528" y="121" type="curve"/>
      <point x="554" y="146"/>
      <point x="573" y="189"/>
      <point x="573" y="256" type="curve" smooth="yes"/>
      <point x="573" y="359"/>
      <point x="517" y="388"/>
      <point x="358" y="420" type="curve" smooth="yes"/>
      <point x="267" y="438"/>
      <point x="256" y="445"/>
      <point x="256" y="464" type="curve" smooth="yes"/>
      <point x="256" y="482"/>
      <point x="268" y="489"/>
      <point x="328" y="489" type="curve" smooth="yes"/>
      <point x="363" y="489"/>
      <point x="473" y="478"/>
      <point x="546" y="469" type="curve"/>
      <point x="552" y="629" type="line" name="hr00"/>
      <point x="482" y="647"/>
      <point x="361" y="670"/>
      <point x="281" y="670" type="curve" smooth="yes"/>
      <point x="139" y="670"/>
      <point x="32" y="626"/>
      <point x="32" y="449" type="curve" smooth="yes"/>
      <point x="32" y="409"/>
      <point x="32" y="379"/>
      <point x="65" y="340" type="curve"/>
      <point x="40" y="310"/>
      <point x="22" y="275"/>
      <point x="22" y="225" type="curve" smooth="yes"/>
      <point x="22" y="119"/>
      <point x="67" y="86"/>
      <point x="218" y="56" type="curve" smooth="yes"/>
      <point x="320" y="36"/>
      <point x="340" y="30"/>
      <point x="340" y="13" type="curve" smooth="yes"/>
      <point x="340" y="-11"/>
      <point x="314" y="-15"/>
      <point x="286" y="-15" type="curve" smooth="yes"/>
      <point x="233" y="-15"/>
      <point x="61" y="13"/>
      <point x="54" y="16" type="curve"/>
      <point x="37" y="-144" type="line"/>
      <point x="99" y="-166"/>
      <point x="217" y="-195"/>
    </contour>
    <contour>
      <point x="353" y="192" type="curve"/>
      <point x="347" y="195"/>
      <point x="302" y="209"/>
      <point x="287" y="213" type="curve"/>
      <point x="249" y="225"/>
      <point x="242" y="228"/>
      <point x="242" y="243" type="curve" smooth="yes"/>
      <point x="242" y="256"/>
      <point x="247" y="270"/>
      <point x="253" y="280" type="curve"/>
      <point x="265" y="275"/>
      <point x="283" y="271"/>
      <point x="301" y="267" type="curve" smooth="yes"/>
      <point x="337" y="260"/>
      <point x="362" y="252"/>
      <point x="362" y="232" type="curve" smooth="yes"/>
      <point x="362" y="218"/>
      <point x="360" y="207"/>
    </contour>
  </outline>
</glyph>
<glyph name="dieresis" format="2">
  <advance width="418"/>
  <unicode hex="00A8"/>
  <outline>
    <contour>
      <point x="234" y="559" type="line"/>
      <point x="398" y="559" type="line"/>
      <point x="398" y="713" type="line"/>
      <point x="234" y="713" type="line"/>
    </contour>
    <contour>
      <point x="24" y="559" type="line"/>
      <point x="188" y="559" type="line"/>
      <point x="188" y="713" type="line"/>
      <point x="24" y="713" type="line"/>
    </contour>
  </outline>
</glyph>
<glyph name="logicalnot" format="2">
  <advance width="550"/>
  <unicode hex="00AC"/>
  <outline>
    <contour>
      <point x="386" y="231" type="line"/>
      <point x="537" y="231" type="line"/>
      <point x="537" y="543" type="line"/>
      <point x="1" y="543" type="line"/>
      <point x="1" y="392" type="line"/>
      <point x="386" y="392" type="line"/>
    </contour>
  </outline>
</glyph>
<glyph name="registered" format="2">
  <advance width="643"/>
  <unicode hex="00AE"/>
  <outline>
    <contour>
      <point x="321" y="150" type="curve" smooth="yes"/>
      <point x="490" y="150"/>
      <point x="597" y="273"/>
      <point x="597" y="434" type="curve" smooth="yes"/>
      <point x="597" y="588"/>
      <point x="490" y="718"/>
      <point x="321" y="718" type="curve" smooth="yes"/>
      <point x="162" y="718"/>
      <point x="46" y="598"/>
      <point x="46" y="434" type="curve" smooth="yes"/>
      <point x="46" y="274"/>
      <point x="163" y="150"/>
    </contour>
    <contour>
      <point x="321" y="210" type="curve" smooth="yes"/>
      <point x="202" y="210"/>
      <point x="108" y="312"/>
      <point x="108" y="434" type="curve" smooth="yes"/>
      <point x="108" y="556"/>
      <point x="200" y="658"/>
      <point x="321" y="658" type="curve" smooth="yes"/>
      <point x="443" y="658"/>
      <point x="535" y="556"/>
      <point x="535" y="434" type="curve" smooth="yes"/>
      <point x="535" y="311"/>
      <point x="445" y="210"/>
    </contour>
    <contour>
      <point x="201" y="276" type="line"/>
      <point x="297" y="276" type="line"/>
      <point x="297" y="369" type="line"/>
      <point x="326" y="369" type="line"/>
      <point x="354" y="276" type="line"/>
      <point x="454" y="276" type="line"/>
      <point x="413" y="386" type="line"/>
      <point x="442" y="410"/>
      <point x="451" y="434"/>
      <point x="451" y="486" type="curve" smooth="yes"/>
      <point x="451" y="562"/>
      <point x="402" y="591"/>
      <point x="337" y="591" type="curve" smooth="yes"/>
      <point x="201" y="591" type="line"/>
    </contour>
    <contour>
      <point x="296" y="440" type="line"/>
      <point x="296" y="519" type="line"/>
      <point x="323" y="519" type="line" smooth="yes"/>
      <point x="347" y="519"/>
      <point x="358" y="503"/>
      <point x="358" y="479" type="curve" smooth="yes"/>
      <point x="358" y="456"/>
      <point x="346" y="440"/>
      <point x="324" y="440" type="curve" smooth="yes"/>
    </contour>
  </outline>
</glyph>
<glyph name="macron" format="2">
  <advance width="443"/>
  <unicode hex="00AF"/>
  <outline>
    <contour>
      <point x="60" y="563" type="line"/>
      <point x="387" y="563" type="line"/>
      <point x="387" y="707" type="line"/>
      <point x="60" y="707" type="line"/>
    </contour>
  </outline>
</glyph>
<glyph name="plusminus" format="2">
  <advance width="550"/>
  <unicode hex="00B1"/>
  <outline>
    <contour>
      <point x="185" y="180" type="line"/>
      <point x="365" y="180" type="line"/>
      <point x="365" y="251" type="line"/>
      <point x="506" y="251" type="line"/>
      <point x="506" y="421" type="line"/>
      <point x="365" y="421" type="line"/>
      <point x="365" y="505" type="line"/>
      <point x="185" y="505" type="line"/>
      <point x="185" y="421" type="line"/>
      <point x="44" y="421" type="line"/>
      <point x="44" y="251" type="line"/>
      <point x="185" y="251" type="line"/>
    </contour>
    <contour>
      <point x="44" y="0" type="line"/>
      <point x="506" y="0" type="line"/>
      <point x="506" y="170" type="line"/>
      <point x="44" y="170" type="line"/>
    </contour>
  </outline>
</glyph>
<glyph name="twosuperior" format="2">
  <advance width="350"/>
  <unicode hex="00B2"/>
  <outline>
    <contour>
      <point x="43" y="273" type="line"/>
      <point x="301" y="273" type="line" name="hr00"/>
      <point x="301" y="390" type="line"/>
      <point x="197" y="390" type="line"/>
      <point x="213" y="405" type="line" smooth="yes"/>
      <point x="281" y="470"/>
      <point x="308" y="488"/>
      <point x="308" y="555" type="curve" smooth="yes"/>
      <point x="308" y="633"/>
      <point x="268" y="674"/>
      <point x="167" y="674" type="curve" smooth="yes"/>
      <point x="126" y="674"/>
      <point x="73" y="665"/>
      <point x="45" y="658" type="curve"/>
      <point x="51" y="555" type="line"/>
      <point x="71" y="557"/>
      <point x="108" y="560"/>
      <point x="136" y="560" type="curve" smooth="yes"/>
      <point x="172" y="560"/>
      <point x="182" y="552"/>
      <point x="182" y="537" type="curve" smooth="yes"/>
      <point x="182" y="513"/>
      <point x="165" y="497"/>
      <point x="131" y="466" type="curve" smooth="yes"/>
      <point x="43" y="385" type="line"/>
    </contour>
  </outline>
</glyph>
<glyph name="threesuperior" format="2">
  <advance width="350"/>
  <unicode hex="00B3"/>
  <outline>
    <contour>
      <point x="172" y="273" type="curve" smooth="yes"/>
      <point x="270" y="273"/>
      <point x="319" y="308"/>
      <point x="319" y="397" type="curve" smooth="yes"/>
      <point x="319" y="445"/>
      <point x="304" y="461"/>
      <point x="278" y="481" type="curve"/>
      <point x="304" y="499"/>
      <point x="314" y="519"/>
      <point x="314" y="555" type="curve" smooth="yes"/>
      <point x="314" y="632"/>
      <point x="267" y="671"/>
      <point x="173" y="671" type="curve" smooth="yes"/>
      <point x="126" y="671"/>
      <point x="68" y="661"/>
      <point x="36" y="654" type="curve"/>
      <point x="39" y="555" type="line"/>
      <point x="63" y="557"/>
      <point x="106" y="560"/>
      <point x="131" y="560" type="curve" smooth="yes"/>
      <point x="159" y="560"/>
      <point x="174" y="556"/>
      <point x="174" y="542" type="curve" smooth="yes"/>
      <point x="174" y="530"/>
      <point x="165" y="524"/>
      <point x="143" y="524" type="curve" smooth="yes"/>
      <point x="66" y="524" type="line"/>
      <point x="66" y="422" type="line"/>
      <point x="148" y="422" type="line"/>
      <point x="172" y="420"/>
      <point x="179" y="415"/>
      <point x="179" y="403" type="curve" smooth="yes"/>
      <point x="179" y="386"/>
      <point x="165" y="384"/>
      <point x="141" y="384" type="curve" smooth="yes"/>
      <point x="112" y="384"/>
      <point x="65" y="387"/>
      <point x="36" y="390" type="curve"/>
      <point x="33" y="289" type="line"/>
      <point x="67" y="282"/>
      <point x="123" y="273"/>
    </contour>
  </outline>
</glyph>
<glyph name="acute" format="2">
  <advance width="638"/>
  <unicode hex="00B4"/>
  <outline>
    <contour>
      <point x="191" y="557" type="line"/>
      <point x="459" y="626" type="line"/>
      <point x="387" y="796" type="line"/>
      <point x="153" y="641" type="line"/>
    </contour>
  </outline>
</glyph>
<glyph name="paragraph" format="2">
  <advance width="578"/>
  <unicode hex="00B6"/>
  <outline>
    <contour>
      <point x="240" y="0" type="line"/>
      <point x="345" y="0" type="line"/>
      <point x="345" y="511" type="line"/>
      <point x="403" y="511" type="line"/>
      <point x="403" y="0" type="line"/>
      <point x="506" y="0" type="line"/>
      <point x="506" y="511" type="line"/>
      <point x="557" y="511" type="line"/>
      <point x="557" y="700" type="line"/>
      <point x="259" y="700" type="line" smooth="yes"/>
      <point x="126.0" y="700.0"/>
      <point x="16" y="597"/>
      <point x="16" y="447" type="curve" smooth="yes"/>
      <point x="16" y="304"/>
      <point x="141.0" y="210.0"/>
      <point x="235" y="210" type="curve" smooth="yes"/>
      <point x="240" y="210" type="line"/>
    </contour>
  </outline>
</glyph>
<glyph name="ordmasculine" format="2">
  <advance width="353"/>
  <unicode hex="00BA"/>
  <outline>
    <contour>
      <point x="177" y="379" type="curve" smooth="yes"/>
      <point x="291" y="379"/>
      <point x="338" y="418"/>
      <point x="338" y="523" type="curve" smooth="yes"/>
      <point x="338" y="626"/>
      <point x="291" y="666"/>
      <point x="177" y="666" type="curve" smooth="yes"/>
      <point x="63" y="666"/>
      <point x="15" y="626"/>
      <point x="15" y="523" type="curve" smooth="yes"/>
      <point x="15" y="418"/>
      <point x="63" y="379"/>
    </contour>
    <contour>
      <point x="177" y="479" type="curve" smooth="yes"/>
      <point x="156" y="479"/>
      <point x="146" y="490"/>
      <point x="146" y="523" type="curve" smooth="yes"/>
      <point x="146" y="555"/>
      <point x="155" y="566"/>
      <point x="177" y="566" type="curve" smooth="yes"/>
      <point x="198" y="566"/>
      <point x="207" y="556"/>
      <point x="207" y="523" type="curve" smooth="yes"/>
      <point x="207" y="490"/>
      <point x="198" y="479"/>
    </contour>
  </outline>
</glyph>
<glyph name="questiondown" format="2">
  <advance width="471"/>
  <unicode hex="00BF"/>
  <outline>
    <contour>
      <point x="359" y="288" type="curve"/>
      <point x="184" y="288" type="line"/>
      <point x="183" y="269" type="line" smooth="yes"/>
      <point x="182" y="252"/>
      <point x="165" y="231"/>
      <point x="104" y="188" type="curve" smooth="yes"/>
      <point x="40" y="143"/>
      <point x="16" y="113"/>
      <point x="16" y="9" type="curve" smooth="yes"/>
      <point x="16" y="-143"/>
      <point x="83" y="-198"/>
      <point x="240" y="-198" type="curve" smooth="yes"/>
      <point x="314" y="-198"/>
      <point x="406" y="-177"/>
      <point x="455" y="-161" type="curve"/>
      <point x="448" y="-4" type="line"/>
      <point x="415" y="-10"/>
      <point x="354" y="-18"/>
      <point x="305" y="-18" type="curve" smooth="yes"/>
      <point x="258" y="-18"/>
      <point x="242" y="-7"/>
      <point x="242" y="17" type="curve" smooth="yes"/>
      <point x="242" y="45"/>
      <point x="249" y="52"/>
      <point x="295" y="86" type="curve" smooth="yes"/>
      <point x="367" y="139"/>
      <point x="382" y="161"/>
      <point x="382" y="209" type="curve" smooth="yes"/>
      <point x="382" y="244"/>
      <point x="369" y="275"/>
    </contour>
    <contour>
      <point x="384" y="505" type="line"/>
      <point x="156" y="505" type="line"/>
      <point x="156" y="325" type="line"/>
      <point x="384" y="325" type="line"/>
    </contour>
  </outline>
</glyph>
<glyph name="multiply" format="2">
  <advance width="550"/>
  <unicode hex="00D7"/>
  <outline>
    <contour>
      <point x="402" y="3" type="line"/>
      <point x="525" y="126" type="line"/>
      <point x="398" y="253" type="line"/>
      <point x="525" y="380" type="line"/>
      <point x="401" y="503" type="line"/>
      <point x="274" y="376" type="line"/>
      <point x="148" y="503" type="line"/>
      <point x="25" y="381" type="line"/>
      <point x="151" y="253" type="line"/>
      <point x="25" y="125" type="line"/>
      <point x="148" y="3" type="line"/>
      <point x="274" y="129" type="line"/>
    </contour>
  </outline>
</glyph>
<glyph name="Oslash" format="2">
  <advance width="670"/>
  <unicode hex="00D8"/>
  <outline>
    <contour>
      <point x="108" y="-98" type="line"/>
      <point x="162" y="-120" type="line"/>
      <point x="581" y="772" type="line"/>
      <point x="528" y="793" type="line"/>
    </contour>
    <component base="O"/>
  </outline>
</glyph>
<glyph name="ae" format="2">
  <advance width="807"/>
  <unicode hex="00E6"/>
  <outline>
    <contour>
      <point x="189" y="-13" type="curve" smooth="yes"/>
      <point x="252" y="-13"/>
      <point x="335" y="6"/>
      <point x="383" y="21" type="curve"/>
      <point x="414" y="-2"/>
      <point x="460" y="-13"/>
      <point x="527" y="-13" type="curve" smooth="yes"/>
      <point x="617" y="-13"/>
      <point x="726" y="4"/>
      <point x="783" y="16" type="curve"/>
      <point x="778" y="161" type="line"/>
      <point x="717" y="157"/>
      <point x="610" y="152"/>
      <point x="543" y="152" type="curve" smooth="yes"/>
      <point x="509" y="152"/>
      <point x="495" y="162"/>
      <point x="494" y="187" type="curve"/>
      <point x="783" y="187" type="line"/>
      <point x="793" y="286" type="line"/>
      <point x="793" y="445"/>
      <point x="705" y="518"/>
      <point x="532" y="518" type="curve" smooth="yes"/>
      <point x="479" y="518"/>
      <point x="439" y="509"/>
      <point x="409" y="492" type="curve"/>
      <point x="378" y="512"/>
      <point x="332" y="518"/>
      <point x="267" y="518" type="curve" smooth="yes"/>
      <point x="187" y="518"/>
      <point x="86" y="498"/>
      <point x="32" y="483" type="curve"/>
      <point x="37" y="331" type="line"/>
      <point x="88" y="337"/>
      <point x="180" y="344"/>
      <point x="245" y="344" type="curve" smooth="yes"/>
      <point x="271" y="344"/>
      <point x="288" y="339"/>
      <point x="288" y="325" type="curve" smooth="yes"/>
      <point x="288" y="316" type="line"/>
      <point x="220" y="313" type="line" smooth="yes"/>
      <point x="81" y="306"/>
      <point x="10" y="292"/>
      <point x="10" y="157" type="curve" smooth="yes"/>
      <point x="10" y="38"/>
      <point x="80" y="-13"/>
    </contour>
    <contour>
      <point x="250" y="141" type="curve" smooth="yes"/>
      <point x="234" y="141"/>
      <point x="228" y="149"/>
      <point x="228" y="163" type="curve" smooth="yes"/>
      <point x="228" y="179"/>
      <point x="238" y="190"/>
      <point x="254" y="191" type="curve" smooth="yes"/>
      <point x="288" y="193" type="line"/>
      <point x="288" y="181"/>
      <point x="288" y="169"/>
      <point x="288" y="156" type="curve"/>
      <point x="281" y="150"/>
      <point x="265" y="141"/>
    </contour>
    <contour>
      <point x="493" y="309" type="line"/>
      <point x="494" y="346"/>
      <point x="502" y="362"/>
      <point x="532" y="362" type="curve" smooth="yes"/>
      <point x="559" y="362"/>
      <point x="571" y="349"/>
      <point x="571" y="309" type="curve"/>
    </contour>
  </outline>
</glyph>
<glyph name="eth" format="2">
  <advance width="529"/>
  <unicode hex="00F0"/>
  <outline>
    <contour>
      <point x="246" y="-9" type="curve" smooth="yes"/>
      <point x="434" y="-9"/>
      <point x="512" y="112"/>
      <point x="512" y="345" type="curve" smooth="yes"/>
      <point x="512" y="615"/>
      <point x="352" y="697"/>
      <point x="65" y="705" type="curve"/>
      <point x="46" y="595" type="line"/>
      <point x="284" y="559"/>
      <point x="329" y="518"/>
      <point x="343" y="423" type="curve"/>
      <point x="319" y="442"/>
      <point x="260" y="441"/>
      <point x="228" y="441" type="curve" smooth="yes"/>
      <point x="73" y="441"/>
      <point x="6" y="351"/>
      <point x="6" y="217" type="curve" smooth="yes"/>
      <point x="6" y="60"/>
      <point x="88" y="-9"/>
    </contour>
    <contour>
      <point x="246" y="133" type="curve" smooth="yes"/>
      <point x="190" y="133"/>
      <point x="176" y="168"/>
      <point x="176" y="217" type="curve" smooth="yes"/>
      <point x="176" y="255"/>
      <point x="191" y="302"/>
      <point x="237" y="302" type="curve" smooth="yes"/>
      <point x="282" y="302"/>
      <point x="297" y="302"/>
      <point x="342" y="286" type="curve"/>
      <point x="342" y="178"/>
      <point x="304" y="133"/>
    </contour>
    <contour>
      <point x="142" y="444" type="line"/>
      <point x="446" y="646" type="line"/>
      <point x="384" y="735" type="line"/>
      <point x="79" y="533" type="line"/>
    </contour>
  </outline>
</glyph>
<glyph name="divide" format="2">
  <advance width="550"/>
  <unicode hex="00F7"/>
  <outline>
    <contour>
      <point x="43" y="170" type="line"/>
      <point x="507" y="170" type="line"/>
      <point x="507" y="340" type="line"/>
      <point x="43" y="340" type="line"/>
    </contour>
    <contour>
      <point x="175" y="10" type="line"/>
      <point x="375" y="10" type="line"/>
      <point x="375" y="150" type="line"/>
      <point x="175" y="150" type="line"/>
    </contour>
    <contour>
      <point x="175" y="360" type="line"/>
      <point x="375" y="360" type="line"/>
      <point x="375" y="500" type="line"/>
      <point x="175" y="500" type="line"/>
    </contour>
  </outline>
</glyph>
<glyph name="thorn" format="2">
  <advance width="569"/>
  <unicode hex="00FE"/>
  <outline>
    <contour>
      <point x="27" y="-195" type="line"/>
      <point x="251" y="-195" type="line"/>
      <point x="251" y="0" type="line"/>
      <point x="273" y="-6"/>
      <point x="310" y="-13"/>
      <point x="333" y="-13" type="curve" smooth="yes"/>
      <point x="496" y="-13"/>
      <point x="553" y="73"/>
      <point x="553" y="248" type="curve" smooth="yes"/>
      <point x="553" y="419"/>
      <point x="501" y="518"/>
      <point x="355" y="518" type="curve" smooth="yes"/>
      <point x="328" y="518"/>
      <point x="280" y="509"/>
      <point x="251" y="502" type="curve"/>
      <point x="251" y="703" type="line"/>
      <point x="27" y="703" type="line"/>
    </contour>
    <contour>
      <point x="283" y="168" type="curve" smooth="yes"/>
      <point x="269" y="168"/>
      <point x="257" y="170"/>
      <point x="251" y="171" type="curve"/>
      <point x="251" y="330" type="line"/>
      <point x="261" y="333"/>
      <point x="276" y="337"/>
      <point x="283" y="337" type="curve" smooth="yes"/>
      <point x="313" y="337"/>
      <point x="327" y="322"/>
      <point x="327" y="256" type="curve" smooth="yes"/>
      <point x="327" y="210"/>
      <point x="320" y="168"/>
    </contour>
  </outline>
</glyph>
<glyph name="dcaron" format="2">
  <advance width="748"/>
  <unicode hex="010F"/>
  <outline>
    <contour>
      <point x="581" y="454" type="line"/>
      <point x="743" y="454" type="line"/>
      <point x="805" y="669" type="line"/>
      <point x="601" y="669" type="line"/>
    </contour>
    <component base="d"/>
  </outline>
</glyph>
<glyph name="Dcroat" format="2">
  <advance width="661"/>
  <unicode hex="0110"/>
  <outline>
    <contour>
      <point x="-1" y="270" type="line"/>
      <point x="324" y="270" type="line"/>
      <point x="324" y="407" type="line"/>
      <point x="-1" y="407" type="line"/>
    </contour>
    <component base="D" xOffset="7"/>
  </outline>
</glyph>
<glyph name="dcroat" format="2">
  <advance width="570"/>
  <unicode hex="0111"/>
  <outline>
    <contour>
      <point x="257" y="545" type="line"/>
      <point x="582" y="545" type="line"/>
      <point x="582" y="652" type="line"/>
      <point x="257" y="652" type="line"/>
    </contour>
    <component base="d"/>
  </outline>
</glyph>
<glyph name="Gdotaccent" format="2">
  <advance width="619"/>
  <unicode hex="0120"/>
  <outline>
    <contour>
      <point x="212" y="728" type="line"/>
      <point x="398" y="728" type="line"/>
      <point x="398" y="881" type="line"/>
      <point x="212" y="881" type="line"/>
    </contour>
    <component base="G"/>
  </outline>
</glyph>
<glyph name="gcommaaccent" format="2">
  <advance width="562"/>
  <unicode hex="0123"/>
  <outline>
    <contour>
      <point x="166" y="563" type="line"/>
      <point x="370" y="563" type="line"/>
      <point x="390" y="778" type="line"/>
      <point x="228" y="778" type="line"/>
    </contour>
    <component base="g"/>
  </outline>
</glyph>
<glyph name="Hbar" format="2">
  <advance width="659"/>
  <unicode hex="0126"/>
  <outline>
    <contour>
      <point x="4" y="473" type="line"/>
      <point x="655" y="473" type="line"/>
      <point x="655" y="605" type="line"/>
      <point x="4" y="605" type="line"/>
    </contour>
    <component base="H" xOffset="2"/>
  </outline>
</glyph>
<glyph name="Idotaccent" format="2">
  <advance width="292"/>
  <unicode hex="0130"/>
  <outline>
    <contour>
      <point x="53" y="706" type="line"/>
      <point x="239" y="706" type="line"/>
      <point x="239" y="859" type="line"/>
      <point x="53" y="859" type="line"/>
    </contour>
    <component base="I"/>
  </outline>
</glyph>
<glyph name="Kcommaaccent" format="2">
  <advance width="609"/>
  <unicode hex="0136"/>
  <outline>
    <contour>
      <point x="174" y="-260" type="line"/>
      <point x="336" y="-260" type="line"/>
      <point x="398" y="-45" type="line"/>
      <point x="194" y="-45" type="line"/>
    </contour>
    <component base="K"/>
  </outline>
</glyph>
<glyph name="kcommaaccent" format="2">
  <advance width="553"/>
  <unicode hex="0137"/>
  <outline>
    <contour>
      <point x="178" y="-260" type="line"/>
      <point x="340" y="-260" type="line"/>
      <point x="402" y="-45" type="line"/>
      <point x="198" y="-45" type="line"/>
    </contour>
    <component base="k"/>
  </outline>
</glyph>
<glyph name="Lcommaaccent" format="2">
  <advance width="489"/>
  <unicode hex="013B"/>
  <outline>
    <contour>
      <point x="135" y="-260" type="line"/>
      <point x="297" y="-260" type="line"/>
      <point x="359" y="-45" type="line"/>
      <point x="155" y="-45" type="line"/>
    </contour>
    <component base="L"/>
  </outline>
</glyph>
<glyph name="Lcaron" format="2">
  <advance width="512"/>
  <unicode hex="013D"/>
  <outline>
    <contour>
      <point x="318" y="488" type="line"/>
      <point x="480" y="488" type="line"/>
      <point x="542" y="703" type="line"/>
      <point x="338" y="703" type="line"/>
    </contour>
    <component base="L"/>
  </outline>
</glyph>
<glyph name="lcaron" format="2">
  <advance width="459"/>
  <unicode hex="013E"/>
  <outline>
    <contour>
      <point x="292" y="454" type="line"/>
      <point x="454" y="454" type="line"/>
      <point x="516" y="669" type="line"/>
      <point x="312" y="669" type="line"/>
    </contour>
    <component base="l"/>
  </outline>
</glyph>
<glyph name="Lslash" format="2">
  <advance width="493"/>
  <unicode hex="0141"/>
  <outline>
    <contour>
      <point x="3" y="151" type="line"/>
      <point x="340" y="319" type="line"/>
      <point x="340" y="506" type="line"/>
      <point x="3" y="338" type="line"/>
    </contour>
    <component base="L" xOffset="4"/>
  </outline>
</glyph>
<glyph name="Ncommaaccent" format="2">
  <advance width="688"/>
  <unicode hex="0145"/>
  <outline>
    <contour>
      <point x="242" y="-260" type="line"/>
      <point x="404" y="-260" type="line"/>
      <point x="466" y="-45" type="line"/>
      <point x="262" y="-45" type="line"/>
    </contour>
    <component base="N"/>
  </outline>
</glyph>
<glyph name="ncommaaccent" format="2">
  <advance width="578"/>
  <unicode hex="0146"/>
  <outline>
    <contour>
      <point x="179" y="-260" type="line"/>
      <point x="341" y="-260" type="line"/>
      <point x="403" y="-45" type="line"/>
      <point x="199" y="-45" type="line"/>
    </contour>
    <component base="n"/>
  </outline>
</glyph>
<glyph name="Eng" format="2">
  <advance width="688"/>
  <unicode hex="014A"/>
  <outline>
    <contour>
      <point x="412" y="-286" type="line"/>
      <point x="613" y="-224"/>
      <point x="658" y="-197"/>
      <point x="658" y="7" type="curve" smooth="yes"/>
      <point x="658" y="14" type="line"/>
      <point x="429" y="14" type="line"/>
      <point x="429" y="0" type="line" smooth="yes"/>
      <point x="429" y="-72"/>
      <point x="421" y="-78"/>
      <point x="340" y="-116" type="curve"/>
    </contour>
    <component base="N"/>
  </outline>
</glyph>
<glyph name="eng" format="2">
  <advance width="578"/>
  <unicode hex="014B"/>
  <outline>
    <contour>
      <point x="314" y="-220" type="line"/>
      <point x="512" y="-158"/>
      <point x="555" y="-128"/>
      <point x="555" y="73" type="curve" smooth="yes"/>
      <point x="555" y="253" type="line" smooth="yes"/>
      <point x="555" y="451"/>
      <point x="504" y="518"/>
      <point x="361" y="518" type="curve" smooth="yes"/>
      <point x="327" y="518"/>
      <point x="278" y="496"/>
      <point x="251" y="479" type="curve"/>
      <point x="251" y="505" type="line"/>
      <point x="28" y="505" type="line"/>
      <point x="28" y="0" type="line"/>
      <point x="252" y="0" type="line"/>
      <point x="252" y="318" type="line"/>
      <point x="262" y="321"/>
      <point x="281" y="325"/>
      <point x="295" y="325" type="curve" smooth="yes"/>
      <point x="319" y="325"/>
      <point x="331" y="299"/>
      <point x="331" y="238" type="curve" smooth="yes"/>
      <point x="331" y="66" type="line" smooth="yes"/>
      <point x="331" y="-6"/>
      <point x="323" y="-12"/>
      <point x="242" y="-50" type="curve"/>
    </contour>
  </outline>
</glyph>
<glyph name="oe" format="2">
  <advance width="860"/>
  <unicode hex="0153"/>
  <outline>
    <contour>
      <point x="282" y="-13" type="curve" smooth="yes"/>
      <point x="354" y="-13"/>
      <point x="402" y="1"/>
      <point x="434" y="31" type="curve"/>
      <point x="461" y="2"/>
      <point x="506" y="-13"/>
      <point x="580" y="-13" type="curve" smooth="yes"/>
      <point x="670" y="-13"/>
      <point x="779" y="4"/>
      <point x="836" y="16" type="curve"/>
      <point x="831" y="161" type="line"/>
      <point x="770" y="157"/>
      <point x="663" y="152"/>
      <point x="596" y="152" type="curve" smooth="yes"/>
      <point x="562" y="152"/>
      <point x="548" y="162"/>
      <point x="547" y="187" type="curve"/>
      <point x="836" y="187" type="line"/>
      <point x="846" y="286" type="line"/>
      <point x="846" y="445"/>
      <point x="758" y="518"/>
      <point x="585" y="518" type="curve" smooth="yes"/>
      <point x="515" y="518"/>
      <point x="470" y="501"/>
      <point x="442" y="470" type="curve"/>
      <point x="411" y="502"/>
      <point x="361" y="518"/>
      <point x="282" y="518" type="curve" smooth="yes"/>
      <point x="109" y="518"/>
      <point x="15" y="445"/>
      <point x="15" y="253" type="curve" smooth="yes"/>
      <point x="15" y="58"/>
      <point x="109" y="-13"/>
    </contour>
    <contour>
      <point x="282" y="168" type="curve" smooth="yes"/>
      <point x="251" y="168"/>
      <point x="241" y="188"/>
      <point x="241" y="253" type="curve" smooth="yes"/>
      <point x="241" y="317"/>
      <point x="251" y="337"/>
      <point x="282" y="337" type="curve" smooth="yes"/>
      <point x="313" y="337"/>
      <point x="323" y="318"/>
      <point x="323" y="253" type="curve" smooth="yes"/>
      <point x="323" y="188"/>
      <point x="313" y="168"/>
    </contour>
    <contour>
      <point x="546" y="309" type="line"/>
      <point x="547" y="346"/>
      <point x="555" y="362"/>
      <point x="585" y="362" type="curve" smooth="yes"/>
      <point x="612" y="362"/>
      <point x="624" y="349"/>
      <point x="624" y="309" type="curve"/>
    </contour>
  </outline>
</glyph>
<glyph name="rcommaaccent" format="2">
  <advance width="368"/>
  <unicode hex="0157"/>
  <outline>
    <contour>
      <point x="28" y="-260" type="line"/>
      <point x="190" y="-260" type="line"/>
      <point x="252" y="-45" type="line"/>
      <point x="48" y="-45" type="line"/>
    </contour>
    <component base="r"/>
  </outline>
</glyph>
<glyph name="tcaron" format="2">
  <advance width="371"/>
  <unicode hex="0165"/>
  <outline>
    <contour>
      <point x="311" y="539" type="line"/>
      <point x="465" y="539" type="line"/>
      <point x="524" y="744" type="line"/>
      <point x="330" y="744" type="line"/>
    </contour>
    <component base="t"/>
  </outline>
</glyph>
<glyph name="tbar" format="2">
  <advance width="370"/>
  <unicode hex="0167"/>
  <outline>
    <contour>
      <point x="222" y="-13" type="curve" smooth="yes"/>
      <point x="256" y="-13"/>
      <point x="317" y="-3"/>
      <point x="354" y="5" type="curve"/>
      <point x="351" y="169" type="line"/>
      <point x="347" y="169"/>
      <point x="309" y="168"/>
      <point x="306" y="168" type="curve" smooth="yes"/>
      <point x="278" y="168"/>
      <point x="273" y="178"/>
      <point x="273" y="210" type="curve" smooth="yes"/>
      <point x="273" y="345" type="line"/>
      <point x="354" y="345" type="line"/>
      <point x="354" y="505" type="line"/>
      <point x="273" y="505" type="line"/>
      <point x="273" y="605" type="line"/>
      <point x="49" y="605" type="line"/>
      <point x="49" y="505" type="line"/>
      <point x="10" y="505" type="line"/>
      <point x="10" y="345" type="line"/>
      <point x="49" y="345" type="line"/>
      <point x="49" y="168" type="line" smooth="yes"/>
      <point x="49" y="25"/>
      <point x="102" y="-13"/>
    </contour>
    <contour>
      <point x="12" y="206" type="line" name="hr00"/>
      <point x="337" y="206" type="line"/>
      <point x="337" y="311" type="line"/>
      <point x="12" y="311" type="line"/>
    </contour>
  </outline>
</glyph>
<glyph name="florin" format="2">
  <advance width="529"/>
  <unicode hex="0192"/>
  <outline>
    <contour>
      <point x="173" y="-195" type="curve" smooth="yes"/>
      <point x="303" y="-195"/>
      <point x="332" y="-149"/>
      <point x="338" y="-16" type="curve" smooth="yes"/>
      <point x="353" y="326" type="line"/>
      <point x="439" y="326" type="line"/>
      <point x="439" y="396" type="line"/>
      <point x="356" y="396" type="line"/>
      <point x="357" y="414" type="line" smooth="yes"/>
      <point x="361" y="508"/>
      <point x="357" y="511"/>
      <point x="422" y="511" type="curve" smooth="yes"/>
      <point x="428" y="511"/>
      <point x="434" y="511"/>
      <point x="439" y="511" type="curve"/>
      <point x="439" y="658" type="line"/>
      <point x="398" y="663"/>
      <point x="334" y="670"/>
      <point x="311" y="670" type="curve" smooth="yes"/>
      <point x="191" y="670"/>
      <point x="151" y="624"/>
      <point x="145" y="491" type="curve" smooth="yes"/>
      <point x="141" y="396" type="line"/>
      <point x="72" y="396" type="line"/>
      <point x="72" y="326" type="line"/>
      <point x="138" y="326" type="line"/>
      <point x="124" y="0" type="line" smooth="yes"/>
      <point x="123" y="-22"/>
      <point x="119" y="-31"/>
      <point x="91" y="-34" type="curve"/>
      <point x="80" y="-36"/>
      <point x="65" y="-36"/>
      <point x="45" y="-36" type="curve"/>
      <point x="45" y="-183" type="line"/>
      <point x="86" y="-188"/>
      <point x="150" y="-195"/>
    </contour>
  </outline>
</glyph>
<glyph name="Scommaaccent" format="2">
  <advance width="578"/>
  <unicode hex="0218"/>
  <outline>
    <contour>
      <point x="180" y="-260" type="line"/>
      <point x="342" y="-260" type="line"/>
      <point x="404" y="-45" type="line"/>
      <point x="200" y="-45" type="line"/>
    </contour>
    <component base="S"/>
  </outline>
</glyph>
<glyph name="scommaaccent" format="2">
  <advance width="489"/>
  <unicode hex="0219"/>
  <outline>
    <contour>
      <point x="133" y="-260" type="line"/>
      <point x="295" y="-260" type="line"/>
      <point x="357" y="-45" type="line"/>
      <point x="153" y="-45" type="line"/>
    </contour>
    <component base="s"/>
  </outline>
</glyph>
<glyph name="Tcommaaccent" format="2">
  <advance width="519"/>
  <unicode hex="021A"/>
  <outline>
    <contour>
      <point x="141" y="-260" type="line"/>
      <point x="303" y="-260" type="line"/>
      <point x="365" y="-45" type="line"/>
      <point x="161" y="-45" type="line"/>
    </contour>
    <component base="T"/>
  </outline>
</glyph>
<glyph name="tcommaaccent" format="2">
  <advance width="371"/>
  <unicode hex="021B"/>
  <outline>
    <contour>
      <point x="70" y="-260" type="line"/>
      <point x="232" y="-260" type="line"/>
      <point x="294" y="-45" type="line"/>
      <point x="90" y="-45" type="line"/>
    </contour>
    <component base="t"/>
  </outline>
</glyph>
<glyph name="circumflex" format="2">
  <advance width="833"/>
  <unicode hex="02C6"/>
  <outline>
    <contour>
      <point x="239" y="557" type="line"/>
      <point x="401" y="557" type="line"/>
      <point x="413" y="629" type="line"/>
      <point x="428" y="557" type="line"/>
      <point x="590" y="557" type="line"/>
      <point x="488" y="723" type="line"/>
      <point x="330" y="723" type="line"/>
    </contour>
  </outline>
</glyph>
<glyph name="caron" format="2">
  <advance width="833"/>
  <unicode hex="02C7"/>
  <outline>
    <contour>
      <point x="326" y="557" type="line"/>
      <point x="484" y="557" type="line"/>
      <point x="586" y="723" type="line"/>
      <point x="424" y="723" type="line"/>
      <point x="411" y="651" type="line"/>
      <point x="397" y="723" type="line"/>
      <point x="235" y="723" type="line"/>
    </contour>
  </outline>
</glyph>
<glyph name="dotaccent" format="2">
  <advance width="346"/>
  <unicode hex="02D9"/>
  <outline>
    <contour>
      <point x="80" y="563" type="line"/>
      <point x="266" y="563" type="line"/>
      <point x="266" y="716" type="line"/>
      <point x="80" y="716" type="line"/>
    </contour>
  </outline>
</glyph>
<glyph name="ring" format="2">
  <advance width="496"/>
  <unicode hex="02DA"/>
  <outline>
    <contour>
      <point x="268" y="543" type="curve" smooth="yes"/>
      <point x="351" y="543"/>
      <point x="402" y="578"/>
      <point x="402" y="642" type="curve" smooth="yes"/>
      <point x="402" y="711"/>
      <point x="346" y="741"/>
      <point x="268" y="741" type="curve" smooth="yes"/>
      <point x="189" y="741"/>
      <point x="134" y="711"/>
      <point x="134" y="642" type="curve" smooth="yes"/>
      <point x="134" y="573"/>
      <point x="189" y="543"/>
    </contour>
    <contour>
      <point x="269" y="620" type="curve" smooth="yes"/>
      <point x="253" y="620"/>
      <point x="238" y="627"/>
      <point x="238" y="642" type="curve" smooth="yes"/>
      <point x="238" y="656"/>
      <point x="253" y="663"/>
      <point x="269" y="663" type="curve" smooth="yes"/>
      <point x="285" y="663"/>
      <point x="299" y="656"/>
      <point x="299" y="642" type="curve" smooth="yes"/>
      <point x="299" y="627"/>
      <point x="285" y="620"/>
    </contour>
  </outline>
</glyph>
<glyph name="ogonek" format="2">
  <advance width="833"/>
  <unicode hex="02DB"/>
  <outline>
    <contour>
      <point x="344" y="-220" type="curve" smooth="yes"/>
      <point x="408" y="-220"/>
      <point x="459" y="-211"/>
      <point x="480" y="-205" type="curve"/>
      <point x="467" y="-101" type="line"/>
      <point x="456" y="-103"/>
      <point x="436" y="-105"/>
      <point x="421" y="-105" type="curve" smooth="yes"/>
      <point x="405" y="-105"/>
      <point x="399" y="-96"/>
      <point x="399" y="-83" type="curve" smooth="yes"/>
      <point x="399" y="-57"/>
      <point x="441" y="-12"/>
      <point x="473" y="16" type="curve"/>
      <point x="310" y="31" type="line"/>
      <point x="258" y="16"/>
      <point x="189" y="-30"/>
      <point x="189" y="-104" type="curve" smooth="yes"/>
      <point x="189" y="-194"/>
      <point x="256" y="-220"/>
    </contour>
  </outline>
</glyph>
<glyph name="hungarumlaut" format="2">
  <advance width="463"/>
  <unicode hex="02DD"/>
  <outline>
    <contour>
      <point x="159" y="558" type="line"/>
      <point x="245" y="756" type="line"/>
      <point x="102" y="809" type="line"/>
      <point x="33" y="603" type="line"/>
    </contour>
    <contour>
      <point x="363" y="558" type="line"/>
      <point x="449" y="756" type="line"/>
      <point x="306" y="809" type="line"/>
      <point x="237" y="603" type="line"/>
    </contour>
  </outline>
</glyph>
<glyph name="commaaccentcomb" format="2">
  <unicode hex="0326"/>
  <anchor x="111" y="0" name="_bottom"/>
  <outline>
    <contour>
      <point x="-4.245" y="-260.34" type="line"/>
      <point x="151.81" y="-260.34" type="line"/>
      <point x="218.45" y="-44.947" type="line"/>
      <point x="14.313" y="-44.947" type="line"/>
    </contour>
  </outline>
</glyph>
<glyph name="semicolon-ar" format="2">
  <advance width="294"/>
  <unicode hex="061B"/>
  <outline>
    <contour>
      <point x="281" y="567" type="line"/>
      <point x="96" y="567" type="line"/>
      <point x="17" y="271" type="line"/>
      <point x="259" y="271" type="line"/>
    </contour>
    <contour>
      <point x="256" y="199" type="line"/>
      <point x="28" y="199" type="line"/>
      <point x="28" y="0" type="line"/>
      <point x="256" y="0" type="line"/>
    </contour>
  </outline>
</glyph>
<glyph name="question-ar" format="2">
  <advance width="473"/>
  <unicode hex="061F"/>
  <outline>
    <contour>
      <point x="360" y="217" type="line"/>
      <point x="370" y="230"/>
      <point x="383" y="261"/>
      <point x="383" y="296" type="curve" smooth="yes"/>
      <point x="383" y="344"/>
      <point x="368" y="366"/>
      <point x="296" y="419" type="curve" smooth="yes"/>
      <point x="250" y="453"/>
      <point x="243" y="460"/>
      <point x="243" y="488" type="curve" smooth="yes"/>
      <point x="243" y="512"/>
      <point x="259" y="523"/>
      <point x="306" y="523" type="curve" smooth="yes"/>
      <point x="355" y="523"/>
      <point x="416" y="515"/>
      <point x="449" y="509" type="curve"/>
      <point x="456" y="666" type="line"/>
      <point x="407" y="682"/>
      <point x="315" y="703"/>
      <point x="241" y="703" type="curve" smooth="yes"/>
      <point x="84" y="703"/>
      <point x="17" y="648"/>
      <point x="17" y="496" type="curve" smooth="yes"/>
      <point x="17" y="392"/>
      <point x="41" y="362"/>
      <point x="105" y="317" type="curve" smooth="yes"/>
      <point x="166" y="274"/>
      <point x="183" y="253"/>
      <point x="184" y="236" type="curve" smooth="yes"/>
      <point x="185" y="217" type="line"/>
    </contour>
    <contour>
      <point x="385" y="0" type="line"/>
      <point x="385" y="180" type="line"/>
      <point x="157" y="180" type="line"/>
      <point x="157" y="0" type="line"/>
    </contour>
  </outline>
</glyph>
<glyph name="alef-ar" format="2">
  <advance width="384"/>
  <unicode hex="0627"/>
  <anchor x="192" y="-60" name="bottom"/>
  <anchor x="192" y="725" name="top"/>
  <outline>
    <contour>
      <point x="80" y="0" type="line"/>
      <point x="304" y="0" type="line"/>
      <point x="304" y="690" type="line"/>
      <point x="80" y="690" type="line"/>
    </contour>
  </outline>
</glyph>
<glyph name="jeem-ar" format="2">
  <advance width="661"/>
  <unicode hex="062C"/>
  <outline>
    <contour>
      <point x="430" y="-171" type="line"/>
      <point x="564" y="-171" type="line"/>
      <point x="564" y="-60" type="line"/>
      <point x="430" y="-60" type="line"/>
    </contour>
    <component base="hah-ar.alt"/>
  </outline>
</glyph>
<glyph name="hah-ar" format="2">
  <advance width="661"/>
  <unicode hex="062D"/>
  <anchor x="377" y="-400" name="bottom"/>
  <anchor x="465" y="-122" name="center"/>
  <anchor x="269" y="573" name="top"/>
  <outline>
    <contour>
      <point x="499" y="-134" type="line"/>
      <point x="438" y="-141"/>
      <point x="393" y="-144"/>
      <point x="362" y="-144" type="curve" smooth="yes"/>
      <point x="291" y="-144"/>
      <point x="264" y="-123"/>
      <point x="264" y="-72" type="curve" smooth="yes"/>
      <point x="264" y="-21"/>
      <point x="291" y="0"/>
      <point x="362" y="0" type="curve" smooth="yes"/>
      <point x="377" y="0" type="line"/>
      <point x="377" y="188" type="line"/>
      <point x="362" y="188" type="line" smooth="yes"/>
      <point x="173" y="188"/>
      <point x="40" y="87"/>
      <point x="40" y="-72" type="curve" smooth="yes"/>
      <point x="40" y="-231"/>
      <point x="173" y="-332"/>
      <point x="362" y="-332" type="curve" smooth="yes"/>
      <point x="418" y="-332"/>
      <point x="474" y="-324"/>
      <point x="531" y="-312" type="curve"/>
    </contour>
    <contour>
      <point x="109" y="306" type="line"/>
      <point x="169" y="314"/>
      <point x="207" y="317"/>
      <point x="235" y="317" type="curve" smooth="yes"/>
      <point x="338" y="317"/>
      <point x="377" y="277"/>
      <point x="377" y="209" type="curve" smooth="yes"/>
      <point x="377" y="0" type="line"/>
      <point x="601" y="0" type="line"/>
      <point x="601" y="209" type="line" smooth="yes"/>
      <point x="601" y="390"/>
      <point x="452" y="505"/>
      <point x="269" y="505" type="curve" smooth="yes"/>
      <point x="213" y="505"/>
      <point x="158" y="494"/>
      <point x="90" y="477" type="curve"/>
    </contour>
  </outline>
</glyph>
<glyph name="reh-ar" format="2">
  <advance width="349"/>
  <unicode hex="0631"/>
  <anchor x="86" y="-380" name="bottom"/>
  <anchor x="178" y="573" name="top"/>
  <outline>
    <contour>
      <point x="16" y="-293" type="curve" smooth="yes"/>
      <point x="176" y="-293"/>
      <point x="289" y="-177"/>
      <point x="289" y="-13" type="curve" smooth="yes"/>
      <point x="289" y="505" type="line"/>
      <point x="65" y="505" type="line"/>
      <point x="65" y="-13" type="line" smooth="yes"/>
      <point x="65" y="-76"/>
      <point x="43" y="-105"/>
      <point x="16" y="-105" type="curve" smooth="yes"/>
      <point x="8" y="-105"/>
      <point x="-4" y="-104"/>
      <point x="-25" y="-102" type="curve"/>
      <point x="-50" y="-289" type="line"/>
      <point x="-24" y="-292"/>
      <point x="-1" y="-293"/>
    </contour>
  </outline>
</glyph>
<glyph name="seen-ar" format="2">
  <advance width="1399"/>
  <unicode hex="0633"/>
  <anchor x="910" y="-100" name="bottom"/>
  <anchor x="910" y="573" name="top"/>
  <outline>
    <contour>
      <point x="373" y="-248" type="curve" smooth="yes"/>
      <point x="574" y="-248"/>
      <point x="693" y="-131"/>
      <point x="693" y="18" type="curve" smooth="yes"/>
      <point x="693" y="450" type="line"/>
      <point x="469" y="450" type="line"/>
      <point x="469" y="18" type="line" smooth="yes"/>
      <point x="469" y="-39"/>
      <point x="449" y="-60"/>
      <point x="373" y="-60" type="curve" smooth="yes"/>
      <point x="296" y="-60"/>
      <point x="264" y="-30"/>
      <point x="264" y="25" type="curve" smooth="yes"/>
      <point x="264" y="60"/>
      <point x="274" y="147"/>
      <point x="294" y="278" type="curve"/>
      <point x="73" y="306" type="line"/>
      <point x="56" y="195"/>
      <point x="40" y="78"/>
      <point x="40" y="25" type="curve" smooth="yes"/>
      <point x="40" y="-130"/>
      <point x="179" y="-248"/>
    </contour>
    <contour>
      <point x="689" y="0" type="line"/>
      <point x="724" y="0" type="line" smooth="yes"/>
      <point x="923" y="0"/>
      <point x="1021" y="109"/>
      <point x="1021" y="325" type="curve" smooth="yes"/>
      <point x="1021" y="450" type="line"/>
      <point x="797" y="450" type="line"/>
      <point x="797" y="325" type="line" smooth="yes"/>
      <point x="797" y="202"/>
      <point x="781" y="188"/>
      <point x="724" y="188" type="curve" smooth="yes"/>
      <point x="693" y="188" type="line"/>
    </contour>
    <contour>
      <point x="1056" y="0" type="curve" smooth="yes"/>
      <point x="1349" y="0" type="line"/>
      <point x="1349" y="270" type="line" smooth="yes"/>
      <point x="1349" y="314"/>
      <point x="1332" y="430"/>
      <point x="1319" y="505" type="curve"/>
      <point x="1098" y="474" type="line"/>
      <point x="1113" y="386"/>
      <point x="1125" y="296"/>
      <point x="1125" y="270" type="curve" smooth="yes"/>
      <point x="1125" y="75" type="line"/>
      <point x="1259" y="188" type="line"/>
      <point x="1056" y="188" type="line" smooth="yes"/>
      <point x="1032" y="188"/>
      <point x="1007" y="197"/>
      <point x="989" y="213" type="curve"/>
      <point x="857" y="76" type="line"/>
      <point x="911" y="28"/>
      <point x="985" y="0"/>
    </contour>
  </outline>
</glyph>
<glyph name="sad-ar" format="2">
  <advance width="1256"/>
  <unicode hex="0635"/>
  <anchor x="847" y="-100" name="bottom"/>
  <anchor x="847" y="573" name="top"/>
  <outline>
    <contour>
      <point x="373" y="-248" type="curve" smooth="yes"/>
      <point x="574" y="-248"/>
      <point x="693" y="-131"/>
      <point x="693" y="18" type="curve" smooth="yes"/>
      <point x="693" y="505" type="line"/>
      <point x="469" y="505" type="line"/>
      <point x="469" y="18" type="line" smooth="yes"/>
      <point x="469" y="-39"/>
      <point x="449" y="-60"/>
      <point x="373" y="-60" type="curve" smooth="yes"/>
      <point x="296" y="-60"/>
      <point x="264" y="-30"/>
      <point x="264" y="25" type="curve" smooth="yes"/>
      <point x="264" y="60"/>
      <point x="274" y="147"/>
      <point x="294" y="278" type="curve"/>
      <point x="73" y="306" type="line"/>
      <point x="56" y="195"/>
      <point x="40" y="78"/>
      <point x="40" y="25" type="curve" smooth="yes"/>
      <point x="40" y="-130"/>
      <point x="179" y="-248"/>
    </contour>
    <contour>
      <point x="688" y="0" type="line"/>
      <point x="1196" y="0" type="line"/>
      <point x="1196" y="208" type="line" smooth="yes"/>
      <point x="1196" y="394"/>
      <point x="1088" y="505"/>
      <point x="928" y="505" type="curve" smooth="yes"/>
      <point x="760" y="505"/>
      <point x="758" y="455"/>
      <point x="554" y="208" type="curve"/>
      <point x="592" y="71" type="line"/>
      <point x="625" y="111"/>
      <point x="753" y="317"/>
      <point x="892" y="317" type="curve" smooth="yes"/>
      <point x="933" y="317"/>
      <point x="972" y="299"/>
      <point x="972" y="208" type="curve" smooth="yes"/>
      <point x="972" y="38" type="line"/>
      <point x="1151" y="188" type="line"/>
      <point x="693" y="188" type="line"/>
    </contour>
  </outline>
</glyph>
<glyph name="ain-ar" format="2">
  <advance width="591"/>
  <unicode hex="0639"/>
  <anchor x="315" y="-400" name="bottom"/>
  <anchor x="315" y="573" name="top"/>
  <outline>
    <contour>
      <point x="362" y="-332" type="curve" smooth="yes"/>
      <point x="418" y="-332"/>
      <point x="474" y="-324"/>
      <point x="531" y="-312" type="curve"/>
      <point x="499" y="-134" type="line"/>
      <point x="438" y="-141"/>
      <point x="393" y="-144"/>
      <point x="362" y="-144" type="curve" smooth="yes"/>
      <point x="291" y="-144"/>
      <point x="264" y="-123"/>
      <point x="264" y="-72" type="curve" smooth="yes"/>
      <point x="264" y="-21"/>
      <point x="291" y="0"/>
      <point x="362" y="0" type="curve" smooth="yes"/>
      <point x="491" y="0" type="line"/>
      <point x="491" y="188" type="line"/>
      <point x="362" y="188" type="line" smooth="yes"/>
      <point x="173" y="188"/>
      <point x="40" y="87"/>
      <point x="40" y="-72" type="curve" smooth="yes"/>
      <point x="40" y="-231"/>
      <point x="173" y="-332"/>
    </contour>
    <contour>
      <point x="146" y="37" type="curve"/>
      <point x="314" y="161" type="line"/>
      <point x="292" y="185"/>
      <point x="283" y="207"/>
      <point x="283" y="234" type="curve" smooth="yes"/>
      <point x="283" y="282"/>
      <point x="318" y="317"/>
      <point x="365" y="317" type="curve" smooth="yes"/>
      <point x="383" y="317"/>
      <point x="398" y="313"/>
      <point x="413" y="303" type="curve"/>
      <point x="486" y="484" type="line"/>
      <point x="449" y="497"/>
      <point x="405" y="505"/>
      <point x="365" y="505" type="curve" smooth="yes"/>
      <point x="196" y="505"/>
      <point x="59" y="387"/>
      <point x="59" y="234" type="curve" smooth="yes"/>
      <point x="59" y="159"/>
      <point x="85" y="105"/>
    </contour>
  </outline>
</glyph>
<glyph name="meem-ar" format="2">
  <advance width="727"/>
  <unicode hex="0645"/>
  <anchor x="354" y="-388" name="bottom"/>
  <anchor x="354" y="573" name="top"/>
  <outline>
    <contour>
      <point x="63" y="-332" type="curve"/>
      <point x="284" y="-300" type="line"/>
      <point x="274" y="-240"/>
      <point x="264" y="-183"/>
      <point x="264" y="-137" type="curve" smooth="yes"/>
      <point x="264" y="-14"/>
      <point x="333" y="0"/>
      <point x="375" y="0" type="curve" smooth="yes"/>
      <point x="408" y="0"/>
      <point x="540" y="0"/>
      <point x="667" y="0" type="curve"/>
      <point x="667" y="248" type="line" smooth="yes"/>
      <point x="667" y="437"/>
      <point x="569" y="505"/>
      <point x="374" y="505" type="curve" smooth="yes"/>
      <point x="282" y="505"/>
      <point x="202" y="490"/>
      <point x="167" y="478" type="curve"/>
      <point x="154" y="433"/>
      <point x="136" y="338"/>
      <point x="136" y="241" type="curve" smooth="yes"/>
      <point x="136" y="149"/>
      <point x="151" y="65"/>
      <point x="162" y="32" type="curve"/>
      <point x="375" y="91" type="line"/>
      <point x="370" y="106"/>
      <point x="360" y="194"/>
      <point x="360" y="241" type="curve" smooth="yes"/>
      <point x="360" y="299"/>
      <point x="370" y="385"/>
      <point x="382" y="426" type="curve"/>
      <point x="240" y="300" type="line"/>
      <point x="269" y="310"/>
      <point x="321" y="317"/>
      <point x="374" y="317" type="curve" smooth="yes"/>
      <point x="431" y="317"/>
      <point x="443" y="305"/>
      <point x="443" y="251" type="curve" smooth="yes"/>
      <point x="443" y="119" type="line"/>
      <point x="509" y="188" type="line"/>
      <point x="382" y="188"/>
      <point x="409" y="188"/>
      <point x="375" y="188" type="curve" smooth="yes"/>
      <point x="175" y="188"/>
      <point x="40" y="59"/>
      <point x="40" y="-137" type="curve" smooth="yes"/>
      <point x="40" y="-196"/>
      <point x="52" y="-265"/>
    </contour>
  </outline>
</glyph>
<glyph name="waw-ar" format="2">
  <advance width="645"/>
  <unicode hex="0648"/>
  <anchor x="333" y="-350" name="bottom"/>
  <anchor x="333" y="573" name="top"/>
  <outline>
    <contour>
      <point x="289" y="-293" type="curve" smooth="yes"/>
      <point x="474" y="-293"/>
      <point x="585" y="-180"/>
      <point x="585" y="9" type="curve" smooth="yes"/>
      <point x="585" y="505" type="line"/>
      <point x="328" y="505" type="line" smooth="yes"/>
      <point x="163" y="505"/>
      <point x="40" y="404"/>
      <point x="40" y="252" type="curve" smooth="yes"/>
      <point x="40" y="80"/>
      <point x="163" y="0"/>
      <point x="328" y="0" type="curve" smooth="yes"/>
      <point x="361" y="0" type="line"/>
      <point x="361" y="188" type="line"/>
      <point x="328" y="188" type="line" smooth="yes"/>
      <point x="284" y="188"/>
      <point x="264" y="186"/>
      <point x="264" y="252" type="curve" smooth="yes"/>
      <point x="264" y="298"/>
      <point x="284" y="317"/>
      <point x="328" y="317" type="curve" smooth="yes"/>
      <point x="383" y="317" type="line"/>
      <point x="361" y="336" type="line"/>
      <point x="361" y="9" type="line" smooth="yes"/>
      <point x="361" y="-85"/>
      <point x="341" y="-105"/>
      <point x="289" y="-105" type="curve" smooth="yes"/>
      <point x="253" y="-105"/>
      <point x="207" y="-98"/>
      <point x="148" y="-85" type="curve"/>
      <point x="99" y="-269" type="line"/>
      <point x="168" y="-284"/>
      <point x="238" y="-293"/>
    </contour>
  </outline>
</glyph>
<glyph name="madda-ar" format="2">
  <unicode hex="0653"/>
  <anchor x="226" y="484" name="_top"/>
  <anchor x="226" y="761" name="top"/>
  <outline>
    <contour>
      <point x="103" y="484" type="line"/>
      <point x="197" y="578" type="line"/>
      <point x="102" y="581" type="line"/>
      <point x="136" y="540"/>
      <point x="187" y="515"/>
      <point x="247" y="515" type="curve" smooth="yes"/>
      <point x="350" y="515"/>
      <point x="406" y="590"/>
      <point x="436" y="652" type="curve"/>
      <point x="463" y="606" type="line"/>
      <point x="343" y="693" type="line"/>
      <point x="386" y="700" type="line"/>
      <point x="367" y="671"/>
      <point x="326" y="652"/>
      <point x="279" y="652" type="curve" smooth="yes"/>
      <point x="240" y="652"/>
      <point x="202" y="664"/>
      <point x="182" y="687" type="curve"/>
      <point x="219" y="675" type="line"/>
      <point x="81" y="675" type="line"/>
      <point x="20" y="553" type="line"/>
    </contour>
  </outline>
</glyph>
<glyph name="noonghunnaabove-ar" format="2">
  <unicode hex="0658"/>
  <anchor x="138" y="362" name="_top"/>
  <anchor x="138" y="613" name="top"/>
  <outline>
    <contour>
      <point x="114" y="496" type="curve"/>
      <point x="25" y="509" type="line"/>
      <point x="22" y="488"/>
      <point x="20" y="469"/>
      <point x="20" y="458" type="curve" smooth="yes"/>
      <point x="20" y="403"/>
      <point x="72" y="362"/>
      <point x="138" y="362" type="curve" smooth="yes"/>
      <point x="204" y="362"/>
      <point x="256" y="403"/>
      <point x="256" y="458" type="curve" smooth="yes"/>
      <point x="256" y="469"/>
      <point x="254" y="488"/>
      <point x="251" y="508" type="curve"/>
      <point x="163" y="496" type="line"/>
      <point x="165" y="479"/>
      <point x="166" y="464"/>
      <point x="166" y="458" type="curve" smooth="yes"/>
      <point x="166" y="448"/>
      <point x="157" y="442"/>
      <point x="138" y="442" type="curve" smooth="yes"/>
      <point x="119" y="442"/>
      <point x="110" y="448"/>
      <point x="110" y="458" type="curve" smooth="yes"/>
      <point x="110" y="465"/>
      <point x="112" y="480"/>
    </contour>
  </outline>
</glyph>
<glyph name="four-ar" format="2">
  <advance width="446"/>
  <unicode hex="0664"/>
  <outline>
    <contour>
      <point x="294" y="243" type="curve"/>
      <point x="294" y="431" type="line"/>
      <point x="267" y="431"/>
      <point x="248" y="438"/>
      <point x="248" y="460" type="curve" smooth="yes"/>
      <point x="248" y="482"/>
      <point x="267" y="489"/>
      <point x="288" y="489" type="curve" smooth="yes"/>
      <point x="305" y="489"/>
      <point x="345" y="484"/>
      <point x="372" y="478" type="curve"/>
      <point x="421" y="662" type="line"/>
      <point x="386" y="669"/>
      <point x="319" y="677"/>
      <point x="288" y="677" type="curve" smooth="yes"/>
      <point x="142" y="677"/>
      <point x="24" y="585"/>
      <point x="24" y="460" type="curve" smooth="yes"/>
      <point x="24" y="334"/>
      <point x="142" y="243"/>
    </contour>
    <contour>
      <point x="288" y="-3" type="curve" smooth="yes"/>
      <point x="319" y="-3"/>
      <point x="386" y="5"/>
      <point x="421" y="12" type="curve"/>
      <point x="372" y="196" type="line"/>
      <point x="345" y="190"/>
      <point x="305" y="185"/>
      <point x="288" y="185" type="curve" smooth="yes"/>
      <point x="267" y="185"/>
      <point x="248" y="192"/>
      <point x="248" y="214" type="curve" smooth="yes"/>
      <point x="248" y="236"/>
      <point x="267" y="243"/>
      <point x="294" y="243" type="curve"/>
      <point x="294" y="431" type="line"/>
      <point x="142" y="431"/>
      <point x="24" y="340"/>
      <point x="24" y="214" type="curve" smooth="yes"/>
      <point x="24" y="89"/>
      <point x="142" y="-3"/>
    </contour>
    <contour>
      <point x="294" y="243" type="line"/>
      <point x="372" y="243" type="line"/>
      <point x="372" y="431" type="line"/>
      <point x="294" y="431" type="line"/>
    </contour>
  </outline>
</glyph>
<glyph name="five-ar" format="2">
  <advance width="750"/>
  <unicode hex="0665"/>
  <outline>
    <contour>
      <point x="380" y="-4" type="curve" smooth="yes"/>
      <point x="542" y="-4"/>
      <point x="695" y="91"/>
      <point x="695" y="272" type="curve" smooth="yes"/>
      <point x="695" y="417"/>
      <point x="596" y="665"/>
      <point x="380" y="664" type="curve" smooth="yes"/>
      <point x="164" y="663"/>
      <point x="65" y="417"/>
      <point x="65" y="271" type="curve" smooth="yes"/>
      <point x="65" y="91"/>
      <point x="218" y="-4"/>
    </contour>
    <contour>
      <point x="380" y="184" type="curve" smooth="yes"/>
      <point x="314" y="184"/>
      <point x="289" y="209"/>
      <point x="289" y="269" type="curve" smooth="yes"/>
      <point x="289" y="363"/>
      <point x="350" y="476"/>
      <point x="380" y="476" type="curve" smooth="yes"/>
      <point x="410" y="476"/>
      <point x="471" y="364"/>
      <point x="471" y="269" type="curve" smooth="yes"/>
      <point x="471" y="209"/>
      <point x="446" y="184"/>
    </contour>
  </outline>
</glyph>
<glyph name="seven-ar" format="2">
  <advance width="700"/>
  <unicode hex="0667"/>
  <outline>
    <contour>
      <point x="236" y="0" type="line"/>
      <point x="457" y="0" type="line"/>
      <point x="680" y="660" type="line"/>
      <point x="454" y="660" type="line"/>
      <point x="333" y="108" type="line"/>
      <point x="457" y="188" type="line"/>
      <point x="236" y="188" type="line"/>
      <point x="363" y="113" type="line"/>
      <point x="246" y="660" type="line"/>
      <point x="20" y="660" type="line"/>
    </contour>
  </outline>
</glyph>
<glyph name="eight-ar" format="2">
  <advance width="700"/>
  <unicode hex="0668"/>
  <outline>
    <contour>
      <point x="236" y="660" type="line"/>
      <point x="20" y="0" type="line"/>
      <point x="246" y="0" type="line"/>
      <point x="363" y="547" type="line"/>
      <point x="236" y="472" type="line"/>
      <point x="457" y="472" type="line"/>
      <point x="333" y="552" type="line"/>
      <point x="454" y="0" type="line"/>
      <point x="680" y="0" type="line"/>
      <point x="457" y="660" type="line"/>
    </contour>
  </outline>
</glyph>
<glyph name="percent-ar" format="2">
  <advance width="666"/>
  <unicode hex="066A"/>
  <outline>
    <contour>
      <point x="253" y="-32" type="line"/>
      <point x="488" y="673" type="line"/>
      <point x="415" y="699" type="line"/>
      <point x="180" y="-8" type="line"/>
    </contour>
    <contour>
      <point x="49" y="436" type="line"/>
      <point x="224" y="436" type="line"/>
      <point x="224" y="583" type="line"/>
      <point x="49" y="583" type="line"/>
    </contour>
    <contour>
      <point x="442" y="72" type="line"/>
      <point x="617" y="72" type="line"/>
      <point x="617" y="219" type="line"/>
      <point x="442" y="219" type="line"/>
    </contour>
  </outline>
</glyph>
<glyph name="qafDotless-ar" format="2">
  <advance width="992"/>
  <unicode hex="066F"/>
  <anchor x="496" y="-360" name="bottom"/>
  <anchor x="688" y="573" name="top"/>
  <outline>
    <contour>
      <point x="373" y="-266" type="curve" smooth="yes"/>
      <point x="612" y="-266" type="line" smooth="yes"/>
      <point x="813" y="-266"/>
      <point x="932" y="-149"/>
      <point x="932" y="0" type="curve" smooth="yes"/>
      <point x="932" y="505" type="line"/>
      <point x="675" y="505" type="line" smooth="yes"/>
      <point x="510" y="505"/>
      <point x="387" y="404"/>
      <point x="387" y="252" type="curve" smooth="yes"/>
      <point x="387" y="80"/>
      <point x="510" y="0"/>
      <point x="675" y="0" type="curve" smooth="yes"/>
      <point x="708" y="0" type="line"/>
      <point x="708" y="188" type="line"/>
      <point x="675" y="188" type="line" smooth="yes"/>
      <point x="631" y="188"/>
      <point x="611" y="186"/>
      <point x="611" y="252" type="curve" smooth="yes"/>
      <point x="611" y="298"/>
      <point x="631" y="317"/>
      <point x="675" y="317" type="curve" smooth="yes"/>
      <point x="730" y="317" type="line"/>
      <point x="708" y="336" type="line"/>
      <point x="708" y="0" type="line" smooth="yes"/>
      <point x="708" y="-57"/>
      <point x="688" y="-78"/>
      <point x="612" y="-78" type="curve" smooth="yes"/>
      <point x="373" y="-78" type="line" smooth="yes"/>
      <point x="296" y="-78"/>
      <point x="264" y="-48"/>
      <point x="264" y="7" type="curve" smooth="yes"/>
      <point x="264" y="42"/>
      <point x="274" y="129"/>
      <point x="294" y="260" type="curve"/>
      <point x="73" y="288" type="line"/>
      <point x="56" y="177"/>
      <point x="40" y="60"/>
      <point x="40" y="7" type="curve" smooth="yes"/>
      <point x="40" y="-148"/>
      <point x="179" y="-266"/>
    </contour>
  </outline>
</glyph>
<glyph name="fehDotless-ar" format="2">
  <advance width="1079"/>
  <unicode hex="06A1"/>
  <anchor x="478" y="-100" name="bottom"/>
  <anchor x="765" y="573" name="top"/>
  <outline>
    <contour>
      <point x="434" y="0" type="curve" smooth="yes"/>
      <point x="1009" y="0" type="line"/>
      <point x="1009" y="505" type="line"/>
      <point x="752" y="505" type="line" smooth="yes"/>
      <point x="587" y="505"/>
      <point x="464" y="404"/>
      <point x="464" y="252" type="curve" smooth="yes"/>
      <point x="464" y="80"/>
      <point x="587" y="0"/>
      <point x="752" y="0" type="curve"/>
      <point x="752" y="188" type="line"/>
      <point x="708" y="188"/>
      <point x="688" y="186"/>
      <point x="688" y="252" type="curve" smooth="yes"/>
      <point x="688" y="298"/>
      <point x="708" y="317"/>
      <point x="752" y="317" type="curve" smooth="yes"/>
      <point x="807" y="317" type="line"/>
      <point x="785" y="336" type="line"/>
      <point x="785" y="169" type="line"/>
      <point x="807" y="188" type="line"/>
      <point x="452" y="188" type="line" smooth="yes"/>
      <point x="362" y="188"/>
      <point x="278" y="199"/>
      <point x="278" y="309" type="curve" smooth="yes"/>
      <point x="278" y="346"/>
      <point x="287" y="394"/>
      <point x="294" y="425" type="curve"/>
      <point x="77" y="468" type="line"/>
      <point x="69" y="436"/>
      <point x="54" y="369"/>
      <point x="54" y="305" type="curve" smooth="yes"/>
      <point x="54" y="111"/>
      <point x="195" y="0"/>
    </contour>
  </outline>
</glyph>
<glyph name="keheh-ar" format="2">
  <advance width="998"/>
  <unicode hex="06A9"/>
  <anchor x="554" y="-100" name="bottom"/>
  <anchor x="278" y="730" name="top"/>
  <outline>
    <contour>
      <point x="420" y="0" type="curve" smooth="yes"/>
      <point x="938" y="0" type="line"/>
      <point x="938" y="203" type="line" smooth="yes"/>
      <point x="938" y="391"/>
      <point x="833" y="505"/>
      <point x="658" y="505" type="curve" smooth="yes"/>
      <point x="565" y="505" type="line"/>
      <point x="572" y="518" type="line" smooth="yes"/>
      <point x="588" y="548"/>
      <point x="602" y="574"/>
      <point x="642" y="635" type="curve"/>
      <point x="454" y="737" type="line"/>
      <point x="401" y="656"/>
      <point x="384" y="625"/>
      <point x="375" y="609" type="curve" smooth="yes"/>
      <point x="312" y="492" type="line"/>
      <point x="436" y="317" type="line"/>
      <point x="658" y="317" type="line" smooth="yes"/>
      <point x="696" y="317"/>
      <point x="714" y="298"/>
      <point x="714" y="203" type="curve" smooth="yes"/>
      <point x="714" y="188" type="line"/>
      <point x="438" y="188" type="line" smooth="yes"/>
      <point x="348" y="188"/>
      <point x="264" y="199"/>
      <point x="264" y="309" type="curve" smooth="yes"/>
      <point x="264" y="346"/>
      <point x="273" y="394"/>
      <point x="280" y="425" type="curve"/>
      <point x="63" y="468" type="line"/>
      <point x="55" y="436"/>
      <point x="40" y="369"/>
      <point x="40" y="305" type="curve" smooth="yes"/>
      <point x="40" y="111"/>
      <point x="181" y="0"/>
    </contour>
  </outline>
</glyph>
<glyph name="hehDoachashmee-ar" format="2">
  <advance width="847"/>
  <unicode hex="06BE"/>
  <anchor x="431" y="-100" name="bottom"/>
  <anchor x="431" y="700" name="top"/>
  <outline>
    <contour>
      <point x="40" y="0" type="line"/>
      <point x="787" y="0" type="line"/>
      <point x="787" y="232" type="line" smooth="yes"/>
      <point x="787" y="517"/>
      <point x="607" y="603"/>
      <point x="429" y="603" type="curve" smooth="yes"/>
      <point x="337" y="603"/>
      <point x="230" y="580"/>
      <point x="125" y="555" type="curve"/>
      <point x="153" y="388" type="line"/>
      <point x="234" y="402"/>
      <point x="325" y="414"/>
      <point x="415" y="414" type="curve" smooth="yes"/>
      <point x="532" y="414"/>
      <point x="563" y="378"/>
      <point x="563" y="232" type="curve" smooth="yes"/>
      <point x="563" y="60" type="line"/>
      <point x="727" y="188" type="line"/>
      <point x="40" y="188" type="line"/>
    </contour>
    <contour>
      <point x="270" y="243" type="curve" smooth="yes"/>
      <point x="290" y="243"/>
      <point x="309" y="221"/>
      <point x="309" y="190" type="curve" smooth="yes"/>
      <point x="309" y="188" type="line"/>
      <point x="462" y="188" type="line"/>
      <point x="462" y="190" type="line" smooth="yes"/>
      <point x="462" y="290"/>
      <point x="375" y="371"/>
      <point x="270" y="371" type="curve" smooth="yes"/>
      <point x="163" y="371"/>
      <point x="76" y="289"/>
      <point x="76" y="189" type="curve" smooth="yes"/>
      <point x="76" y="188" type="line"/>
      <point x="229" y="188" type="line"/>
      <point x="229" y="189" type="line" smooth="yes"/>
      <point x="229" y="221"/>
      <point x="249" y="243"/>
    </contour>
  </outline>
</glyph>
<glyph name="yehbarree-ar" format="2">
  <advance width="809"/>
  <unicode hex="06D2"/>
  <anchor x="370" y="-347" name="bottom"/>
  <anchor x="197" y="250" name="top"/>
  <outline>
    <contour>
      <point x="359" y="-276" type="curve" smooth="yes"/>
      <point x="680" y="-276" type="line"/>
      <point x="680" y="-88" type="line"/>
      <point x="359" y="-88" type="line" smooth="yes"/>
      <point x="324" y="-88"/>
      <point x="264" y="-103"/>
      <point x="264" y="-8" type="curve" smooth="yes"/>
      <point x="264" y="101" type="line"/>
      <point x="163" y="0" type="line"/>
      <point x="473" y="0" type="line" smooth="yes"/>
      <point x="714" y="0"/>
      <point x="759" y="144"/>
      <point x="759" y="265" type="curve" smooth="yes"/>
      <point x="759" y="416" type="line"/>
      <point x="535" y="416" type="line"/>
      <point x="535" y="265" type="line" smooth="yes"/>
      <point x="535" y="175"/>
      <point x="535" y="188"/>
      <point x="473" y="188" type="curve" smooth="yes"/>
      <point x="174" y="188" type="line"/>
      <point x="40" y="76" type="line"/>
      <point x="40" y="-8" type="line" smooth="yes"/>
      <point x="40" y="-179"/>
      <point x="154" y="-276"/>
    </contour>
  </outline>
</glyph>
<glyph name="five-persian" format="2">
  <advance width="750"/>
  <unicode hex="06F5"/>
  <outline>
    <contour>
      <point x="283" y="-4" type="curve" smooth="yes"/>
      <point x="340" y="-4"/>
      <point x="359" y="24"/>
      <point x="375" y="34" type="curve"/>
      <point x="391" y="24"/>
      <point x="404" y="-4"/>
      <point x="467" y="-4" type="curve" smooth="yes"/>
      <point x="525" y="-4"/>
      <point x="694" y="51"/>
      <point x="694" y="277" type="curve" smooth="yes"/>
      <point x="694" y="407"/>
      <point x="623" y="529"/>
      <point x="397" y="762" type="curve"/>
      <point x="236" y="605" type="line"/>
      <point x="393" y="423"/>
      <point x="482" y="318"/>
      <point x="482" y="258" type="curve" smooth="yes"/>
      <point x="482" y="217"/>
      <point x="450" y="194"/>
      <point x="426" y="194" type="curve" smooth="yes"/>
      <point x="402" y="194"/>
      <point x="383" y="210"/>
      <point x="375" y="218" type="curve"/>
      <point x="367" y="210"/>
      <point x="350" y="194"/>
      <point x="325" y="194" type="curve" smooth="yes"/>
      <point x="300" y="194"/>
      <point x="268" y="217"/>
      <point x="268" y="258" type="curve" smooth="yes"/>
      <point x="268" y="315"/>
      <point x="323" y="395"/>
      <point x="450" y="522" type="curve"/>
      <point x="361" y="636" type="line"/>
      <point x="178" y="513"/>
      <point x="65" y="377"/>
      <point x="65" y="236" type="curve" smooth="yes"/>
      <point x="65" y="48"/>
      <point x="219" y="-4"/>
    </contour>
  </outline>
</glyph>
<glyph name="quoteright" format="2">
  <advance width="275"/>
  <unicode hex="2019"/>
  <outline>
    <contour>
      <point x="19" y="389" type="line"/>
      <point x="195" y="389" type="line"/>
      <point x="270" y="670" type="line"/>
      <point x="40" y="670" type="line"/>
    </contour>
  </outline>
</glyph>
<glyph name="quotedblbase" format="2">
  <advance width="540"/>
  <unicode hex="201E"/>
  <outline>
    <contour>
      <point x="11" y="-108" type="line"/>
      <point x="187" y="-108" type="line"/>
      <point x="262" y="173" type="line"/>
      <point x="32" y="173" type="line"/>
    </contour>
    <contour>
      <point x="277" y="-108" type="line"/>
      <point x="453" y="-108" type="line"/>
      <point x="528" y="173" type="line"/>
      <point x="298" y="173" type="line"/>
    </contour>
  </outline>
</glyph>
<glyph name="daggerdbl" format="2">
  <advance width="548"/>
  <unicode hex="2021"/>
  <outline>
    <contour>
      <point x="161" y="-194" type="line"/>
      <point x="387" y="-194" type="line"/>
      <point x="387" y="-17" type="line"/>
      <point x="524" y="-17" type="line"/>
      <point x="524" y="181" type="line"/>
      <point x="387" y="181" type="line"/>
      <point x="387" y="294" type="line"/>
      <point x="524" y="294" type="line"/>
      <point x="524" y="492" type="line"/>
      <point x="387" y="492" type="line"/>
      <point x="387" y="670" type="line"/>
      <point x="161" y="670" type="line"/>
      <point x="161" y="492" type="line"/>
      <point x="24" y="492" type="line"/>
      <point x="24" y="294" type="line"/>
      <point x="161" y="294" type="line"/>
      <point x="161" y="181" type="line"/>
      <point x="24" y="181" type="line"/>
      <point x="24" y="-17" type="line"/>
      <point x="161" y="-17" type="line"/>
    </contour>
  </outline>
</glyph>
<glyph name="ellipsis" format="2">
  <advance width="876"/>
  <unicode hex="2026"/>
  <outline>
    <contour>
      <point x="621" y="0" type="line"/>
      <point x="849" y="0" type="line"/>
      <point x="849" y="199" type="line"/>
      <point x="621" y="199" type="line"/>
    </contour>
    <contour>
      <point x="27" y="0" type="line"/>
      <point x="255" y="0" type="line"/>
      <point x="255" y="199" type="line"/>
      <point x="27" y="199" type="line"/>
    </contour>
    <contour>
      <point x="324" y="0" type="line"/>
      <point x="552" y="0" type="line"/>
      <point x="552" y="199" type="line"/>
      <point x="324" y="199" type="line"/>
    </contour>
  </outline>
</glyph>
<glyph name="perthousand" format="2">
  <advance width="978"/>
  <unicode hex="2030"/>
  <outline>
    <contour>
      <point x="162" y="311" type="curve" smooth="yes"/>
      <point x="273" y="311"/>
      <point x="306" y="362"/>
      <point x="306" y="490" type="curve" smooth="yes"/>
      <point x="306" y="618"/>
      <point x="274" y="668"/>
      <point x="162" y="668" type="curve" smooth="yes"/>
      <point x="53" y="668"/>
      <point x="17" y="618"/>
      <point x="17" y="490" type="curve" smooth="yes"/>
      <point x="17" y="362"/>
      <point x="50" y="311"/>
    </contour>
    <contour>
      <point x="162" y="418" type="curve" smooth="yes"/>
      <point x="147" y="418"/>
      <point x="144" y="421"/>
      <point x="144" y="490" type="curve" smooth="yes"/>
      <point x="144" y="560"/>
      <point x="146" y="562"/>
      <point x="162" y="562" type="curve" smooth="yes"/>
      <point x="177" y="562"/>
      <point x="180" y="560"/>
      <point x="180" y="490" type="curve" smooth="yes"/>
      <point x="180" y="421"/>
      <point x="176" y="418"/>
    </contour>
    <contour>
      <point x="271" y="-67" type="line"/>
      <point x="430" y="692" type="line"/>
      <point x="386" y="701" type="line"/>
      <point x="228" y="-59" type="line"/>
    </contour>
    <contour>
      <point x="506" y="-12" type="curve" smooth="yes"/>
      <point x="617" y="-12"/>
      <point x="650" y="39"/>
      <point x="650" y="167" type="curve" smooth="yes"/>
      <point x="650" y="295"/>
      <point x="618" y="345"/>
      <point x="506" y="345" type="curve" smooth="yes"/>
      <point x="397" y="345"/>
      <point x="361" y="295"/>
      <point x="361" y="167" type="curve" smooth="yes"/>
      <point x="361" y="39"/>
      <point x="394" y="-12"/>
    </contour>
    <contour>
      <point x="506" y="95" type="curve" smooth="yes"/>
      <point x="491" y="95"/>
      <point x="488" y="98"/>
      <point x="488" y="167" type="curve" smooth="yes"/>
      <point x="488" y="237"/>
      <point x="490" y="239"/>
      <point x="506" y="239" type="curve" smooth="yes"/>
      <point x="521" y="239"/>
      <point x="524" y="237"/>
      <point x="524" y="167" type="curve" smooth="yes"/>
      <point x="524" y="98"/>
      <point x="520" y="95"/>
    </contour>
    <contour>
      <point x="818" y="-12" type="curve" smooth="yes"/>
      <point x="929" y="-12"/>
      <point x="962" y="39"/>
      <point x="962" y="167" type="curve" smooth="yes"/>
      <point x="962" y="295"/>
      <point x="930" y="345"/>
      <point x="818" y="345" type="curve" smooth="yes"/>
      <point x="709" y="345"/>
      <point x="673" y="295"/>
      <point x="673" y="167" type="curve" smooth="yes"/>
      <point x="673" y="39"/>
      <point x="706" y="-12"/>
    </contour>
    <contour>
      <point x="818" y="95" type="curve" smooth="yes"/>
      <point x="803" y="95"/>
      <point x="800" y="98"/>
      <point x="800" y="167" type="curve" smooth="yes"/>
      <point x="800" y="237"/>
      <point x="802" y="239"/>
      <point x="818" y="239" type="curve" smooth="yes"/>
      <point x="833" y="239"/>
      <point x="836" y="237"/>
      <point x="836" y="167" type="curve" smooth="yes"/>
      <point x="836" y="98"/>
      <point x="832" y="95"/>
    </contour>
  </outline>
</glyph>
<glyph name="fraction" format="2">
  <advance width="215"/>
  <unicode hex="2044"/>
  <outline>
    <contour>
      <point x="35" y="-59" type="line"/>
      <point x="338" y="691" type="line"/>
      <point x="191" y="755" type="line"/>
      <point x="-112" y="5" type="line"/>
    </contour>
  </outline>
</glyph>
<glyph name="zerosuperior" format="2">
  <advance width="350"/>
  <unicode hex="2070"/>
  <outline>
    <contour>
      <point x="175" y="273" type="curve" smooth="yes"/>
      <point x="299" y="273"/>
      <point x="335" y="330"/>
      <point x="335" y="472" type="curve" smooth="yes"/>
      <point x="335" y="614"/>
      <point x="300" y="670"/>
      <point x="175" y="670" type="curve" smooth="yes"/>
      <point x="54" y="670"/>
      <point x="14" y="614"/>
      <point x="14" y="472" type="curve" smooth="yes"/>
      <point x="14" y="330"/>
      <point x="51" y="273"/>
    </contour>
    <contour>
      <point x="175" y="392" type="curve" smooth="yes"/>
      <point x="159" y="392"/>
      <point x="155" y="395"/>
      <point x="155" y="472" type="curve" smooth="yes"/>
      <point x="155" y="550"/>
      <point x="158" y="552"/>
      <point x="175" y="552" type="curve" smooth="yes"/>
      <point x="192" y="552"/>
      <point x="195" y="550"/>
      <point x="195" y="472" type="curve" smooth="yes"/>
      <point x="195" y="395"/>
      <point x="191" y="392"/>
    </contour>
  </outline>
</glyph>
<glyph name="sixsuperior" format="2">
  <advance width="350"/>
  <unicode hex="2076"/>
  <outline>
    <contour>
      <point x="176" y="273" type="curve" smooth="yes"/>
      <point x="267" y="273"/>
      <point x="331" y="308"/>
      <point x="331" y="404" type="curve" smooth="yes"/>
      <point x="331" y="500"/>
      <point x="285" y="535"/>
      <point x="192" y="535" type="curve" smooth="yes"/>
      <point x="171" y="535"/>
      <point x="154" y="529"/>
      <point x="147" y="526" type="curve"/>
      <point x="145" y="525"/>
      <point x="144" y="525"/>
      <point x="144" y="525" type="curve"/>
      <point x="147" y="550"/>
      <point x="157" y="564"/>
      <point x="188" y="564" type="curve" smooth="yes"/>
      <point x="224" y="564"/>
      <point x="274" y="559"/>
      <point x="302" y="555" type="curve"/>
      <point x="311" y="651" type="line"/>
      <point x="277" y="659"/>
      <point x="218" y="670"/>
      <point x="183" y="670" type="curve" smooth="yes"/>
      <point x="92" y="670"/>
      <point x="21" y="629"/>
      <point x="21" y="468" type="curve" smooth="yes"/>
      <point x="21" y="340"/>
      <point x="63" y="273"/>
    </contour>
    <contour>
      <point x="176" y="377" type="curve" smooth="yes"/>
      <point x="148" y="377"/>
      <point x="144" y="393"/>
      <point x="144" y="426" type="curve"/>
      <point x="150" y="429"/>
      <point x="162" y="433"/>
      <point x="177" y="433" type="curve" smooth="yes"/>
      <point x="194" y="433"/>
      <point x="203" y="425"/>
      <point x="203" y="405" type="curve" smooth="yes"/>
      <point x="203" y="388"/>
      <point x="196" y="377"/>
    </contour>
  </outline>
</glyph>
<glyph name="eightsuperior" format="2">
  <advance width="350"/>
  <unicode hex="2078"/>
  <outline>
    <contour>
      <point x="174" y="273" type="curve" smooth="yes"/>
      <point x="260" y="273"/>
      <point x="336" y="291"/>
      <point x="336" y="382" type="curve" smooth="yes"/>
      <point x="336" y="441"/>
      <point x="316" y="455"/>
      <point x="276" y="475" type="curve"/>
      <point x="311" y="496"/>
      <point x="330" y="513"/>
      <point x="330" y="567" type="curve" smooth="yes"/>
      <point x="330" y="656"/>
      <point x="261" y="670"/>
      <point x="174" y="670" type="curve" smooth="yes"/>
      <point x="87" y="670"/>
      <point x="19" y="646"/>
      <point x="19" y="567" type="curve" smooth="yes"/>
      <point x="19" y="512"/>
      <point x="39" y="496"/>
      <point x="72" y="476" type="curve"/>
      <point x="36" y="454"/>
      <point x="12" y="441"/>
      <point x="12" y="384" type="curve" smooth="yes"/>
      <point x="12" y="296"/>
      <point x="88" y="273"/>
    </contour>
    <contour>
      <point x="174" y="371" type="curve" smooth="yes"/>
      <point x="159" y="371"/>
      <point x="151" y="379"/>
      <point x="151" y="397" type="curve" smooth="yes"/>
      <point x="151" y="412"/>
      <point x="160" y="425"/>
      <point x="167" y="431" type="curve"/>
      <point x="182" y="431" type="line"/>
      <point x="188" y="425"/>
      <point x="197" y="412"/>
      <point x="197" y="397" type="curve" smooth="yes"/>
      <point x="197" y="377"/>
      <point x="190" y="371"/>
    </contour>
    <contour>
      <point x="167" y="519" type="line"/>
      <point x="162" y="524"/>
      <point x="156" y="535"/>
      <point x="156" y="548" type="curve" smooth="yes"/>
      <point x="156" y="564"/>
      <point x="159" y="574"/>
      <point x="174" y="574" type="curve" smooth="yes"/>
      <point x="189" y="574"/>
      <point x="193" y="564"/>
      <point x="193" y="548" type="curve" smooth="yes"/>
      <point x="193" y="535"/>
      <point x="187" y="524"/>
      <point x="182" y="519" type="curve"/>
    </contour>
  </outline>
</glyph>
<glyph name="ninesuperior" format="2">
  <advance width="350"/>
  <unicode hex="2079"/>
  <outline>
    <contour>
      <point x="166" y="273" type="curve" smooth="yes"/>
      <point x="257" y="273"/>
      <point x="328" y="314"/>
      <point x="328" y="475" type="curve" smooth="yes"/>
      <point x="328" y="606"/>
      <point x="284" y="670"/>
      <point x="173" y="670" type="curve" smooth="yes"/>
      <point x="84" y="670"/>
      <point x="23" y="633"/>
      <point x="23" y="539" type="curve" smooth="yes"/>
      <point x="23" y="446"/>
      <point x="69" y="408"/>
      <point x="157" y="408" type="curve" smooth="yes"/>
      <point x="170" y="408"/>
      <point x="188" y="412"/>
      <point x="205" y="418" type="curve"/>
      <point x="202" y="393"/>
      <point x="192" y="379"/>
      <point x="161" y="379" type="curve" smooth="yes"/>
      <point x="125" y="379"/>
      <point x="72" y="384"/>
      <point x="42" y="388" type="curve"/>
      <point x="33" y="292" type="line" name="hr00"/>
      <point x="70" y="284"/>
      <point x="131" y="273"/>
    </contour>
    <contour>
      <point x="172" y="510" type="curve" smooth="yes"/>
      <point x="155" y="510"/>
      <point x="146" y="518"/>
      <point x="146" y="538" type="curve" smooth="yes"/>
      <point x="146" y="555"/>
      <point x="153" y="566"/>
      <point x="173" y="566" type="curve" smooth="yes"/>
      <point x="201" y="566"/>
      <point x="205" y="550"/>
      <point x="205" y="517" type="curve"/>
      <point x="199" y="514"/>
      <point x="187" y="510"/>
    </contour>
  </outline>
</glyph>
<glyph name="Euro" format="2">
  <advance width="550"/>
  <unicode hex="20AC"/>
  <outline>
    <contour>
      <point x="1" y="368" type="line"/>
      <point x="481" y="368" type="line"/>
      <point x="481" y="427" type="line"/>
      <point x="1" y="427" type="line"/>
    </contour>
    <contour>
      <point x="1" y="246" type="line"/>
      <point x="481" y="246" type="line"/>
      <point x="481" y="305" type="line"/>
      <point x="1" y="305" type="line"/>
    </contour>
    <contour>
      <point x="320" y="-13" type="curve" smooth="yes"/>
      <point x="398" y="-13"/>
      <point x="486" y="2"/>
      <point x="531" y="13" type="curve"/>
      <point x="528" y="185" type="line"/>
      <point x="491" y="183"/>
      <point x="426" y="180"/>
      <point x="375" y="180" type="curve" smooth="yes"/>
      <point x="289" y="180"/>
      <point x="269" y="198"/>
      <point x="269" y="331" type="curve" smooth="yes"/>
      <point x="269" y="460"/>
      <point x="288" y="478"/>
      <point x="375" y="478" type="curve" smooth="yes"/>
      <point x="426" y="478"/>
      <point x="490" y="472"/>
      <point x="525" y="468" type="curve"/>
      <point x="531" y="644" type="line"/>
      <point x="476" y="656"/>
      <point x="384" y="670"/>
      <point x="330" y="670" type="curve" smooth="yes"/>
      <point x="102" y="670"/>
      <point x="40" y="590"/>
      <point x="40" y="331" type="curve" smooth="yes"/>
      <point x="40" y="64"/>
      <point x="104" y="-13"/>
    </contour>
  </outline>
</glyph>
<glyph name="trademark" format="2">
  <advance width="592"/>
  <unicode hex="2122"/>
  <outline>
    <contour>
      <point x="266" y="331" type="line"/>
      <point x="348" y="331" type="line"/>
      <point x="348" y="505" type="line"/>
      <point x="386" y="352" type="line"/>
      <point x="441" y="352" type="line"/>
      <point x="475" y="505" type="line"/>
      <point x="475" y="331" type="line"/>
      <point x="557" y="331" type="line"/>
      <point x="557" y="644" type="line"/>
      <point x="455" y="644" type="line"/>
      <point x="410" y="486" type="line"/>
      <point x="369" y="644" type="line"/>
      <point x="266" y="644" type="line"/>
    </contour>
    <contour>
      <point x="112" y="332" type="line"/>
      <point x="200" y="332" type="line"/>
      <point x="200" y="565" type="line"/>
      <point x="241" y="565" type="line"/>
      <point x="241" y="644" type="line"/>
      <point x="41" y="644" type="line"/>
      <point x="41" y="565" type="line"/>
      <point x="112" y="565" type="line"/>
    </contour>
  </outline>
</glyph>
<glyph name="Omega" format="2">
  <advance width="550"/>
  <unicode hex="2126"/>
  <outline>
    <contour>
      <point x="40" y="0" type="line"/>
      <point x="245" y="0" type="line"/>
      <point x="245" y="170" type="line"/>
      <point x="227" y="193"/>
      <point x="203" y="262"/>
      <point x="203" y="366" type="curve" smooth="yes"/>
      <point x="203" y="512"/>
      <point x="207" y="537"/>
      <point x="275" y="537" type="curve" smooth="yes"/>
      <point x="342" y="537"/>
      <point x="346" y="512"/>
      <point x="346" y="366" type="curve" smooth="yes"/>
      <point x="346" y="262"/>
      <point x="322" y="193"/>
      <point x="304" y="170" type="curve"/>
      <point x="304" y="0" type="line"/>
      <point x="510" y="0" type="line"/>
      <point x="510" y="180" type="line"/>
      <point x="440" y="180" type="line"/>
      <point x="461" y="192"/>
      <point x="489" y="253"/>
      <point x="489" y="376" type="curve" smooth="yes"/>
      <point x="489" y="566"/>
      <point x="454" y="670"/>
      <point x="275" y="670" type="curve" smooth="yes"/>
      <point x="96" y="670"/>
      <point x="60" y="566"/>
      <point x="60" y="376" type="curve" smooth="yes"/>
      <point x="60" y="253"/>
      <point x="88" y="192"/>
      <point x="109" y="180" type="curve"/>
      <point x="40" y="180" type="line"/>
    </contour>
  </outline>
</glyph>
<glyph name="partialdiff" format="2">
  <advance width="550"/>
  <unicode hex="2202"/>
  <outline>
    <contour>
      <point x="259" y="-13" type="curve" smooth="yes"/>
      <point x="441" y="-13"/>
      <point x="518" y="102"/>
      <point x="518" y="334" type="curve" smooth="yes"/>
      <point x="518" y="568"/>
      <point x="441" y="690"/>
      <point x="258" y="690" type="curve" smooth="yes"/>
      <point x="192" y="690"/>
      <point x="108" y="660"/>
      <point x="63" y="637" type="curve"/>
      <point x="68" y="475" type="line"/>
      <point x="116" y="494"/>
      <point x="196" y="520"/>
      <point x="239" y="520" type="curve" smooth="yes"/>
      <point x="286" y="520"/>
      <point x="310" y="497"/>
      <point x="318" y="439" type="curve"/>
      <point x="296" y="443"/>
      <point x="261" y="448"/>
      <point x="245" y="448" type="curve" smooth="yes"/>
      <point x="102" y="448"/>
      <point x="18" y="366"/>
      <point x="18" y="221" type="curve" smooth="yes"/>
      <point x="18" y="66"/>
      <point x="104" y="-13"/>
    </contour>
    <contour>
      <point x="259" y="155" type="curve" smooth="yes"/>
      <point x="229" y="155"/>
      <point x="213" y="184"/>
      <point x="213" y="221" type="curve" smooth="yes"/>
      <point x="213" y="254"/>
      <point x="228" y="278"/>
      <point x="260" y="278" type="curve" smooth="yes"/>
      <point x="286" y="278"/>
      <point x="310" y="275"/>
      <point x="323" y="271" type="curve"/>
      <point x="321" y="188"/>
      <point x="296" y="155"/>
    </contour>
  </outline>
</glyph>
<glyph name="Delta" format="2">
  <advance width="550"/>
  <unicode hex="2206"/>
  <outline>
    <contour>
      <point x="12" y="0" type="line"/>
      <point x="542" y="0" type="line"/>
      <point x="538" y="24" type="line"/>
      <point x="432" y="659" type="line"/>
      <point x="109" y="659" type="line"/>
      <point x="16" y="24" type="line"/>
    </contour>
    <contour>
      <point x="256" y="179" type="line"/>
      <point x="263" y="477" type="line"/>
      <point x="280" y="477" type="line"/>
      <point x="295" y="179" type="line"/>
    </contour>
  </outline>
</glyph>
<glyph name="product" format="2">
  <advance width="550"/>
  <unicode hex="220F"/>
  <outline>
    <contour>
      <point x="51" y="-181" type="line"/>
      <point x="241" y="-181" type="line"/>
      <point x="241" y="584" type="line"/>
      <point x="307" y="584" type="line"/>
      <point x="307" y="-181" type="line"/>
      <point x="496" y="-181" type="line"/>
      <point x="496" y="584" type="line"/>
      <point x="545" y="584" type="line"/>
      <point x="545" y="759" type="line"/>
      <point x="5" y="759" type="line"/>
      <point x="5" y="584" type="line"/>
      <point x="51" y="584" type="line"/>
    </contour>
  </outline>
</glyph>
<glyph name="minus" format="2">
  <advance width="550"/>
  <unicode hex="2212"/>
  <outline>
    <contour>
      <point x="62" y="164" type="line"/>
      <point x="488" y="164" type="line"/>
      <point x="488" y="344" type="line"/>
      <point x="62" y="344" type="line"/>
    </contour>
  </outline>
</glyph>
<glyph name="infinity" format="2">
  <advance width="673"/>
  <unicode hex="221E"/>
  <outline>
    <contour>
      <point x="506" y="126" type="curve" smooth="yes"/>
      <point x="604" y="126"/>
      <point x="649" y="209"/>
      <point x="649" y="341" type="curve" smooth="yes"/>
      <point x="649" y="474"/>
      <point x="604" y="557"/>
      <point x="506" y="557" type="curve" smooth="yes"/>
      <point x="395" y="557"/>
      <point x="313" y="465"/>
      <point x="272" y="341" type="curve"/>
      <point x="313" y="218"/>
      <point x="395" y="126"/>
    </contour>
    <contour>
      <point x="167" y="126" type="curve" smooth="yes"/>
      <point x="278" y="126"/>
      <point x="360" y="218"/>
      <point x="401" y="341" type="curve"/>
      <point x="360" y="465"/>
      <point x="278" y="557"/>
      <point x="167" y="557" type="curve" smooth="yes"/>
      <point x="69" y="557"/>
      <point x="24" y="474"/>
      <point x="24" y="341" type="curve" smooth="yes"/>
      <point x="24" y="209"/>
      <point x="69" y="126"/>
    </contour>
    <contour>
      <point x="179" y="266" type="curve" smooth="yes"/>
      <point x="164" y="266"/>
      <point x="137" y="276"/>
      <point x="137" y="341" type="curve" smooth="yes"/>
      <point x="137" y="406"/>
      <point x="163" y="416"/>
      <point x="179" y="416" type="curve" smooth="yes"/>
      <point x="218" y="416"/>
      <point x="242" y="406"/>
      <point x="272" y="341" type="curve"/>
      <point x="242" y="276"/>
      <point x="218" y="266"/>
    </contour>
    <contour>
      <point x="494" y="266" type="curve" smooth="yes"/>
      <point x="455" y="266"/>
      <point x="431" y="276"/>
      <point x="401" y="341" type="curve"/>
      <point x="431" y="406"/>
      <point x="455" y="416"/>
      <point x="494" y="416" type="curve" smooth="yes"/>
      <point x="510" y="416"/>
      <point x="536" y="406"/>
      <point x="536" y="341" type="curve" smooth="yes"/>
      <point x="536" y="276"/>
      <point x="509" y="266"/>
    </contour>
  </outline>
</glyph>
<glyph name="integral" format="2">
  <advance width="550"/>
  <unicode hex="222B"/>
  <outline>
    <contour>
      <point x="201" y="-195" type="curve" smooth="yes"/>
      <point x="331" y="-195"/>
      <point x="356" y="-149"/>
      <point x="366" y="-16" type="curve" smooth="yes"/>
      <point x="398" y="511" type="line" smooth="yes"/>
      <point x="399" y="525"/>
      <point x="408" y="529"/>
      <point x="437" y="530" type="curve"/>
      <point x="447" y="531"/>
      <point x="461" y="531"/>
      <point x="477" y="531" type="curve"/>
      <point x="477" y="678" type="line"/>
      <point x="436" y="683"/>
      <point x="372" y="690"/>
      <point x="349" y="690" type="curve" smooth="yes"/>
      <point x="219" y="690"/>
      <point x="194" y="644"/>
      <point x="184" y="511" type="curve" smooth="yes"/>
      <point x="152" y="-16" type="line"/>
      <point x="152" y="-31"/>
      <point x="139" y="-35"/>
      <point x="103" y="-36" type="curve" smooth="yes"/>
      <point x="93" y="-36"/>
      <point x="84" y="-36"/>
      <point x="73" y="-36" type="curve"/>
      <point x="73" y="-183" type="line"/>
      <point x="114" y="-188"/>
      <point x="178" y="-195"/>
    </contour>
  </outline>
</glyph>
<glyph name="approxequal" format="2">
  <advance width="550"/>
  <unicode hex="2248"/>
  <outline>
    <contour>
      <point x="371" y="261" type="curve" smooth="yes"/>
      <point x="421" y="261"/>
      <point x="466" y="291"/>
      <point x="487" y="314" type="curve"/>
      <point x="479" y="485" type="line"/>
      <point x="452" y="468"/>
      <point x="405" y="446"/>
      <point x="377" y="446" type="curve" smooth="yes"/>
      <point x="329" y="446"/>
      <point x="237" y="490"/>
      <point x="188" y="490" type="curve" smooth="yes"/>
      <point x="135" y="490"/>
      <point x="84" y="460"/>
      <point x="61" y="437" type="curve"/>
      <point x="71" y="265" type="line"/>
      <point x="97" y="282"/>
      <point x="145" y="305"/>
      <point x="180" y="305" type="curve" smooth="yes"/>
      <point x="221" y="305"/>
      <point x="322" y="261"/>
    </contour>
    <contour>
      <point x="371" y="11" type="curve" smooth="yes"/>
      <point x="421" y="11"/>
      <point x="466" y="41"/>
      <point x="487" y="64" type="curve"/>
      <point x="479" y="235" type="line"/>
      <point x="452" y="218"/>
      <point x="405" y="196"/>
      <point x="377" y="196" type="curve" smooth="yes"/>
      <point x="329" y="196"/>
      <point x="237" y="240"/>
      <point x="188" y="240" type="curve" smooth="yes"/>
      <point x="135" y="240"/>
      <point x="84" y="210"/>
      <point x="61" y="187" type="curve"/>
      <point x="71" y="15" type="line"/>
      <point x="97" y="32"/>
      <point x="145" y="55"/>
      <point x="180" y="55" type="curve" smooth="yes"/>
      <point x="221" y="55"/>
      <point x="322" y="11"/>
    </contour>
  </outline>
</glyph>
<glyph name="lozenge" format="2">
  <advance width="550"/>
  <unicode hex="25CA"/>
  <outline>
    <contour>
      <point x="158" y="0" type="line"/>
      <point x="393" y="0" type="line"/>
      <point x="551" y="324" type="line"/>
      <point x="393" y="660" type="line"/>
      <point x="158" y="660" type="line"/>
      <point x="-1" y="324" type="line"/>
    </contour>
    <contour>
      <point x="267" y="174" type="line"/>
      <point x="212" y="324" type="line"/>
      <point x="267" y="486" type="line"/>
      <point x="284" y="486" type="line"/>
      <point x="338" y="324" type="line"/>
      <point x="284" y="174" type="line"/>
    </contour>
  </outline>
</glyph>
<glyph name="keheh-ar.fina" format="2">
  <advance width="1039"/>
  <unicode hex="FB8F"/>
  <outline>
    <contour>
      <point x="938" y="0" type="line"/>
      <point x="1039" y="0" type="line"/>
      <point x="1039" y="188" type="line"/>
      <point x="938" y="188" type="line"/>
    </contour>
    <component base="keheh-ar"/>
    <component base="connection_r" xOffset="989"/>
  </outline>
</glyph>
<glyph name="gaf-ar.fina" format="2">
  <advance width="1039"/>
  <unicode hex="FB93"/>
  <anchor x="536" y="-100" name="bottom"/>
  <anchor x="318" y="892" name="top"/>
  <outline>
    <contour>
      <point x="283" y="533" type="line"/>
      <point x="332" y="628"/>
      <point x="360" y="677"/>
      <point x="413" y="761" type="curve"/>
      <point x="317" y="818" type="line"/>
      <point x="289" y="777"/>
      <point x="253" y="711"/>
      <point x="214" y="632" type="curve"/>
    </contour>
    <component base="keheh-ar.fina"/>
  </outline>
</glyph>
<glyph name="gaf-ar.init" format="2">
  <advance width="720"/>
  <unicode hex="FB94"/>
  <anchor x="259" y="-100" name="bottom"/>
  <anchor x="192" y="919" name="top"/>
  <outline>
    <contour>
      <point x="0" y="532" type="line"/>
      <point x="49" y="627"/>
      <point x="77" y="676"/>
      <point x="130" y="760" type="curve"/>
      <point x="34" y="817" type="line"/>
      <point x="6" y="776"/>
      <point x="-30" y="710"/>
      <point x="-69" y="631" type="curve"/>
    </contour>
    <component base="keheh-ar.init"/>
  </outline>
</glyph>
<glyph name="noonghunna-ar.fina" format="2">
  <advance width="794"/>
  <unicode hex="FB9F"/>
  <outline>
    <contour>
      <point x="692" y="0" type="line"/>
      <point x="794" y="0" type="line"/>
      <point x="794" y="188" type="line"/>
      <point x="692" y="188" type="line"/>
    </contour>
    <component base="noonghunna-ar"/>
    <component base="connection_r" xOffset="744"/>
  </outline>
</glyph>
<glyph name="hehgoal-ar.fina" format="2">
  <advance width="666"/>
  <unicode hex="FBA7"/>
  <anchor x="328" y="-100" name="bottom"/>
  <anchor x="328" y="573" name="top"/>
  <outline>
    <contour>
      <point x="40" y="0" type="line"/>
      <point x="264" y="0" type="line"/>
      <point x="264" y="252" type="line" smooth="yes"/>
      <point x="264" y="303"/>
      <point x="275" y="317"/>
      <point x="328" y="317" type="curve" smooth="yes"/>
      <point x="475" y="317" type="line"/>
      <point x="361" y="435" type="line"/>
      <point x="361" y="0" type="line"/>
      <point x="666" y="0" type="line"/>
      <point x="666" y="188" type="line"/>
      <point x="536" y="188" type="line"/>
      <point x="585" y="144" type="line"/>
      <point x="585" y="505" type="line"/>
      <point x="328" y="505" type="line" smooth="yes"/>
      <point x="163" y="505"/>
      <point x="40" y="404"/>
      <point x="40" y="252" type="curve" smooth="yes"/>
    </contour>
    <component base="connection_r" xOffset="616"/>
  </outline>
</glyph>
<glyph name="hehgoal-ar.medi" format="2">
  <advance width="807"/>
  <unicode hex="FBA9"/>
  <anchor x="396" y="-395" name="bottom"/>
  <anchor x="396" y="340" name="top"/>
  <outline>
    <contour>
      <point x="686" y="-295" type="curve"/>
      <point x="686" y="101" type="line"/>
      <point x="585" y="0" type="line"/>
      <point x="807" y="0" type="line"/>
      <point x="807" y="188" type="line"/>
      <point x="462" y="188" type="line"/>
      <point x="462" y="-188" type="line"/>
      <point x="525" y="-121" type="line"/>
      <point x="465" y="-127"/>
      <point x="452" y="-128"/>
      <point x="442" y="-128" type="curve" smooth="yes"/>
      <point x="363" y="-128"/>
      <point x="346" y="-68"/>
      <point x="339" y="188" type="curve"/>
      <point x="0" y="188" type="line"/>
      <point x="0" y="0" type="line"/>
      <point x="216" y="0" type="line"/>
      <point x="119" y="85" type="line"/>
      <point x="119" y="-245"/>
      <point x="218" y="-316"/>
      <point x="451" y="-316" type="curve" smooth="yes"/>
      <point x="526" y="-316"/>
      <point x="606" y="-309"/>
    </contour>
    <component base="connection_r" xOffset="757"/>
    <component base="connection_l"/>
  </outline>
</glyph>
<glyph name="hehDoachashmee-ar.medi" format="2">
  <advance width="929"/>
  <unicode hex="FBAD"/>
  <outline>
    <contour>
      <point x="0" y="0" type="line"/>
      <point x="31" y="0" type="line"/>
      <point x="31" y="188" type="line"/>
      <point x="0" y="188" type="line"/>
    </contour>
    <component base="hehDoachashmee-ar.fina" xOffset="-9"/>
    <component base="connection_l"/>
  </outline>
</glyph>
<glyph name="yehbarree-ar.fina" format="2">
  <advance width="783"/>
  <unicode hex="FBAF"/>
  <anchor x="370" y="-347" name="bottom"/>
  <anchor x="197" y="250" name="top"/>
  <outline>
    <contour>
      <point x="359" y="-276" type="curve" smooth="yes"/>
      <point x="680" y="-276" type="line"/>
      <point x="680" y="-88" type="line"/>
      <point x="359" y="-88" type="line" smooth="yes"/>
      <point x="324" y="-88"/>
      <point x="264" y="-103"/>
      <point x="264" y="-8" type="curve" smooth="yes"/>
      <point x="264" y="101" type="line"/>
      <point x="163" y="0" type="line"/>
      <point x="783" y="0" type="line"/>
      <point x="783" y="188" type="line"/>
      <point x="174" y="188" type="line"/>
      <point x="40" y="76" type="line"/>
      <point x="40" y="-8" type="line" smooth="yes"/>
      <point x="40" y="-179"/>
      <point x="154" y="-276"/>
    </contour>
    <component base="connection_r" xOffset="733"/>
  </outline>
</glyph>
<glyph name="threedotsupabove-ar" format="2">
  <advance width="495"/>
  <unicode hex="FBB6"/>
  <anchor x="247" y="517" name="_top"/>
  <anchor x="247" y="929" name="top"/>
  <outline>
    <contour>
      <point x="154" y="703" type="line"/>
      <point x="341" y="703" type="line"/>
      <point x="341" y="829" type="line"/>
      <point x="154" y="829" type="line"/>
    </contour>
    <component base="twodotshorizontalabove-ar"/>
  </outline>
</glyph>
<glyph name="threedotsdownabove-ar" format="2">
  <advance width="495"/>
  <unicode hex="FBB8"/>
  <outline>
    <contour>
      <point x="154" y="421" type="line"/>
      <point x="341" y="421" type="line"/>
      <point x="341" y="547" type="line"/>
      <point x="154" y="547" type="line"/>
    </contour>
    <component base="twodotshorizontalabove-ar" yOffset="63"/>
  </outline>
</glyph>
<glyph name="lam_alefMaksura-ar.fina" format="2">
  <advance width="1295"/>
  <unicode hex="FC86"/>
  <outline>
    <contour>
      <point x="1194" y="0" type="line"/>
      <point x="1295" y="0" type="line"/>
      <point x="1295" y="188" type="line"/>
      <point x="1194" y="188" type="line"/>
    </contour>
    <component base="lam_alefMaksura-ar"/>
    <component base="connection_r" xOffset="1245"/>
  </outline>
</glyph>
<glyph name="sad_alefMaksura-ar" format="2">
  <advance width="1834"/>
  <unicode hex="FD05"/>
  <anchor x="1425" y="-100" name="bottom_1"/>
  <anchor x="514" y="-300" name="bottom_2"/>
  <anchor x="952" y="0" name="caret_1"/>
  <anchor x="1425" y="573" name="top_1"/>
  <anchor x="169" y="264" name="top_2"/>
  <outline>
    <contour>
      <point x="393" y="-248" type="curve" smooth="yes"/>
      <point x="676" y="-248" type="line" smooth="yes"/>
      <point x="858" y="-248"/>
      <point x="987" y="-140"/>
      <point x="987" y="14" type="curve" smooth="yes"/>
      <point x="987" y="135"/>
      <point x="907" y="205"/>
      <point x="728" y="265" type="curve" smooth="yes"/>
      <point x="694" y="277"/>
      <point x="619" y="293"/>
      <point x="619" y="306" type="curve" smooth="yes"/>
      <point x="619" y="311"/>
      <point x="623" y="317"/>
      <point x="669" y="317" type="curve"/>
      <point x="675" y="505" type="line"/>
      <point x="510" y="505"/>
      <point x="395" y="435"/>
      <point x="395" y="294" type="curve" smooth="yes"/>
      <point x="395" y="194"/>
      <point x="452" y="153"/>
      <point x="658" y="86" type="curve" smooth="yes"/>
      <point x="745" y="58"/>
      <point x="763" y="52"/>
      <point x="763" y="11" type="curve" smooth="yes"/>
      <point x="763" y="-35"/>
      <point x="741" y="-60"/>
      <point x="676" y="-60" type="curve" smooth="yes"/>
      <point x="393" y="-60" type="line" smooth="yes"/>
      <point x="311" y="-60"/>
      <point x="264" y="-22"/>
      <point x="264" y="31" type="curve" smooth="yes"/>
      <point x="264" y="52"/>
      <point x="271" y="105"/>
      <point x="283" y="181" type="curve"/>
      <point x="62" y="210" type="line"/>
      <point x="48" y="122"/>
      <point x="40" y="62"/>
      <point x="40" y="27" type="curve" smooth="yes"/>
      <point x="40" y="-124"/>
      <point x="193" y="-248"/>
    </contour>
    <contour>
      <point x="669" y="317" type="line"/>
      <point x="1047" y="317" type="line"/>
      <point x="1047" y="505" type="line"/>
      <point x="675" y="505" type="line"/>
    </contour>
    <contour>
      <point x="1047" y="0" type="line"/>
      <point x="1271" y="0" type="line"/>
      <point x="1271" y="505" type="line"/>
      <point x="1047" y="505" type="line"/>
    </contour>
    <contour>
      <point x="1271" y="0" type="line"/>
      <point x="1774" y="0" type="line"/>
      <point x="1774" y="208" type="line" smooth="yes"/>
      <point x="1774" y="394"/>
      <point x="1666" y="505"/>
      <point x="1506" y="505" type="curve" smooth="yes"/>
      <point x="1338" y="505"/>
      <point x="1336" y="455"/>
      <point x="1132" y="208" type="curve"/>
      <point x="1170" y="71" type="line"/>
      <point x="1203" y="111"/>
      <point x="1331" y="317"/>
      <point x="1470" y="317" type="curve" smooth="yes"/>
      <point x="1511" y="317"/>
      <point x="1550" y="299"/>
      <point x="1550" y="208" type="curve" smooth="yes"/>
      <point x="1550" y="38" type="line"/>
      <point x="1729" y="188" type="line"/>
      <point x="1271" y="188" type="line"/>
    </contour>
  </outline>
</glyph>
<glyph name="seen_reh-ar" format="2">
  <advance width="1431"/>
  <unicode hex="FD0E"/>
  <anchor x="932" y="-100" name="bottom_1"/>
  <anchor x="126" y="-350" name="bottom_2"/>
  <anchor x="715.5" y="0" name="caret_1"/>
  <anchor x="932" y="573" name="top_1"/>
  <anchor x="178" y="573" name="top_2"/>
  <outline>
    <contour>
      <point x="1078" y="0" type="curve" smooth="yes"/>
      <point x="1371" y="0" type="line"/>
      <point x="1371" y="270" type="line" smooth="yes"/>
      <point x="1371" y="314"/>
      <point x="1354" y="430"/>
      <point x="1341" y="505" type="curve"/>
      <point x="1120" y="474" type="line"/>
      <point x="1135" y="386"/>
      <point x="1147" y="296"/>
      <point x="1147" y="270" type="curve" smooth="yes"/>
      <point x="1147" y="75" type="line"/>
      <point x="1281" y="188" type="line"/>
      <point x="1078" y="188" type="line" smooth="yes"/>
      <point x="1054" y="188"/>
      <point x="1029" y="197"/>
      <point x="1011" y="213" type="curve"/>
      <point x="879" y="76" type="line"/>
      <point x="933" y="28"/>
      <point x="1007" y="0"/>
    </contour>
    <contour>
      <point x="289" y="216" type="line"/>
      <point x="491" y="216" type="line"/>
      <point x="491" y="404" type="line"/>
      <point x="289" y="404" type="line"/>
    </contour>
    <contour>
      <point x="491" y="0" type="line"/>
      <point x="715" y="0" type="line"/>
      <point x="715" y="505" type="line"/>
      <point x="491" y="505" type="line"/>
    </contour>
    <contour>
      <point x="715" y="0" type="line"/>
      <point x="746" y="0" type="line" smooth="yes"/>
      <point x="945" y="0"/>
      <point x="1043" y="109"/>
      <point x="1043" y="325" type="curve" smooth="yes"/>
      <point x="1043" y="450" type="line"/>
      <point x="819" y="450" type="line"/>
      <point x="819" y="325" type="line" smooth="yes"/>
      <point x="819" y="202"/>
      <point x="803" y="188"/>
      <point x="746" y="188" type="curve" smooth="yes"/>
      <point x="715" y="188" type="line"/>
    </contour>
    <component base="reh-ar"/>
  </outline>
</glyph>
<glyph name="parenleft-ar" format="2">
  <advance width="326"/>
  <unicode hex="FD3E"/>
  <outline>
    <contour>
      <point x="107" y="-120" type="curve"/>
      <point x="310" y="-120" type="line"/>
      <point x="278" y="-21"/>
      <point x="235" y="169"/>
      <point x="235" y="329" type="curve" smooth="yes"/>
      <point x="235" y="487"/>
      <point x="278" y="665"/>
      <point x="310" y="755" type="curve"/>
      <point x="107" y="755" type="line"/>
      <point x="64" y="684"/>
      <point x="8" y="519"/>
      <point x="8" y="329" type="curve" smooth="yes"/>
      <point x="8" y="139"/>
      <point x="64" y="-39"/>
    </contour>
  </outline>
</glyph>
<glyph name="alef-ar.fina" format="2">
  <advance width="405"/>
  <unicode hex="FE8E"/>
  <outline>
    <contour>
      <point x="304" y="0" type="line"/>
      <point x="405" y="0" type="line"/>
      <point x="405" y="188" type="line"/>
      <point x="304" y="188" type="line"/>
    </contour>
    <component base="alef-ar"/>
    <component base="connection_r" xOffset="355"/>
  </outline>
</glyph>
<glyph name="hah-ar.fina" format="2">
  <advance width="702"/>
  <unicode hex="FEA2"/>
  <outline>
    <contour>
      <point x="601" y="0" type="line"/>
      <point x="702" y="0" type="line"/>
      <point x="702" y="188" type="line"/>
      <point x="601" y="188" type="line"/>
    </contour>
    <component base="hah-ar"/>
    <component base="connection_r" xOffset="652"/>
  </outline>
</glyph>
<glyph name="hah-ar.medi" format="2">
  <advance width="657"/>
  <unicode hex="FEA4"/>
  <outline>
    <contour>
      <point x="556" y="0" type="line"/>
      <point x="657" y="0" type="line"/>
      <point x="657" y="188" type="line"/>
      <point x="556" y="188" type="line"/>
    </contour>
    <component base="hah-ar.init"/>
    <component base="connection_r" xOffset="607"/>
  </outline>
</glyph>
<glyph name="seen-ar.fina" format="2">
  <advance width="1450"/>
  <unicode hex="FEB2"/>
  <outline>
    <contour>
      <point x="1349" y="0" type="line"/>
      <point x="1450" y="0" type="line"/>
      <point x="1450" y="188" type="line"/>
      <point x="1349" y="188" type="line"/>
    </contour>
    <component base="seen-ar"/>
    <component base="connection_r" xOffset="1400"/>
  </outline>
</glyph>
<glyph name="seen-ar.medi" format="2">
  <advance width="1082"/>
  <unicode hex="FEB4"/>
  <outline>
    <contour>
      <point x="981" y="0" type="line"/>
      <point x="1082" y="0" type="line"/>
      <point x="1082" y="188" type="line"/>
      <point x="981" y="188" type="line"/>
    </contour>
    <component base="seen-ar.init"/>
    <component base="connection_r" xOffset="1032"/>
  </outline>
</glyph>
<glyph name="sad-ar.medi" format="2">
  <advance width="881"/>
  <unicode hex="FEBC"/>
  <outline>
    <contour>
      <point x="780" y="0" type="line"/>
      <point x="881" y="0" type="line"/>
      <point x="881" y="188" type="line"/>
      <point x="780" y="188" type="line"/>
    </contour>
    <component base="sad-ar.init"/>
    <component base="connection_r" xOffset="831"/>
  </outline>
</glyph>
<glyph name="ain-ar.fina" format="2">
  <advance width="712"/>
  <unicode hex="FECA"/>
  <anchor x="362" y="-400" name="bottom"/>
  <anchor x="362" y="573" name="top"/>
  <outline>
    <contour>
      <point x="362" y="-332" type="curve" smooth="yes"/>
      <point x="418" y="-332"/>
      <point x="474" y="-324"/>
      <point x="531" y="-312" type="curve"/>
      <point x="493" y="-103" type="line"/>
      <point x="584" y="-122" type="line"/>
      <point x="478" y="-138"/>
      <point x="406" y="-144"/>
      <point x="362" y="-144" type="curve" smooth="yes"/>
      <point x="299" y="-144"/>
      <point x="266" y="-120"/>
      <point x="266" y="-78" type="curve" smooth="yes"/>
      <point x="266" y="-30"/>
      <point x="293" y="-6"/>
      <point x="321" y="7" type="curve"/>
      <point x="326" y="9"/>
      <point x="336" y="12"/>
      <point x="348" y="16" type="curve"/>
      <point x="365" y="21"/>
      <point x="388" y="28"/>
      <point x="404" y="36" type="curve"/>
      <point x="569" y="107"/>
      <point x="675" y="268"/>
      <point x="675" y="372" type="curve" smooth="yes"/>
      <point x="675" y="424" type="line"/>
      <point x="589" y="476"/>
      <point x="452" y="505"/>
      <point x="364" y="505" type="curve" smooth="yes"/>
      <point x="277" y="505"/>
      <point x="140" y="476"/>
      <point x="54" y="424" type="curve"/>
      <point x="54" y="372" type="line" smooth="yes"/>
      <point x="54" y="235"/>
      <point x="238" y="0"/>
      <point x="499" y="0" type="curve" smooth="yes"/>
      <point x="712" y="0" type="line"/>
      <point x="712" y="188" type="line"/>
      <point x="499" y="188" type="line" smooth="yes"/>
      <point x="404" y="188"/>
      <point x="278" y="297"/>
      <point x="278" y="372" type="curve" smooth="yes"/>
      <point x="278" y="443" type="line"/>
      <point x="178" y="268" type="line"/>
      <point x="235" y="298"/>
      <point x="309" y="317"/>
      <point x="364" y="317" type="curve" smooth="yes"/>
      <point x="420" y="317"/>
      <point x="494" y="298"/>
      <point x="551" y="268" type="curve"/>
      <point x="451" y="443" type="line"/>
      <point x="451" y="372" type="line" smooth="yes"/>
      <point x="451" y="297"/>
      <point x="325" y="188"/>
      <point x="230" y="188" type="curve"/>
      <point x="362" y="188" type="line"/>
      <point x="173" y="188"/>
      <point x="40" y="87"/>
      <point x="40" y="-72" type="curve" smooth="yes"/>
      <point x="40" y="-231"/>
      <point x="173" y="-332"/>
    </contour>
    <component base="connection_r" xOffset="662"/>
  </outline>
</glyph>
<glyph name="ain-ar.init" format="2">
  <advance width="556"/>
  <unicode hex="FECB"/>
  <anchor x="280" y="-100" name="bottom"/>
  <anchor x="280" y="573" name="top"/>
  <outline>
    <contour>
      <point x="140" y="37" type="curve"/>
      <point x="308" y="161" type="line"/>
      <point x="286" y="185"/>
      <point x="277" y="207"/>
      <point x="277" y="234" type="curve" smooth="yes"/>
      <point x="277" y="282"/>
      <point x="312" y="317"/>
      <point x="359" y="317" type="curve" smooth="yes"/>
      <point x="377" y="317"/>
      <point x="392" y="313"/>
      <point x="407" y="303" type="curve"/>
      <point x="480" y="484" type="line"/>
      <point x="443" y="497"/>
      <point x="399" y="505"/>
      <point x="359" y="505" type="curve" smooth="yes"/>
      <point x="190" y="505"/>
      <point x="53" y="387"/>
      <point x="53" y="234" type="curve" smooth="yes"/>
      <point x="53" y="159"/>
      <point x="79" y="105"/>
    </contour>
    <contour>
      <point x="0" y="0" type="line"/>
      <point x="486" y="0" type="line"/>
      <point x="486" y="188" type="line"/>
      <point x="0" y="188" type="line"/>
    </contour>
    <component base="connection_l"/>
  </outline>
</glyph>
<glyph name="ain-ar.medi" format="2">
  <advance width="721"/>
  <unicode hex="FECC"/>
  <anchor x="361" y="-100" name="bottom"/>
  <anchor x="361" y="573" name="top"/>
  <outline>
    <contour>
      <point x="0" y="0" type="line"/>
      <point x="229" y="0" type="line" smooth="yes"/>
      <point x="490" y="0"/>
      <point x="674" y="235"/>
      <point x="674" y="372" type="curve" smooth="yes"/>
      <point x="674" y="424" type="line"/>
      <point x="588" y="476"/>
      <point x="451" y="505"/>
      <point x="363" y="505" type="curve" smooth="yes"/>
      <point x="276" y="505"/>
      <point x="139" y="476"/>
      <point x="53" y="424" type="curve"/>
      <point x="53" y="372" type="line" smooth="yes"/>
      <point x="53" y="235"/>
      <point x="237" y="0"/>
      <point x="498" y="0" type="curve" smooth="yes"/>
      <point x="721" y="0" type="line"/>
      <point x="721" y="188" type="line"/>
      <point x="498" y="188" type="line" smooth="yes"/>
      <point x="403" y="188"/>
      <point x="277" y="297"/>
      <point x="277" y="372" type="curve" smooth="yes"/>
      <point x="277" y="443" type="line"/>
      <point x="177" y="268" type="line"/>
      <point x="234" y="298"/>
      <point x="308" y="317"/>
      <point x="363" y="317" type="curve" smooth="yes"/>
      <point x="419" y="317"/>
      <point x="493" y="298"/>
      <point x="550" y="268" type="curve"/>
      <point x="450" y="443" type="line"/>
      <point x="450" y="372" type="line" smooth="yes"/>
      <point x="450" y="297"/>
      <point x="324" y="188"/>
      <point x="229" y="188" type="curve" smooth="yes"/>
      <point x="0" y="188" type="line"/>
    </contour>
    <component base="connection_l"/>
    <component base="connection_r" xOffset="671"/>
  </outline>
</glyph>
<glyph name="lam-ar.init" format="2">
  <advance width="385"/>
  <unicode hex="FEDF"/>
  <anchor x="213" y="-100" name="bottom"/>
  <anchor x="213" y="780" name="top"/>
  <outline>
    <contour>
      <point x="101" y="0" type="line"/>
      <point x="325" y="0" type="line"/>
      <point x="325" y="690" type="line"/>
      <point x="101" y="690" type="line"/>
    </contour>
    <contour>
      <point x="0" y="0" type="line"/>
      <point x="101" y="0" type="line"/>
      <point x="101" y="188" type="line"/>
      <point x="0" y="188" type="line"/>
    </contour>
    <component base="connection_l"/>
  </outline>
</glyph>
<glyph name="meem-ar.init" format="2">
  <advance width="691"/>
  <unicode hex="FEE3"/>
  <anchor x="318" y="-100" name="bottom"/>
  <anchor x="318" y="573" name="top"/>
  <outline>
    <contour>
      <point x="-1" y="0" type="line"/>
      <point x="631" y="0" type="line"/>
      <point x="631" y="250" type="line" smooth="yes"/>
      <point x="631" y="442"/>
      <point x="533" y="510"/>
      <point x="338" y="510" type="curve" smooth="yes"/>
      <point x="246" y="510"/>
      <point x="166" y="495"/>
      <point x="131" y="483" type="curve"/>
      <point x="118" y="438"/>
      <point x="100" y="343"/>
      <point x="100" y="243" type="curve" smooth="yes"/>
      <point x="100" y="151"/>
      <point x="115" y="65"/>
      <point x="126" y="32" type="curve"/>
      <point x="339" y="91" type="line"/>
      <point x="334" y="106"/>
      <point x="324" y="196"/>
      <point x="324" y="243" type="curve" smooth="yes"/>
      <point x="324" y="304"/>
      <point x="334" y="390"/>
      <point x="346" y="431" type="curve"/>
      <point x="204" y="305" type="line"/>
      <point x="233" y="315"/>
      <point x="285" y="322"/>
      <point x="338" y="322" type="curve" smooth="yes"/>
      <point x="395" y="322"/>
      <point x="407" y="310"/>
      <point x="407" y="253" type="curve" smooth="yes"/>
      <point x="407" y="119" type="line"/>
      <point x="473" y="188" type="line"/>
      <point x="-1" y="188" type="line"/>
    </contour>
    <component base="connection_l"/>
  </outline>
</glyph>
<glyph name="heh-ar.fina" format="2">
  <advance width="686"/>
  <unicode hex="FEEA"/>
  <anchor x="328" y="-100" name="bottom"/>
  <anchor x="328" y="573" name="top"/>
  <outline>
    <contour>
      <point x="328" y="0" type="curve" smooth="yes"/>
      <point x="686" y="0" type="line"/>
      <point x="686" y="188" type="line"/>
      <point x="328" y="188" type="line" smooth="yes"/>
      <point x="284" y="188"/>
      <point x="264" y="186"/>
      <point x="264" y="252" type="curve" smooth="yes"/>
      <point x="264" y="298"/>
      <point x="284" y="317"/>
      <point x="328" y="317" type="curve" smooth="yes"/>
      <point x="383" y="317" type="line"/>
      <point x="361" y="336" type="line"/>
      <point x="361" y="0" type="line"/>
      <point x="585" y="0" type="line"/>
      <point x="585" y="505" type="line"/>
      <point x="328" y="505" type="line" smooth="yes"/>
      <point x="163" y="505"/>
      <point x="40" y="404"/>
      <point x="40" y="252" type="curve" smooth="yes"/>
      <point x="40" y="80"/>
      <point x="163" y="0"/>
    </contour>
    <component base="connection_r" xOffset="636"/>
  </outline>
</glyph>
<glyph name="alefMaksura-ar.fina" format="2">
  <advance width="1014"/>
  <unicode hex="FEF0"/>
  <anchor x="514" y="-300" name="bottom"/>
  <anchor x="169" y="264" name="top"/>
  <outline>
    <contour>
      <point x="393" y="-248" type="curve" smooth="yes"/>
      <point x="676" y="-248" type="line" smooth="yes"/>
      <point x="858" y="-248"/>
      <point x="987" y="-140"/>
      <point x="987" y="14" type="curve" smooth="yes"/>
      <point x="987" y="57" type="line"/>
      <point x="763" y="57" type="line"/>
      <point x="763" y="11" type="line" smooth="yes"/>
      <point x="763" y="-35"/>
      <point x="741" y="-60"/>
      <point x="676" y="-60" type="curve" smooth="yes"/>
      <point x="393" y="-60" type="line" smooth="yes"/>
      <point x="311" y="-60"/>
      <point x="264" y="-22"/>
      <point x="264" y="31" type="curve" smooth="yes"/>
      <point x="264" y="52"/>
      <point x="271" y="105"/>
      <point x="283" y="181" type="curve"/>
      <point x="62" y="210" type="line"/>
      <point x="48" y="122"/>
      <point x="40" y="62"/>
      <point x="40" y="27" type="curve" smooth="yes"/>
      <point x="40" y="-124"/>
      <point x="193" y="-248"/>
    </contour>
    <contour>
      <point x="742" y="0" type="curve" smooth="yes"/>
      <point x="1014" y="0" type="line"/>
      <point x="1014" y="188" type="line"/>
      <point x="742" y="188" type="line" smooth="yes"/>
      <point x="698" y="188"/>
      <point x="686" y="192"/>
      <point x="650" y="217" type="curve"/>
      <point x="522" y="63" type="line"/>
      <point x="582" y="20"/>
      <point x="654" y="0"/>
    </contour>
    <component base="connection_r" xOffset="964"/>
  </outline>
</glyph>
<glyph name="lam_alef-ar" format="2">
  <advance width="766"/>
  <unicode hex="FEFB"/>
  <anchor x="594" y="-60" name="bottom_1"/>
  <anchor x="258" y="-60" name="bottom_2"/>
  <anchor x="432" y="0" name="caret_1"/>
  <anchor x="594" y="737" name="top_1"/>
  <anchor x="258" y="602" name="top_2"/>
  <outline>
    <contour>
      <point x="40" y="0" type="line"/>
      <point x="706" y="0" type="line"/>
      <point x="706" y="690" type="line"/>
      <point x="482" y="690" type="line"/>
      <point x="482" y="90" type="line"/>
      <point x="579" y="188" type="line"/>
      <point x="40" y="188" type="line"/>
    </contour>
    <contour>
      <point x="146" y="188" type="line"/>
      <point x="370" y="188" type="line"/>
      <point x="370" y="553" type="line"/>
      <point x="146" y="553" type="line"/>
    </contour>
  </outline>
</glyph>
<glyph name="lam_alef-ar.fina" format="2">
  <advance width="807"/>
  <unicode hex="FEFC"/>
  <outline>
    <contour>
      <point x="706" y="0" type="line"/>
      <point x="807" y="0" type="line"/>
      <point x="807" y="188" type="line"/>
      <point x="706" y="188" type="line"/>
    </contour>
    <component base="lam_alef-ar"/>
    <component base="connection_r" xOffset="757"/>
  </outline>
</glyph>
<glyph name="acute.cap" format="2">
  <advance width="833"/>
  <outline>
    <contour>
      <point x="90" y="713" type="line"/>
      <point x="266" y="713" type="line"/>
      <point x="375" y="849" type="line"/>
      <point x="133" y="849" type="line"/>
    </contour>
  </outline>
</glyph>
<glyph name="alefMaksura_reh-ar.fina.alt" format="2">
  <advance width="866"/>
  <anchor x="603" y="-60" name="bottom_1"/>
  <anchor x="126" y="-350" name="bottom_2"/>
  <anchor x="433" y="0" name="caret_1"/>
  <anchor x="603" y="573" name="top_1"/>
  <anchor x="178" y="573" name="top_2"/>
  <outline>
    <contour>
      <point x="491" y="0" type="line"/>
      <point x="866" y="0" type="line"/>
      <point x="866" y="188" type="line"/>
      <point x="569" y="188" type="line"/>
      <point x="715" y="66" type="line"/>
      <point x="715" y="505" type="line"/>
      <point x="491" y="505" type="line"/>
    </contour>
    <contour>
      <point x="289" y="216" type="line"/>
      <point x="491" y="216" type="line"/>
      <point x="491" y="404" type="line"/>
      <point x="289" y="404" type="line"/>
    </contour>
    <component base="reh-ar"/>
    <component base="connection_r" xOffset="816"/>
  </outline>
</glyph>
<glyph name="behDotless-ar.init" format="2">
  <advance width="385"/>
  <anchor x="213" y="-60" name="bottom"/>
  <anchor x="213" y="573" name="top"/>
  <outline>
    <contour>
      <point x="0" y="0" type="line"/>
      <point x="325" y="0" type="line"/>
      <point x="325" y="505" type="line"/>
      <point x="101" y="505" type="line"/>
      <point x="101" y="66" type="line"/>
      <point x="247" y="188" type="line"/>
      <point x="0" y="188" type="line"/>
    </contour>
    <component base="connection_l"/>
  </outline>
</glyph>
<glyph name="behDotless-ar.medi" format="2">
  <advance width="426"/>
  <outline>
    <contour>
      <point x="325" y="0" type="line"/>
      <point x="426" y="0" type="line"/>
      <point x="426" y="188" type="line"/>
      <point x="325" y="188" type="line"/>
    </contour>
    <component base="behDotless-ar.init"/>
    <component base="connection_r" xOffset="376"/>
  </outline>
</glyph>
<glyph name="braceright.cap" format="2">
  <advance width="360"/>
  <outline>
    <contour>
      <point x="16" y="790" type="curve"/>
      <point x="16" y="610" type="line"/>
      <point x="77" y="605"/>
      <point x="87" y="593"/>
      <point x="87" y="543" type="curve" smooth="yes"/>
      <point x="87" y="526"/>
      <point x="86" y="509"/>
      <point x="85" y="492" type="curve"/>
      <point x="85" y="475"/>
      <point x="84" y="460"/>
      <point x="84" y="445" type="curve" smooth="yes"/>
      <point x="84" y="386"/>
      <point x="97" y="359"/>
      <point x="140" y="335" type="curve"/>
      <point x="97" y="311"/>
      <point x="84" y="289"/>
      <point x="84" y="219" type="curve" smooth="yes"/>
      <point x="84" y="205"/>
      <point x="85" y="193"/>
      <point x="85" y="181" type="curve"/>
      <point x="86" y="168"/>
      <point x="87" y="155"/>
      <point x="87" y="138" type="curve" smooth="yes"/>
      <point x="87" y="88"/>
      <point x="77" y="80"/>
      <point x="16" y="75" type="curve"/>
      <point x="16" y="-105" type="line"/>
      <point x="194" y="-105"/>
      <point x="314" y="-92"/>
      <point x="314" y="70" type="curve" smooth="yes"/>
      <point x="314" y="90"/>
      <point x="310" y="124"/>
      <point x="307" y="156" type="curve" smooth="yes"/>
      <point x="304" y="184"/>
      <point x="301" y="210"/>
      <point x="301" y="223" type="curve" smooth="yes"/>
      <point x="301" y="239"/>
      <point x="316" y="252"/>
      <point x="345" y="257" type="curve"/>
      <point x="345" y="426" type="line"/>
      <point x="316" y="432"/>
      <point x="301" y="446"/>
      <point x="301" y="466" type="curve" smooth="yes"/>
      <point x="301" y="477"/>
      <point x="304" y="501"/>
      <point x="306" y="527" type="curve" smooth="yes"/>
      <point x="310" y="560"/>
      <point x="314" y="596"/>
      <point x="314" y="618" type="curve" smooth="yes"/>
      <point x="314" y="773"/>
      <point x="196" y="790"/>
    </contour>
  </outline>
</glyph>
<glyph name="bracketright.cap" format="2">
  <advance width="339"/>
  <outline>
    <contour>
      <point x="306" y="-101" type="line"/>
      <point x="306" y="771" type="line"/>
      <point x="17" y="771" type="line"/>
      <point x="17" y="590" type="line"/>
      <point x="81" y="590" type="line"/>
      <point x="81" y="80" type="line"/>
      <point x="17" y="80" type="line"/>
      <point x="17" y="-101" type="line"/>
    </contour>
  </outline>
</glyph>
<glyph name="breve.cap" format="2">
  <advance width="406"/>
  <outline>
    <contour>
      <point x="204" y="712" type="curve" smooth="yes"/>
      <point x="329" y="712"/>
      <point x="364" y="787"/>
      <point x="364" y="862" type="curve"/>
      <point x="248" y="872" type="line"/>
      <point x="245" y="846"/>
      <point x="234" y="827"/>
      <point x="204" y="827" type="curve" smooth="yes"/>
      <point x="174" y="827"/>
      <point x="163" y="846"/>
      <point x="160" y="872" type="curve"/>
      <point x="44" y="862" type="line"/>
      <point x="44" y="787"/>
      <point x="79" y="712"/>
    </contour>
  </outline>
</glyph>
<glyph name="caron.cap" format="2">
  <advance width="833"/>
  <outline>
    <contour>
      <point x="329" y="712" type="line"/>
      <point x="481" y="712" type="line"/>
      <point x="593" y="848" type="line"/>
      <point x="424" y="848" type="line"/>
      <point x="411" y="786" type="line"/>
      <point x="397" y="848" type="line"/>
      <point x="228" y="848" type="line"/>
    </contour>
  </outline>
</glyph>
<glyph name="cent.rvrn" format="2">
  <advance width="550"/>
  <outline>
    <contour>
      <point x="41" y="254" type="curve" smooth="yes"/>
      <point x="41" y="107"/>
      <point x="93" y="46"/>
      <point x="248" y="42" type="curve"/>
      <point x="248" y="-86" type="line"/>
      <point x="308" y="-86" type="line"/>
      <point x="308" y="43" type="line"/>
      <point x="390" y="46"/>
      <point x="464" y="56"/>
      <point x="502" y="64" type="curve"/>
      <point x="496" y="212" type="line"/>
      <point x="451" y="210"/>
      <point x="370" y="208"/>
      <point x="311" y="208" type="curve" smooth="yes"/>
      <point x="274" y="208"/>
      <point x="263" y="222"/>
      <point x="263" y="254" type="curve" smooth="yes"/>
      <point x="263" y="286"/>
      <point x="275" y="300"/>
      <point x="311" y="300" type="curve" smooth="yes"/>
      <point x="370" y="300"/>
      <point x="450" y="298"/>
      <point x="494" y="296" type="curve"/>
      <point x="500" y="446" type="line"/>
      <point x="460" y="454"/>
      <point x="385" y="463"/>
      <point x="308" y="465" type="curve"/>
      <point x="308" y="591" type="line"/>
      <point x="248" y="591" type="line"/>
      <point x="248" y="466" type="line"/>
      <point x="108" y="462"/>
      <point x="41" y="412"/>
    </contour>
  </outline>
</glyph>
<glyph name="circumflex.cap" format="2">
  <advance width="833"/>
  <outline>
    <contour>
      <point x="232" y="713" type="line"/>
      <point x="401" y="713" type="line"/>
      <point x="413" y="775" type="line"/>
      <point x="428" y="713" type="line"/>
      <point x="597" y="713" type="line"/>
      <point x="485" y="849" type="line"/>
      <point x="333" y="849" type="line"/>
    </contour>
  </outline>
</glyph>
<glyph name="dieresis.cap" format="2">
  <advance width="418"/>
  <outline>
    <contour>
      <point x="234" y="713" type="line"/>
      <point x="395" y="713" type="line"/>
      <point x="395" y="857" type="line"/>
      <point x="234" y="857" type="line"/>
    </contour>
    <contour>
      <point x="27" y="713" type="line"/>
      <point x="188" y="713" type="line"/>
      <point x="188" y="857" type="line"/>
      <point x="27" y="857" type="line"/>
    </contour>
  </outline>
</glyph>
<glyph name="dollar.rvrn" format="2">
  <advance width="550"/>
  <outline>
    <contour>
      <point x="247" y="-85" type="line"/>
      <point x="309" y="-85" type="line"/>
      <point x="309" y="31" type="line"/>
      <point x="247" y="31" type="line"/>
    </contour>
    <contour>
      <point x="247" y="635" type="line"/>
      <point x="309" y="635" type="line"/>
      <point x="309" y="751" type="line"/>
      <point x="247" y="751" type="line"/>
    </contour>
    <contour>
      <point x="288" y="-13" type="curve" smooth="yes"/>
      <point x="455" y="-13"/>
      <point x="548" y="45"/>
      <point x="548" y="213" type="curve" smooth="yes"/>
      <point x="548" y="367"/>
      <point x="493" y="391"/>
      <point x="306" y="433" type="curve" smooth="yes"/>
      <point x="243" y="447"/>
      <point x="236" y="452"/>
      <point x="236" y="465" type="curve" smooth="yes"/>
      <point x="236" y="479"/>
      <point x="246" y="483"/>
      <point x="286" y="483" type="curve" smooth="yes"/>
      <point x="356" y="483"/>
      <point x="460" y="474"/>
      <point x="520" y="468" type="curve"/>
      <point x="526" y="645" type="line"/>
      <point x="459" y="656"/>
      <point x="343" y="670"/>
      <point x="266" y="670" type="curve" smooth="yes"/>
      <point x="104" y="670"/>
      <point x="7" y="627"/>
      <point x="7" y="440" type="curve" smooth="yes"/>
      <point x="7" y="303"/>
      <point x="59" y="252"/>
      <point x="243" y="223" type="curve" smooth="yes"/>
      <point x="311" y="213"/>
      <point x="318" y="211"/>
      <point x="318" y="197" type="curve" smooth="yes"/>
      <point x="318" y="181"/>
      <point x="307" y="174"/>
      <point x="267" y="174" type="curve" smooth="yes"/>
      <point x="197" y="174"/>
      <point x="86" y="187"/>
      <point x="21" y="196" type="curve"/>
      <point x="12" y="23" type="line"/>
      <point x="70" y="8"/>
      <point x="186" y="-13"/>
    </contour>
  </outline>
</glyph>
<glyph name="dotaccent.cap" format="2">
  <advance width="346"/>
  <outline>
    <contour>
      <point x="83" y="713" type="line"/>
      <point x="263" y="713" type="line"/>
      <point x="263" y="856" type="line"/>
      <point x="83" y="856" type="line"/>
    </contour>
  </outline>
</glyph>
<glyph name="dotcenter-ar.alt" format="2">
  <advance width="266"/>
  <anchor x="133" y="346" name="_center"/>
  <outline>
    <contour>
      <point x="65" y="290" type="line"/>
      <point x="199" y="290" type="line"/>
      <point x="199" y="401" type="line"/>
      <point x="65" y="401" type="line"/>
    </contour>
  </outline>
</glyph>
<glyph name="eight.pnum" format="2">
  <advance width="481"/>
  <outline>
    <contour>
      <point x="229" y="-9" type="curve" smooth="yes"/>
      <point x="349" y="-9"/>
      <point x="448" y="38"/>
      <point x="448" y="154" type="curve" smooth="yes"/>
      <point x="448" y="212"/>
      <point x="418" y="245"/>
      <point x="388" y="270" type="curve"/>
      <point x="417" y="291"/>
      <point x="438" y="318"/>
      <point x="438" y="371" type="curve" smooth="yes"/>
      <point x="438" y="482"/>
      <point x="352" y="529"/>
      <point x="229" y="529" type="curve" smooth="yes"/>
      <point x="106" y="529"/>
      <point x="20" y="482"/>
      <point x="20" y="371" type="curve" smooth="yes"/>
      <point x="20" y="318"/>
      <point x="41" y="291"/>
      <point x="70" y="270" type="curve"/>
      <point x="40" y="245"/>
      <point x="10" y="212"/>
      <point x="10" y="154" type="curve" smooth="yes"/>
      <point x="10" y="38"/>
      <point x="109" y="-9"/>
    </contour>
    <contour>
      <point x="229" y="142" type="curve" smooth="yes"/>
      <point x="195" y="142"/>
      <point x="174" y="148"/>
      <point x="174" y="164" type="curve" smooth="yes"/>
      <point x="174" y="175"/>
      <point x="190" y="187"/>
      <point x="208" y="195" type="curve"/>
      <point x="250" y="195" type="line"/>
      <point x="268" y="187"/>
      <point x="284" y="175"/>
      <point x="284" y="164" type="curve" smooth="yes"/>
      <point x="284" y="148"/>
      <point x="263" y="142"/>
    </contour>
    <contour>
      <point x="209" y="334" type="line"/>
      <point x="196" y="340"/>
      <point x="185" y="349"/>
      <point x="185" y="360" type="curve" smooth="yes"/>
      <point x="185" y="368"/>
      <point x="196" y="378"/>
      <point x="229" y="378" type="curve" smooth="yes"/>
      <point x="262" y="378"/>
      <point x="273" y="368"/>
      <point x="273" y="360" type="curve" smooth="yes"/>
      <point x="273" y="349"/>
      <point x="262" y="340"/>
      <point x="249" y="334" type="curve"/>
    </contour>
  </outline>
</glyph>
<glyph name="exclamdown.cap" format="2">
  <advance width="290"/>
  <outline>
    <contour>
      <point x="252" y="426" type="line"/>
      <point x="38" y="426" type="line"/>
      <point x="24" y="0" type="line"/>
      <point x="266" y="0" type="line"/>
    </contour>
    <contour>
      <point x="259" y="670" type="line"/>
      <point x="31" y="670" type="line"/>
      <point x="31" y="472" type="line"/>
      <point x="259" y="472" type="line"/>
    </contour>
  </outline>
</glyph>
<glyph name="fehDotless-ar.init" format="2">
  <advance width="667"/>
  <anchor x="363" y="-100" name="bottom"/>
  <anchor x="363" y="573" name="top"/>
  <outline>
    <contour>
      <point x="0" y="0" type="line"/>
      <point x="607" y="0" type="line"/>
      <point x="607" y="505" type="line"/>
      <point x="350" y="505" type="line" smooth="yes"/>
      <point x="185" y="505"/>
      <point x="62" y="404"/>
      <point x="62" y="252" type="curve" smooth="yes"/>
      <point x="62" y="80"/>
      <point x="185" y="0"/>
      <point x="350" y="0" type="curve"/>
      <point x="350" y="188" type="line"/>
      <point x="306" y="188"/>
      <point x="286" y="186"/>
      <point x="286" y="252" type="curve" smooth="yes"/>
      <point x="286" y="298"/>
      <point x="306" y="317"/>
      <point x="350" y="317" type="curve" smooth="yes"/>
      <point x="405" y="317" type="line"/>
      <point x="383" y="336" type="line"/>
      <point x="383" y="169" type="line"/>
      <point x="405" y="188" type="line"/>
      <point x="0" y="188" type="line"/>
    </contour>
    <component base="connection_l"/>
  </outline>
</glyph>
<glyph name="fehDotless-ar.medi" format="2">
  <advance width="708"/>
  <outline>
    <contour>
      <point x="607" y="0" type="line"/>
      <point x="708" y="0" type="line"/>
      <point x="708" y="188" type="line"/>
      <point x="607" y="188" type="line"/>
    </contour>
    <component base="fehDotless-ar.init"/>
    <component base="connection_r" xOffset="658"/>
  </outline>
</glyph>
<glyph name="four.pnum" format="2">
  <advance width="467"/>
  <outline>
    <contour>
      <point x="241" y="0" type="line"/>
      <point x="405" y="0" type="line"/>
      <point x="405" y="77" type="line"/>
      <point x="453" y="77" type="line"/>
      <point x="453" y="239" type="line"/>
      <point x="405" y="239" type="line"/>
      <point x="405" y="327" type="line"/>
      <point x="241" y="327" type="line"/>
      <point x="241" y="239" type="line"/>
      <point x="189" y="239" type="line"/>
      <point x="321" y="520" type="line"/>
      <point x="115" y="520" type="line"/>
      <point x="2" y="202" type="line"/>
      <point x="2" y="77" type="line"/>
      <point x="241" y="77" type="line"/>
    </contour>
  </outline>
</glyph>
<glyph name="grave.cap" format="2">
  <advance width="423"/>
  <outline>
    <contour>
      <point x="43" y="849" type="line"/>
      <point x="147" y="713" type="line"/>
      <point x="319" y="713" type="line"/>
      <point x="285" y="849" type="line"/>
    </contour>
  </outline>
</glyph>
<glyph name="guillemotright.BRACKET.139" format="2">
  <advance width="624"/>
  <outline>
    <contour>
      <point x="610" y="245" type="line"/>
      <point x="610" y="266" type="line"/>
      <point x="451" y="496" type="line"/>
      <point x="289" y="422" type="line"/>
      <point x="403" y="253" type="line"/>
      <point x="289" y="84" type="line"/>
      <point x="449" y="10" type="line"/>
    </contour>
    <contour>
      <point x="340" y="245" type="line"/>
      <point x="340" y="266" type="line"/>
      <point x="181" y="496" type="line"/>
      <point x="19" y="422" type="line"/>
      <point x="133" y="253" type="line"/>
      <point x="19" y="84" type="line"/>
      <point x="179" y="10" type="line"/>
    </contour>
  </outline>
</glyph>
<glyph name="guilsinglleft.BRACKET.139" format="2">
  <advance width="354"/>
  <outline>
    <contour>
      <point x="14" y="244" type="line"/>
      <point x="173" y="14" type="line"/>
      <point x="335" y="88" type="line"/>
      <point x="221" y="257" type="line"/>
      <point x="335" y="426" type="line"/>
      <point x="175" y="500" type="line"/>
      <point x="14" y="265" type="line"/>
    </contour>
  </outline>
</glyph>
<glyph name="guilsinglright.BRACKET.139" format="2">
  <advance width="354"/>
  <outline>
    <contour>
      <point x="179" y="6" type="line"/>
      <point x="340" y="241" type="line"/>
      <point x="340" y="262" type="line"/>
      <point x="181" y="492" type="line"/>
      <point x="19" y="418" type="line"/>
      <point x="133" y="249" type="line"/>
      <point x="19" y="80" type="line"/>
    </contour>
  </outline>
</glyph>
<glyph name="hah-ar.alt" format="2">
  <advance width="661"/>
  <anchor x="377" y="-400" name="bottom"/>
  <anchor x="498" y="-115" name="center"/>
  <anchor x="269" y="573" name="top"/>
  <outline>
    <contour>
      <point x="40" y="-72" type="curve" smooth="yes"/>
      <point x="40" y="-231"/>
      <point x="173" y="-332"/>
      <point x="362" y="-332" type="curve" smooth="yes"/>
      <point x="379" y="-332"/>
      <point x="396" y="-331"/>
      <point x="413" y="-330" type="curve"/>
      <point x="380" y="-144" type="line"/>
      <point x="374" y="-144"/>
      <point x="368" y="-144"/>
      <point x="362" y="-144" type="curve" smooth="yes"/>
      <point x="291" y="-144"/>
      <point x="264" y="-123"/>
      <point x="264" y="-72" type="curve" smooth="yes"/>
      <point x="264" y="-21"/>
      <point x="291" y="0"/>
      <point x="362" y="0" type="curve" smooth="yes"/>
      <point x="601" y="0" type="line"/>
      <point x="601" y="209" type="line" smooth="yes"/>
      <point x="601" y="390"/>
      <point x="452" y="505"/>
      <point x="269" y="505" type="curve" smooth="yes"/>
      <point x="213" y="505"/>
      <point x="158" y="494"/>
      <point x="90" y="477" type="curve"/>
      <point x="109" y="306" type="line"/>
      <point x="169" y="314"/>
      <point x="207" y="317"/>
      <point x="235" y="317" type="curve" smooth="yes"/>
      <point x="338" y="317"/>
      <point x="377" y="277"/>
      <point x="377" y="209" type="curve" smooth="yes"/>
      <point x="377" y="188" type="line"/>
      <point x="362" y="188" type="line" smooth="yes"/>
      <point x="173" y="188"/>
      <point x="40" y="87"/>
    </contour>
  </outline>
</glyph>
<glyph name="hungarumlaut.cap" format="2">
  <advance width="463"/>
  <outline>
    <contour>
      <point x="156" y="714" type="line"/>
      <point x="242" y="912" type="line"/>
      <point x="99" y="965" type="line"/>
      <point x="30" y="759" type="line"/>
    </contour>
    <contour>
      <point x="359" y="714" type="line"/>
      <point x="445" y="912" type="line"/>
      <point x="302" y="965" type="line"/>
      <point x="233" y="759" type="line"/>
    </contour>
  </outline>
</glyph>
<glyph name="oslashacute.rvrn" format="2">
  <advance width="564"/>
  <outline>
    <contour>
      <point x="566" y="546" type="line"/>
      <point x="349" y="589" type="line"/>
      <point x="271" y="454" type="line"/>
      <point x="482" y="398" type="line"/>
    </contour>
    <contour>
      <point x="-5" y="-30" type="line"/>
      <point x="212" y="-74" type="line"/>
      <point x="259" y="8" type="line"/>
      <point x="63" y="89" type="line"/>
    </contour>
    <component base="o"/>
    <component base="acute" xOffset="-32"/>
  </outline>
</glyph>
<glyph name="paragraph.rvrn" format="2">
  <advance width="578"/>
  <outline>
    <contour>
      <point x="259" y="0" type="line"/>
      <point x="312" y="0" type="line"/>
      <point x="365" y="0" type="line"/>
      <point x="406" y="0" type="line"/>
      <point x="436" y="0" type="line"/>
      <point x="487" y="0" type="line"/>
      <point x="487" y="511" type="line"/>
      <point x="557" y="511" type="line"/>
      <point x="557" y="700" type="line"/>
      <point x="254" y="700" type="line" smooth="yes"/>
      <point x="121" y="700"/>
      <point x="16" y="589"/>
      <point x="16" y="454" type="curve" smooth="yes"/>
      <point x="16" y="319"/>
      <point x="119" y="210"/>
      <point x="252" y="210" type="curve" smooth="yes"/>
      <point x="259" y="210" type="line"/>
    </contour>
  </outline>
</glyph>
<glyph name="seven-persian.urdu" format="2">
  <advance width="527"/>
  <outline>
    <contour>
      <point x="10" y="0" type="line"/>
      <point x="517" y="0" type="line"/>
      <point x="517" y="188" type="line"/>
      <point x="228" y="188" type="line"/>
      <point x="283" y="135" type="line"/>
      <point x="428" y="604" type="line"/>
      <point x="214" y="660" type="line"/>
    </contour>
  </outline>
</glyph>
<glyph name="seven.pnum" format="2">
  <advance width="405"/>
  <outline>
    <contour>
      <point x="192" y="-18" type="line"/>
      <point x="386" y="362" type="line"/>
      <point x="386" y="520" type="line"/>
      <point x="-1" y="520" type="line"/>
      <point x="-1" y="355" type="line"/>
      <point x="304" y="355" type="line"/>
      <point x="253" y="442" type="line"/>
      <point x="14" y="28" type="line"/>
    </contour>
  </outline>
</glyph>
<glyph name="three.pnum" format="2">
  <advance width="457"/>
  <outline>
    <contour>
      <point x="201" y="-8" type="curve" smooth="yes"/>
      <point x="346" y="-8"/>
      <point x="425" y="51"/>
      <point x="425" y="157" type="curve" smooth="yes"/>
      <point x="425" y="219"/>
      <point x="398" y="255"/>
      <point x="362" y="272" type="curve"/>
      <point x="394" y="293"/>
      <point x="412" y="332"/>
      <point x="412" y="384" type="curve" smooth="yes"/>
      <point x="412" y="482"/>
      <point x="348" y="530"/>
      <point x="215" y="530" type="curve" smooth="yes"/>
      <point x="148" y="530"/>
      <point x="73" y="518"/>
      <point x="10" y="505" type="curve"/>
      <point x="30" y="355" type="line"/>
      <point x="121" y="363"/>
      <point x="167" y="366"/>
      <point x="199" y="366" type="curve" smooth="yes"/>
      <point x="236" y="366"/>
      <point x="248" y="362"/>
      <point x="248" y="350" type="curve" smooth="yes"/>
      <point x="248" y="338"/>
      <point x="237" y="334"/>
      <point x="212" y="334" type="curve" smooth="yes"/>
      <point x="87" y="334" type="line"/>
      <point x="87" y="190" type="line"/>
      <point x="213" y="190" type="line" smooth="yes"/>
      <point x="252" y="190"/>
      <point x="262" y="185"/>
      <point x="262" y="174" type="curve" smooth="yes"/>
      <point x="262" y="163"/>
      <point x="251" y="160"/>
      <point x="210" y="160" type="curve" smooth="yes"/>
      <point x="176" y="160"/>
      <point x="125" y="162"/>
      <point x="19" y="171" type="curve"/>
      <point x="-1" y="18" type="line"/>
      <point x="64" y="4"/>
      <point x="136" y="-8"/>
    </contour>
  </outline>
</glyph>
<glyph name="two.pnum" format="2">
  <advance width="461"/>
  <outline>
    <contour>
      <point x="11" y="0" type="line"/>
      <point x="428" y="0" type="line"/>
      <point x="428" y="159" type="line"/>
      <point x="270" y="157" type="line"/>
      <point x="320" y="193" type="line" smooth="yes"/>
      <point x="392" y="245"/>
      <point x="424" y="286"/>
      <point x="424" y="363" type="curve" smooth="yes"/>
      <point x="424" y="491"/>
      <point x="331" y="529"/>
      <point x="218" y="529" type="curve" smooth="yes"/>
      <point x="180" y="529"/>
      <point x="132" y="524"/>
      <point x="10" y="505" type="curve"/>
      <point x="18" y="352" type="line"/>
      <point x="92" y="360"/>
      <point x="146" y="365"/>
      <point x="165" y="365" type="curve" smooth="yes"/>
      <point x="210" y="365"/>
      <point x="228" y="360"/>
      <point x="228" y="340" type="curve" smooth="yes"/>
      <point x="228" y="326"/>
      <point x="214" y="309"/>
      <point x="151" y="256" type="curve" smooth="yes"/>
      <point x="11" y="140" type="line"/>
    </contour>
  </outline>
</glyph>
<glyph name="zero.pnum" format="2">
  <advance width="518"/>
  <outline>
    <contour>
      <point x="247" y="-8" type="curve" smooth="yes"/>
      <point x="388" y="-8"/>
      <point x="480" y="45"/>
      <point x="480" y="254" type="curve" smooth="yes"/>
      <point x="480" y="461"/>
      <point x="387" y="529"/>
      <point x="247" y="529" type="curve" smooth="yes"/>
      <point x="107" y="529"/>
      <point x="13" y="461"/>
      <point x="13" y="254" type="curve" smooth="yes"/>
      <point x="13" y="45"/>
      <point x="106" y="-8"/>
    </contour>
    <contour>
      <point x="247" y="148" type="curve" smooth="yes"/>
      <point x="201" y="148"/>
      <point x="177" y="169"/>
      <point x="177" y="254" type="curve" smooth="yes"/>
      <point x="177" y="350"/>
      <point x="201" y="372"/>
      <point x="247" y="372" type="curve" smooth="yes"/>
      <point x="293" y="372"/>
      <point x="316" y="350"/>
      <point x="316" y="254" type="curve" smooth="yes"/>
      <point x="316" y="169"/>
      <point x="293" y="148"/>
    </contour>
  </outline>
</glyph>
<glyph name="zero.slash" format="2">
  <advance width="550"/>
  <outline>
    <contour>
      <point x="78" y="-65" type="line"/>
      <point x="146" y="-65" type="line"/>
      <point x="196" y="41" type="line"/>
      <point x="128" y="41" type="line"/>
    </contour>
    <contour>
      <point x="378" y="625" type="line"/>
      <point x="446" y="625" type="line"/>
      <point x="496" y="731" type="line"/>
      <point x="428" y="731" type="line"/>
    </contour>
    <component base="period" xScale="0.2" yScale="0.2" xOffset="246" yOffset="309"/>
    <component base="zero"/>
  </outline>
</glyph>
